<svg width="18" height="23" viewBox="0 0 18 23" fill="none" xmlns="http://www.w3.org/2000/svg">
<path d="M18 19.5249L16.7036 4.91503C16.6803 4.62591 16.4378 4.40674 16.144 4.40674H13.4114C13.4067 1.9772 11.4295 0 9 0C6.57047 0 4.59326 1.9772 4.5886 4.40674H1.85596C1.56684 4.40674 1.32435 4.62591 1.29637 4.91503L0 19.5249C0 19.5435 0 19.5575 0 19.5762C0 21.2036 1.49689 22.528 3.3342 22.528H14.6658C16.5031 22.528 18 21.2036 18 19.5762C18 19.5575 18 19.5435 18 19.5249ZM9 1.11917C10.814 1.11917 12.2876 2.59275 12.2922 4.40674H5.70777C5.71244 2.59275 7.18601 1.11917 9 1.11917ZM14.6658 21.4041H3.3342C2.12176 21.4041 1.13316 20.5974 1.11917 19.5948L2.36891 5.52591H4.5886V7.48912C4.5886 7.79689 4.84041 8.0487 5.14819 8.0487C5.45596 8.0487 5.70777 7.79689 5.70777 7.48912V5.52591H12.2922V7.48912C12.2922 7.79689 12.544 8.0487 12.8518 8.0487C13.1596 8.0487 13.4114 7.79689 13.4114 7.48912V5.52591H15.6311L16.8808 19.5995C16.8668 20.5974 15.8782 21.4041 14.6658 21.4041Z" fill="#F7F6FF"/>
</svg>
