<svg width="28" height="34" viewBox="0 0 28 34" fill="none" xmlns="http://www.w3.org/2000/svg">
<path d="M26.8333 15.5589H3.55892L12.4711 3.39956C12.9377 2.76284 12.9558 1.705 12.5113 1.03653C12.0674 0.368905 11.3289 0.342166 10.8617 0.978879L0.683667 14.8662C0.24325 15.4979 0 16.3369 0 17.2301C0 18.1225 0.24325 18.9622 0.704083 19.6215L10.8623 33.4805C11.088 33.7888 11.3773 33.9417 11.6667 33.9417C11.9747 33.9417 12.2827 33.7679 12.5119 33.4228C12.9564 32.7543 12.9383 31.6973 12.4717 31.0606L3.52217 18.9012H26.8333C27.4773 18.9012 28 18.1526 28 17.2301C28 16.3076 27.4773 15.5589 26.8333 15.5589Z" fill="#FF0036"/>
</svg>
