<svg width="68" height="67" viewBox="0 0 68 67" fill="none" xmlns="http://www.w3.org/2000/svg">
<path d="M17.976 61.2129H8.80888C7.70349 61.2129 7.0366 60.596 6.73753 60.2282C6.22122 59.593 6.02119 58.7665 6.18911 57.96C8.87801 45.0443 20.2763 35.612 33.4348 35.3059C33.654 35.3141 33.8737 35.3195 34.0947 35.3195C34.3176 35.3195 34.5393 35.3139 34.7604 35.3057C37.978 35.3791 41.121 35.9841 44.1126 37.1074C45.4513 37.6104 46.9441 36.9324 47.4469 35.5936C47.9496 34.2549 47.2718 32.762 45.933 32.2593C45.5043 32.0982 45.0727 31.9475 44.639 31.8046C48.9245 28.5899 51.7022 23.4693 51.7022 17.712C51.7022 8.00327 43.8035 0.104492 34.0947 0.104492C24.3858 0.104492 16.4872 8.00327 16.4872 17.712C16.4872 23.4744 19.2697 28.5991 23.5616 31.8133C19.6296 33.1077 15.9398 35.1207 12.7106 37.7768C6.78984 42.647 2.67318 49.44 1.11919 56.9046C0.632131 59.2436 1.21551 61.646 2.71979 63.4955C4.21642 65.336 6.43588 66.3916 8.80888 66.3916H17.976C19.4061 66.3916 20.5654 65.2323 20.5654 63.8022C20.5654 62.3722 19.4061 61.2129 17.976 61.2129ZM21.6659 17.712C21.6659 10.8587 27.2413 5.28317 34.0947 5.28317C40.948 5.28317 46.5235 10.8587 46.5235 17.712C46.5235 24.3623 41.2731 29.8091 34.6998 30.1259C34.4982 30.1223 34.2966 30.1192 34.0947 30.1192C33.8922 30.1192 33.6898 30.1222 33.4876 30.1258C26.9152 29.8081 21.6659 24.3617 21.6659 17.712Z" fill="#FF0036"/>
<path d="M65.2582 44.72C64.1498 42.2407 61.6532 40.6343 58.8915 40.6279H50.8164C50.8106 40.6279 50.8051 40.6279 50.7992 40.6279C47.8862 40.6279 45.3447 42.3447 44.3221 45.0048C44.186 45.3588 44.0196 45.8047 43.846 46.3245H26.8928C26.1928 46.3245 25.5227 46.6079 25.035 47.1101L20.587 51.6917C19.6073 52.7007 19.6123 54.3073 20.598 55.3103L25.1294 59.9208C25.6162 60.4162 26.2816 60.6952 26.9761 60.6952H35.3914C36.8215 60.6952 37.9808 59.5359 37.9808 58.1058C37.9808 56.6757 36.8215 55.5165 35.3914 55.5165H28.0618L26.0644 53.4841L27.9879 51.5032H45.7884C46.9813 51.5032 48.0198 50.6882 48.3034 49.5296C48.5129 48.6742 48.7757 47.8518 49.1558 46.8631C49.4065 46.2111 50.036 45.8066 50.8054 45.8066C50.8071 45.8066 50.8088 45.8066 50.8104 45.8066H58.8854C59.6177 45.8083 60.2479 46.2019 60.5303 46.8335C61.2254 48.3887 62.0554 50.7963 62.0616 53.4345C62.0678 56.0924 61.2387 58.5551 60.5418 60.1531C60.2609 60.7976 59.6253 61.2132 58.9157 61.2132C58.9143 61.2132 58.9129 61.2132 58.9114 61.2132H50.7388C50.0225 61.2115 49.3515 60.7506 49.0692 60.0664C48.7664 59.3322 48.504 58.4939 48.2669 57.5033C47.9341 56.1126 46.5363 55.255 45.1461 55.5877C43.7553 55.9206 42.8977 57.3179 43.2305 58.7086C43.531 59.9643 43.875 61.0543 44.2819 62.0409C45.3693 64.6773 47.8991 66.3851 50.7329 66.3917H58.9055C58.9111 66.3917 58.9162 66.3917 58.9218 66.3917C61.686 66.3916 64.1842 64.7566 65.289 62.2228C66.1839 60.1706 67.2487 56.9779 67.2403 53.4222C67.232 49.8763 66.1578 46.7327 65.2582 44.72Z" fill="#FF0036"/>
<path d="M56.7495 56.0351C58.1795 56.0351 59.3388 54.8758 59.3388 53.4458C59.3388 52.0157 58.1795 50.8564 56.7495 50.8564C55.3194 50.8564 54.1602 52.0157 54.1602 53.4458C54.1602 54.8758 55.3194 56.0351 56.7495 56.0351Z" fill="#FF0036"/>
</svg>
