<svg width="512" height="512" viewBox="0 0 512 512" fill="none" xmlns="http://www.w3.org/2000/svg">
<path d="M473.668 139.109L410.282 303.914H153.733L98.973 30.1182H0V71.1872H65.305L120.064 344.984H438.488L512 153.853L473.668 139.109Z" fill="#A3A7A7"/>
<path d="M191.659 358.674C157.69 358.674 130.055 386.31 130.055 420.278C130.055 454.246 157.691 481.882 191.659 481.882C225.628 481.882 253.263 454.246 253.263 420.278C253.263 386.31 225.627 358.674 191.659 358.674Z" fill="#A3A7A7"/>
<path d="M369.625 358.674C335.656 358.674 308.021 386.31 308.021 420.278C308.021 454.246 335.657 481.882 369.625 481.882C403.594 481.882 431.229 454.246 431.229 420.278C431.229 386.31 403.593 358.674 369.625 358.674Z" fill="#A3A7A7"/>
<path d="M376.109 104.419C371.304 90.7429 364.651 78.9149 356.149 68.9349C347.648 58.9549 337.54 51.1359 325.84 45.4639C314.134 39.7979 301.502 36.9629 287.953 36.9629C274.15 36.9629 261.462 39.7979 249.882 45.4639C238.296 51.1359 228.259 58.9549 219.758 68.9349C211.257 78.9149 204.603 90.7429 199.798 104.419C194.993 118.095 192.59 133.065 192.59 149.329C192.59 165.592 194.993 180.562 199.798 194.238C204.603 207.914 211.256 219.742 219.758 229.722C228.259 239.702 238.297 247.464 249.882 253.008C261.462 258.552 274.15 261.325 287.953 261.325C301.502 261.325 314.133 258.553 325.84 253.008C337.541 247.464 347.648 239.7 356.149 229.722C364.65 219.742 371.304 207.914 376.109 194.238C380.914 180.562 383.317 165.592 383.317 149.329C383.316 133.065 380.914 118.095 376.109 104.419ZM330.09 176.311C327.872 184.443 324.73 191.466 320.665 197.38C316.599 203.294 311.794 207.857 306.25 211.056C300.706 214.261 294.607 215.861 287.953 215.861C281.052 215.861 274.831 214.261 269.287 211.056C263.743 207.855 258.938 203.294 254.872 197.38C250.806 191.466 247.664 184.443 245.447 176.311C243.229 168.179 242.12 159.186 242.12 149.328C242.12 139.475 243.229 130.42 245.447 122.161C247.665 113.907 250.807 106.822 254.872 100.908C258.938 94.9939 263.743 90.4379 269.287 87.2319C274.831 84.0329 281.052 82.4269 287.953 82.4269C294.606 82.4269 300.705 84.0329 306.25 87.2319C311.794 90.4379 316.599 94.9939 320.665 100.908C324.731 106.822 327.873 113.909 330.09 122.161C332.308 130.419 333.417 139.476 333.417 149.328C333.417 159.187 332.308 168.18 330.09 176.311Z" fill="#A3A7A7"/>
</svg>
