<svg width="15" height="7" viewBox="0 0 15 7" fill="none" xmlns="http://www.w3.org/2000/svg">
<path d="M7.17128 0C4.81311 0 2.67458 1.22752 1.09657 3.22135C0.967809 3.38469 0.967809 3.6129 1.09657 3.77625C2.67458 5.77248 4.81311 7 7.17128 7C9.52946 7 11.668 5.77248 13.246 3.77865C13.3748 3.61531 13.3748 3.3871 13.246 3.22375C11.668 1.22752 9.52946 0 7.17128 0ZM7.34045 5.96465C5.77506 6.05834 4.48235 4.83082 4.58082 3.33905C4.66162 2.10913 5.70942 1.11222 7.00212 1.03535C8.56751 0.941661 9.86021 2.16918 9.76175 3.66095C9.67843 4.88847 8.63063 5.88538 7.34045 5.96465ZM7.26218 4.82601C6.41889 4.87646 5.72204 4.21585 5.77759 3.41352C5.82051 2.75051 6.38607 2.21482 7.08292 2.17159C7.9262 2.12114 8.62305 2.78174 8.56751 3.58408C8.52206 4.24949 7.9565 4.78517 7.26218 4.82601Z" fill="#9B9B9B"/>
<line y1="3.5" x2="15" y2="3.5" stroke="#9B9B9B"/>
</svg>
