<svg width="13" height="7" viewBox="0 0 13 7" fill="none" xmlns="http://www.w3.org/2000/svg">
<path d="M6.17128 0C3.81311 0 1.67458 1.22752 0.0965743 3.22135C-0.0321914 3.38469 -0.0321914 3.6129 0.0965743 3.77625C1.67458 5.77248 3.81311 7 6.17128 7C8.52946 7 10.668 5.77248 12.246 3.77865C12.3748 3.61531 12.3748 3.3871 12.246 3.22375C10.668 1.22752 8.52946 0 6.17128 0ZM6.34045 5.96465C4.77506 6.05834 3.48235 4.83082 3.58082 3.33905C3.66162 2.10913 4.70942 1.11222 6.00212 1.03535C7.56751 0.941661 8.86021 2.16918 8.76175 3.66095C8.67843 4.88847 7.63063 5.88538 6.34045 5.96465ZM6.26218 4.82601C5.41889 4.87646 4.72204 4.21585 4.77759 3.41352C4.82051 2.75051 5.38607 2.21482 6.08292 2.17159C6.9262 2.12114 7.62305 2.78174 7.56751 3.58408C7.52206 4.24949 6.9565 4.78517 6.26218 4.82601Z" fill="#B3B2B2"/>
</svg>
