<svg width="24" height="7" viewBox="0 0 24 7" fill="none" xmlns="http://www.w3.org/2000/svg">
<path d="M12.1713 0C9.81311 0 7.67458 1.22752 6.09657 3.22135C5.96781 3.38469 5.96781 3.6129 6.09657 3.77625C7.67458 5.77248 9.81311 7 12.1713 7C14.5295 7 16.668 5.77248 18.246 3.77865C18.3748 3.61531 18.3748 3.3871 18.246 3.22375C16.668 1.22752 14.5295 0 12.1713 0ZM12.3404 5.96465C10.7751 6.05834 9.48235 4.83082 9.58082 3.33905C9.66162 2.10913 10.7094 1.11222 12.0021 1.03535C13.5675 0.941661 14.8602 2.16918 14.7617 3.66095C14.6784 4.88847 13.6306 5.88538 12.3404 5.96465ZM12.2622 4.82601C11.4189 4.87646 10.722 4.21585 10.7776 3.41352C10.8205 2.75051 11.3861 2.21482 12.0829 2.17159C12.9262 2.12114 13.6231 2.78174 13.5675 3.58408C13.5221 4.24949 12.9565 4.78517 12.2622 4.82601Z" fill="#9B9B9B"/>
<line y1="3.5" x2="24" y2="3.5" stroke="#9B9B9B"/>
</svg>
