<svg width="38" height="38" viewBox="0 0 38 38" fill="none" xmlns="http://www.w3.org/2000/svg">
<path d="M37.5 19C37.5 29.2173 29.2173 37.5 19 37.5C8.78273 37.5 0.5 29.2173 0.5 19C0.5 8.78273 8.78273 0.5 19 0.5C29.2173 0.5 37.5 8.78273 37.5 19Z" fill="white" stroke="#A3A7A7"/>
<path d="M23.7766 19.7439H20.3862V32.1644H15.2496V19.7439H12.8066V15.3788H15.2496V12.5541C15.2496 10.5341 16.2091 7.37109 20.432 7.37109L24.2368 7.38701V11.6241H21.4762C21.0233 11.6241 20.3866 11.8503 20.3866 12.8139V15.3829H24.2253L23.7766 19.7439Z" fill="#3B5998"/>
<path d="M37.5 19C37.5 29.2173 29.2173 37.5 19 37.5C8.78273 37.5 0.5 29.2173 0.5 19C0.5 8.78273 8.78273 0.5 19 0.5C29.2173 0.5 37.5 8.78273 37.5 19Z" fill="white" stroke="#A3A7A7"/>
<path d="M23.7766 19.7439H20.3862V32.1644H15.2496V19.7439H12.8066V15.3788H15.2496V12.5541C15.2496 10.5341 16.2091 7.37109 20.432 7.37109L24.2368 7.38701V11.6241H21.4762C21.0233 11.6241 20.3866 11.8503 20.3866 12.8139V15.3829H24.2253L23.7766 19.7439Z" fill="#3B5998"/>
</svg>
