<svg width="37" height="38" viewBox="0 0 37 38" fill="none" xmlns="http://www.w3.org/2000/svg">
<path d="M36.5 19C36.5 29.2299 28.4286 37.5 18.5 37.5C8.57136 37.5 0.5 29.2299 0.5 19C0.5 8.77008 8.57136 0.5 18.5 0.5C28.4286 0.5 36.5 8.77008 36.5 19Z" fill="white" stroke="#A3A7A7"/>
<path d="M12.8757 21.6903L12.1099 24.4192L9.31093 24.4757C8.47446 22.9947 8 21.3003 8 19.4998C8 17.7586 8.44361 16.1167 9.22994 14.6709H9.23054L11.7224 15.107L12.814 17.4713C12.5855 18.1071 12.461 18.7896 12.461 19.4998C12.4611 20.2705 12.6073 21.009 12.8757 21.6903Z" fill="#FBBB00"/>
<path d="M29.8082 17.5391C29.9345 18.1742 30.0004 18.8302 30.0004 19.5006C30.0004 20.2523 29.9176 20.9856 29.7598 21.6929C29.2243 24.0998 27.8252 26.2016 25.8869 27.6889L25.8863 27.6883L22.7477 27.5354L22.3035 24.8885C23.5896 24.1685 24.5947 23.0418 25.1242 21.6929H19.2422V17.5391H25.21H29.8082Z" fill="#518EF8"/>
<path d="M25.8865 27.6875L25.8871 27.6881C24.002 29.1344 21.6073 29.9998 19.0006 29.9998C14.8115 29.9998 11.1694 27.7648 9.31152 24.4758L12.8763 21.6904C13.8052 24.0569 16.1968 25.7416 19.0006 25.7416C20.2057 25.7416 21.3348 25.4306 22.3036 24.8877L25.8865 27.6875Z" fill="#28B446"/>
<path d="M26.0208 11.4173L22.4573 14.2021C21.4546 13.6038 20.2694 13.2582 18.9996 13.2582C16.1323 13.2582 13.696 15.0202 12.8136 17.4715L9.23009 14.6711H9.22949C11.0602 11.3019 14.7482 9 18.9996 9C21.6686 9 24.1158 9.90751 26.0208 11.4173Z" fill="#F14336"/>
<path d="M36.5 19C36.5 29.2299 28.4286 37.5 18.5 37.5C8.57136 37.5 0.5 29.2299 0.5 19C0.5 8.77008 8.57136 0.5 18.5 0.5C28.4286 0.5 36.5 8.77008 36.5 19Z" fill="white" stroke="#A3A7A7"/>
<path d="M12.8757 21.6903L12.1099 24.4192L9.31093 24.4757C8.47446 22.9947 8 21.3003 8 19.4998C8 17.7586 8.44361 16.1167 9.22994 14.6709H9.23054L11.7224 15.107L12.814 17.4713C12.5855 18.1071 12.461 18.7896 12.461 19.4998C12.4611 20.2705 12.6073 21.009 12.8757 21.6903Z" fill="#FBBB00"/>
<path d="M29.8082 17.5391C29.9345 18.1742 30.0004 18.8302 30.0004 19.5006C30.0004 20.2523 29.9176 20.9856 29.7598 21.6929C29.2243 24.0998 27.8252 26.2016 25.8869 27.6889L25.8863 27.6883L22.7477 27.5354L22.3035 24.8885C23.5896 24.1685 24.5947 23.0418 25.1242 21.6929H19.2422V17.5391H25.21H29.8082Z" fill="#518EF8"/>
<path d="M25.8865 27.6875L25.8871 27.6881C24.002 29.1344 21.6073 29.9998 19.0006 29.9998C14.8115 29.9998 11.1694 27.7648 9.31152 24.4758L12.8763 21.6904C13.8052 24.0569 16.1968 25.7416 19.0006 25.7416C20.2057 25.7416 21.3348 25.4306 22.3036 24.8877L25.8865 27.6875Z" fill="#28B446"/>
<path d="M26.0208 11.4173L22.4573 14.2021C21.4546 13.6038 20.2694 13.2582 18.9996 13.2582C16.1323 13.2582 13.696 15.0202 12.8136 17.4715L9.23009 14.6711H9.22949C11.0602 11.3019 14.7482 9 18.9996 9C21.6686 9 24.1158 9.90751 26.0208 11.4173Z" fill="#F14336"/>
</svg>
