<svg width="171" height="149" viewBox="0 0 171 149" fill="none" xmlns="http://www.w3.org/2000/svg">
<rect width="171" height="149" rx="20" fill="#FF0036"/>
<g clip-path="url(#clip0)">
<path d="M44.6427 36.9976C44.6369 34.2006 46.3604 31.698 48.9305 30.6259C48.9487 30.6188 48.9661 30.6103 48.9842 30.6032C49.2531 30.4933 49.5314 30.3996 49.8177 30.3223C50.836 30.0484 51.9884 29.766 53.259 29.4964C57.6621 28.5633 63.4873 27.7864 70.1104 28.0532C79.8082 28.4427 88.8739 30.9573 97.0865 35.5317C97.6337 35.8368 98.1773 36.1504 98.7173 36.4739C116.822 47.3142 123.528 64.1067 125.914 73.1511C125.962 73.3378 126.004 73.5244 126.036 73.7117C126.101 74.0863 126.133 74.4617 126.135 74.8356C126.143 77.2615 124.832 79.5859 122.615 80.8446L53.2075 120.251C52.3284 120.75 51.3637 121 50.399 121C49.4408 121 48.4826 120.754 47.6085 120.262C45.8538 119.275 44.8036 117.503 44.7999 115.521L44.6427 36.9997C44.6427 36.999 44.6427 36.999 44.6427 36.999C44.6427 36.999 44.6427 36.9983 44.6427 36.9976ZM48.9958 117.9C49.8786 118.396 50.9302 118.394 51.8109 117.894L113.328 82.9675C112.815 81.4016 112.238 79.8392 111.596 78.3095C111.304 77.6127 111.644 76.8173 112.355 76.5314C113.066 76.2454 113.879 76.5782 114.171 77.2742C114.763 78.6855 115.306 80.1237 115.793 81.5676L121.218 78.4876C122.871 77.5488 123.694 75.6345 123.218 73.8323C120.937 65.1866 114.533 49.1384 97.2648 38.7983C89.0362 33.8713 79.8618 31.1723 69.9959 30.7756C61.8203 30.4478 54.9115 31.7768 50.5555 32.9497C48.7095 33.447 47.4222 35.1102 47.4259 36.994C47.428 37.9696 47.4491 39.3 47.4701 40.5871C47.481 41.2583 47.4918 41.9416 47.4998 42.583C52.3168 41.7316 58.4442 40.9482 65.2826 41.3669C74.1736 41.9111 82.4167 44.4235 89.7842 48.8347C98.8151 54.2428 106.018 61.739 111.194 71.1169C111.559 71.7789 111.307 72.6055 110.631 72.9631C109.954 73.3207 109.109 73.0738 108.744 72.4118C103.806 63.4632 96.9379 56.3125 88.3317 51.1591C81.3549 46.9821 73.5423 44.6023 65.1094 44.0865C58.2978 43.67 52.1805 44.5044 47.4425 45.3637L47.5832 115.516C47.5853 116.512 48.1137 117.403 48.9958 117.9V117.9Z" fill="white"/>
<path d="M61.7249 85.588C61.4495 80.815 65.1923 76.7132 70.0666 76.4436C72.4279 76.3144 74.7009 77.0899 76.465 78.6325C78.2292 80.175 79.2751 82.2979 79.4084 84.6089C79.5418 86.9213 78.7474 89.1457 77.1717 90.8727C75.596 92.6004 73.4282 93.6235 71.0668 93.7541C70.8972 93.7633 70.729 93.7676 70.5616 93.7676C65.9055 93.7683 61.9916 90.1943 61.7249 85.588ZM64.5045 85.4341C64.6937 88.7065 67.5668 91.2175 70.9095 91.033C72.5287 90.9436 74.0152 90.2419 75.0959 89.0577C76.1758 87.8735 76.7202 86.3487 76.6288 84.7629C76.5375 83.1778 75.8207 81.7225 74.611 80.6653C73.489 79.684 72.067 79.154 70.5746 79.154C70.4587 79.154 70.3413 79.1575 70.2238 79.1639C66.8811 79.3491 64.3153 82.1617 64.5045 85.4341V85.4341Z" fill="white"/>
<path d="M64.918 70.8425C64.7143 70.8538 64.5113 70.8595 64.3091 70.8595C61.3252 70.8595 58.4934 69.6427 56.4633 67.4687C55.9443 66.9138 55.9842 66.0517 56.5517 65.5437C57.1192 65.0364 57.9991 65.0747 58.5173 65.6302C60.1184 67.3445 62.3942 68.2527 64.7607 68.1221C66.8546 68.0058 68.7775 67.099 70.1749 65.5671C71.5716 64.0359 72.276 62.0627 72.1572 60.0129C72.039 57.9623 71.112 56.0806 69.5479 54.7126C67.9831 53.3447 65.9667 52.6564 63.8735 52.7714C59.5509 53.0105 56.232 56.6483 56.477 60.8806C56.5198 61.632 55.9334 62.2756 55.1659 62.3181C54.4019 62.3593 53.7409 61.7853 53.6974 61.0346C53.3669 55.3023 57.8614 50.3746 63.717 50.0503C66.556 49.8928 69.2834 50.8279 71.4019 52.6798C73.5212 54.5324 74.7766 57.0818 74.9368 59.8589C75.0969 62.636 74.1431 65.3074 72.2507 67.3821C70.3582 69.4568 67.7541 70.6857 64.918 70.8425V70.8425Z" fill="white"/>
<path d="M89.3861 78.1982C89.2723 76.2292 89.9239 74.3334 91.2206 72.8604C92.5303 71.3739 94.3372 70.4948 96.3108 70.3862C100.365 70.1627 103.854 73.301 104.09 77.3844C104.326 81.4677 101.219 84.9721 97.1653 85.197C97.0269 85.2048 96.8892 85.2084 96.7522 85.2084C94.9286 85.2084 93.192 84.5386 91.8236 83.2997C90.366 81.9793 89.4999 80.1672 89.3861 78.1982V78.1982ZM92.1657 78.0442C92.2382 79.3044 92.7883 80.4602 93.7138 81.2989C94.6264 82.1248 95.7933 82.5427 97.0088 82.476C99.5296 82.3362 101.46 80.121 101.31 77.5383C101.166 75.0408 99.1309 73.0995 96.7174 73.0995C96.6348 73.0995 96.5507 73.1016 96.4673 73.1066C95.2555 73.1733 94.1407 73.7182 93.3297 74.6399C92.5063 75.5751 92.0925 76.7841 92.1657 78.0442Z" fill="white"/>
<path d="M52.2231 100.463C52.1361 98.9586 52.634 97.5097 53.6263 96.383C54.6301 95.242 56.0181 94.568 57.5329 94.4842C59.0492 94.4012 60.5038 94.9171 61.6323 95.9395C62.7478 96.9499 63.4102 98.3349 63.4972 99.8391C63.6777 102.964 61.2953 105.646 58.1874 105.818C58.0808 105.824 57.975 105.827 57.8692 105.827C56.4696 105.827 55.1367 105.313 54.0872 104.363C52.9718 103.353 52.31 101.968 52.2231 100.463V100.463ZM55.0019 100.31C55.0476 101.106 55.3948 101.834 55.9775 102.362C56.5472 102.878 57.2785 103.141 58.0301 103.097C59.6058 103.01 60.8119 101.617 60.7176 99.9931C60.672 99.197 60.3255 98.4676 59.7428 97.9404C59.2122 97.46 58.5447 97.2003 57.846 97.2003C57.7945 97.2003 57.7424 97.2018 57.6895 97.2046C56.9357 97.2465 56.2413 97.5863 55.7347 98.1618C55.2165 98.7507 54.9563 99.5134 55.0019 100.31V100.31Z" fill="white"/>
<path d="M81.8163 74.241C81.8163 74.9391 82.3947 75.5053 83.1078 75.5053C83.8218 75.5053 84.3994 74.9391 84.3994 74.241C84.3994 73.5421 83.8218 72.9766 83.1078 72.9766C82.3947 72.9766 81.8163 73.5421 81.8163 74.241V74.241Z" fill="white"/>
<path d="M68.9833 101.416C68.9833 102.114 69.5616 102.68 70.2748 102.68C70.9887 102.68 71.5664 102.114 71.5664 101.416C71.5664 100.718 70.9887 100.151 70.2748 100.151C69.5616 100.151 68.9833 100.718 68.9833 101.416Z" fill="white"/>
<path d="M81.8163 58.4695C81.8163 59.1676 82.3947 59.7339 83.1078 59.7339C83.8218 59.7339 84.3994 59.1676 84.3994 58.4695C84.3994 57.7713 83.8218 57.2051 83.1078 57.2051C82.3947 57.2051 81.8163 57.7713 81.8163 58.4695Z" fill="white"/>
<path d="M53.9842 76.5281C53.9842 77.2262 54.5626 77.7924 55.2758 77.7924C55.989 77.7924 56.5674 77.2262 56.5674 76.5281C56.5674 75.8299 55.989 75.2637 55.2758 75.2637C54.5626 75.2637 53.9842 75.8299 53.9842 76.5281Z" fill="white"/>
<path d="M51.4002 50.1335C51.4002 50.8317 51.9786 51.3979 52.6918 51.3979C53.405 51.3979 53.9834 50.8317 53.9834 50.1335C53.9834 49.4353 53.405 48.8691 52.6918 48.8691C51.9786 48.8691 51.4002 49.4353 51.4002 50.1335Z" fill="white"/>
<path d="M55.2752 90.9372C55.2752 91.6361 55.8536 92.2016 56.5668 92.2016C57.28 92.2016 57.8584 91.6361 57.8584 90.9372C57.8584 90.2391 57.28 89.6729 56.5668 89.6729C55.8536 89.6729 55.2752 90.2391 55.2752 90.9372Z" fill="white"/>
<path d="M51.4002 111.76C51.4002 112.459 51.9786 113.025 52.6918 113.025C53.405 113.025 53.9834 112.459 53.9834 111.76C53.9834 111.062 53.405 110.496 52.6918 110.496C51.9786 110.496 51.4002 111.062 51.4002 111.76Z" fill="white"/>
<path d="M88.701 89.6726C88.701 90.3715 89.2794 90.937 89.9926 90.937C90.7058 90.937 91.2842 90.3715 91.2842 89.6726C91.2842 88.9744 90.7058 88.4082 89.9926 88.4082C89.2794 88.4082 88.701 88.9744 88.701 89.6726Z" fill="white"/>
</g>
<defs>
<clipPath id="clip0">
<rect width="95" height="93" fill="white" transform="matrix(-1 0 0 1 133 28)"/>
</clipPath>
</defs>
</svg>
