<svg width="239" height="82" viewBox="0 0 239 82" fill="none" xmlns="http://www.w3.org/2000/svg">
<path d="M46.1288 70.0978C46.7659 69.8432 47.2969 69.7159 47.7216 69.7159C48.4013 69.7159 48.911 69.9705 49.2508 70.4797C49.5906 70.9889 49.7605 71.6466 49.7605 72.4528C49.7605 73.7258 49.4419 74.8078 48.8048 75.6988C48.2101 76.5899 47.1695 77.3961 45.6828 78.1175C43.1767 79.3056 39.9273 80.2603 35.9346 80.9816C31.9419 81.6605 28.0128 82 24.1475 82C18.7956 82 14.3144 81.406 10.7039 80.2179C7.09347 78.9873 4.39625 77.3113 2.61227 75.1897C0.870755 73.0681 0 70.6706 0 67.9974C0 64.3483 1.16809 61.2507 3.50426 58.7048C5.88291 56.1165 9.36593 54.2495 13.9533 53.1038C11.4472 52.3824 9.5146 51.1095 8.15537 49.2849C6.83861 47.4603 6.18024 45.4236 6.18024 43.1747C6.18024 40.1196 7.13595 37.4251 9.04736 35.0914C11.0013 32.7152 13.6135 30.8906 16.8842 29.6177C20.1548 28.3447 23.744 27.7082 27.6518 27.7082C32.9188 27.7082 36.8691 28.8539 39.5026 31.1452C42.1361 33.3941 43.4528 36.3219 43.4528 39.9286C43.4528 42.4321 42.9856 44.4689 42.0511 46.0388C41.1591 47.5664 39.8636 48.3302 38.1646 48.3302C36.9752 48.3302 36.0408 48.0756 35.3612 47.5664C34.6815 47.0148 34.3417 46.2086 34.3417 45.1478C34.3417 44.4264 34.4479 43.6414 34.6603 42.7928C34.8727 41.3925 34.9789 40.4378 34.9789 39.9286C34.9789 38.4011 34.4055 37.1706 33.2586 36.237C32.1118 35.2611 30.2003 34.7731 27.5244 34.7731C23.9139 34.7731 21.0256 35.5369 18.8593 37.0645C16.693 38.592 15.6099 40.65 15.6099 43.2383C15.6099 45.2326 16.4169 46.8875 18.031 48.2029C19.6876 49.4758 22.3635 50.176 26.0589 50.3033C26.9934 50.3457 27.6518 50.5579 28.0341 50.9398C28.4164 51.3216 28.6075 51.9581 28.6075 52.8492C28.6075 55.6497 27.3332 57.0712 24.7847 57.1136C21.2592 57.1985 18.3283 57.6864 15.9922 58.5775C13.6985 59.4686 12.0207 60.6143 10.9588 62.0145C9.93935 63.3723 9.42964 64.8362 9.42964 66.4062C9.42964 69.037 10.6614 71.0313 13.125 72.3891C15.5886 73.7045 19.4964 74.3622 24.8484 74.3622C28.3739 74.3622 32.0905 73.9591 35.9983 73.1529C39.9486 72.3043 43.3254 71.2859 46.1288 70.0978Z" fill="white"/>
<path d="M51.3543 82C48.7208 82 46.6183 81.0453 45.0466 79.1358C43.475 77.2264 42.6892 74.7229 42.6892 71.6254C42.6892 68.2308 43.475 65.0272 45.0466 62.0145C46.6183 58.9594 48.6996 56.5196 51.2906 54.695C53.9241 52.828 56.7063 51.8945 59.6371 51.8945C60.5716 51.8945 61.1875 52.0854 61.4848 52.4673C61.8246 52.8068 62.1007 53.4432 62.3131 54.3767C63.2051 54.207 64.1396 54.1222 65.1165 54.1222C67.1978 54.1222 68.2385 54.8647 68.2385 56.3498C68.2385 57.2409 67.9199 59.3625 67.2828 62.7146C66.3058 67.5943 65.8174 70.9889 65.8174 72.8983C65.8174 73.5348 65.966 74.044 66.2634 74.4259C66.6032 74.8078 67.0279 74.9987 67.5376 74.9987C68.3447 74.9987 69.3216 74.4895 70.4685 73.4712C71.6153 72.4104 73.1657 70.7131 75.1196 68.3793C75.6293 67.7853 76.2027 67.4882 76.8398 67.4882C77.392 67.4882 77.8168 67.7428 78.1141 68.252C78.4539 68.7612 78.6238 69.4613 78.6238 70.3524C78.6238 72.0497 78.2203 73.3651 77.4133 74.2986C75.6718 76.4626 73.8241 78.2872 71.8702 79.7723C69.9163 81.2574 68.0261 82 66.1996 82C64.7979 82 63.5024 81.5332 62.3131 80.5997C61.1662 79.6238 60.2955 78.3084 59.7008 76.6536C57.4921 80.2179 54.7099 82 51.3543 82ZM53.648 75.5715C54.5825 75.5715 55.4745 75.0199 56.324 73.9167C57.1735 72.8135 57.7894 71.3496 58.1717 69.525L60.5291 57.8137C58.7451 57.8562 57.0886 58.5351 55.5594 59.8505C54.0728 61.1234 52.8834 62.8207 51.9915 64.9423C51.0995 67.0639 50.6535 69.3128 50.6535 71.689C50.6535 73.0044 50.9083 73.9803 51.418 74.6168C51.9702 75.2533 52.7135 75.5715 53.648 75.5715Z" fill="white"/>
<path d="M101.862 67.4882C102.414 67.4882 102.839 67.7428 103.136 68.252C103.476 68.7612 103.646 69.4613 103.646 70.3524C103.646 72.0497 103.242 73.3651 102.435 74.2986C100.609 76.5475 98.6125 78.3933 96.4463 79.836C94.28 81.2787 91.7952 82 88.9918 82C80.3267 82 75.9941 75.911 75.9941 63.733C75.9941 61.866 76.0579 59.9778 76.1853 58.0683H73.7004C72.4262 58.0683 71.5554 57.835 71.0882 57.3682C70.6634 56.9014 70.451 56.1589 70.451 55.1405C70.451 52.7643 71.4067 51.5762 73.3182 51.5762H76.9498C77.6719 46.9087 78.7763 42.6443 80.263 38.783C81.7496 34.9217 83.5336 31.8453 85.6149 29.554C87.7387 27.2627 90.0112 26.117 92.4323 26.117C94.2163 26.117 95.618 26.902 96.6374 28.472C97.6568 30.042 98.1665 32.0151 98.1665 34.3913C98.1665 40.9682 95.4056 46.6965 89.8837 51.5762H97.0197C97.6993 51.5762 98.1878 51.7247 98.4851 52.0218C98.7824 52.3188 98.9311 52.8704 98.9311 53.6766C98.9311 56.6044 96.5312 58.0683 91.7314 58.0683H83.9584C83.8734 60.1899 83.8309 61.8448 83.8309 63.0329C83.8309 67.4458 84.3406 70.5434 85.3601 72.3255C86.422 74.1076 88.0785 74.9987 90.3297 74.9987C92.1562 74.9987 93.7703 74.4471 95.172 73.3439C96.5737 72.2406 98.2303 70.5858 100.142 68.3793C100.651 67.7853 101.225 67.4882 101.862 67.4882ZM90.712 32.2272C90.0749 32.2272 89.3528 33.0334 88.5458 34.6458C87.7812 36.2158 87.0379 38.4223 86.3158 41.2652C85.6362 44.0658 85.0627 47.1845 84.5955 50.6215C87.1016 48.4575 88.9705 46.0388 90.2023 43.3656C91.4766 40.65 92.1137 38.1889 92.1137 35.9825C92.1137 33.479 91.6465 32.2272 90.712 32.2272Z" fill="white"/>
<path d="M102.982 82C101.368 82 100.221 81.1514 99.5414 79.4541C98.9042 77.7568 98.5857 75.0411 98.5857 71.3071C98.5857 65.791 99.3715 60.5506 100.943 55.5861C101.325 54.3555 101.941 53.4645 102.791 52.9128C103.683 52.3188 104.915 52.0218 106.486 52.0218C107.336 52.0218 107.93 52.1278 108.27 52.34C108.61 52.5522 108.78 52.9553 108.78 53.5493C108.78 54.2282 108.461 55.7558 107.824 58.132C107.399 59.8293 107.06 61.3144 106.805 62.5873C106.55 63.8179 106.338 65.3666 106.168 67.2337C107.314 63.924 108.674 61.1234 110.245 58.8321C111.859 56.5408 113.495 54.8435 115.151 53.7403C116.85 52.5946 118.443 52.0218 119.93 52.0218C121.416 52.0218 122.457 52.3612 123.052 53.0401C123.689 53.719 124.007 54.7586 124.007 56.1589C124.007 57.5167 123.604 59.9778 122.797 63.5421C122.457 65.0696 122.223 66.2153 122.096 66.9791C124.22 61.7599 126.577 57.9623 129.168 55.5861C131.759 53.2099 134.18 52.0218 136.432 52.0218C139.193 52.0218 140.573 53.4008 140.573 56.1589C140.573 57.8137 140.106 60.8052 139.171 65.1333C138.364 68.8249 137.961 71.2647 137.961 72.4528C137.961 74.1501 138.577 74.9987 139.809 74.9987C140.658 74.9987 141.656 74.4895 142.803 73.4712C143.992 72.4104 145.564 70.7131 147.518 68.3793C148.028 67.7853 148.601 67.4882 149.238 67.4882C149.79 67.4882 150.215 67.7428 150.512 68.252C150.852 68.7612 151.022 69.4613 151.022 70.3524C151.022 72.0497 150.619 73.3651 149.812 74.2986C147.985 76.5475 146.01 78.3933 143.886 79.836C141.805 81.2787 139.426 82 136.75 82C134.584 82 132.949 81.3847 131.844 80.1542C130.74 78.8812 130.188 77.0567 130.188 74.6805C130.188 73.4924 130.485 71.3708 131.08 68.3157C131.632 65.6424 131.908 63.7967 131.908 62.7783C131.908 62.0994 131.674 61.7599 131.207 61.7599C130.655 61.7599 129.869 62.4813 128.85 63.924C127.83 65.3242 126.811 67.1912 125.791 69.525C124.772 71.8587 123.944 74.3198 123.307 76.9082C122.839 78.9449 122.287 80.3027 121.65 80.9816C121.055 81.6605 120.078 82 118.719 82C117.318 82 116.256 81.3423 115.534 80.0269C114.854 78.6691 114.514 77.0355 114.514 75.126C114.514 73.5136 114.726 71.1798 115.151 68.1247C115.491 65.4091 115.661 63.6269 115.661 62.7783C115.661 62.0994 115.427 61.7599 114.96 61.7599C114.323 61.7599 113.516 62.5237 112.539 64.0512C111.562 65.5788 110.606 67.5307 109.672 69.9069C108.78 72.2831 108.058 74.6168 107.506 76.9082C107.038 78.9025 106.486 80.2603 105.849 80.9816C105.254 81.6605 104.299 82 102.982 82Z" fill="white"/>
<path d="M178.364 62.1418C178.916 62.1418 179.341 62.4176 179.639 62.9692C179.936 63.5208 180.085 64.221 180.085 65.0696C180.085 67.1064 179.469 68.3157 178.237 68.6976C175.688 69.5886 172.885 70.0978 169.827 70.2251C169.02 73.7894 167.427 76.6536 165.048 78.8176C162.669 80.9392 159.972 82 156.956 82C154.408 82 152.22 81.3847 150.394 80.1542C148.61 78.9237 147.251 77.29 146.316 75.2533C145.382 73.2166 144.915 71.0101 144.915 68.6339C144.915 65.4091 145.53 62.5449 146.762 60.0414C147.994 57.4955 149.693 55.5224 151.859 54.1222C154.026 52.6795 156.426 51.9581 159.059 51.9581C162.287 51.9581 164.878 53.0826 166.832 55.3315C168.828 57.5379 169.997 60.2748 170.336 63.5421C172.333 63.4148 174.711 62.9904 177.472 62.2691C177.812 62.1842 178.109 62.1418 178.364 62.1418ZM157.466 75.2533C158.825 75.2533 159.993 74.7017 160.97 73.5985C161.99 72.4952 162.669 70.904 163.009 68.8249C161.693 67.9338 160.673 66.7669 159.951 65.3242C159.271 63.8815 158.932 62.354 158.932 60.7415C158.932 60.0626 158.995 59.3837 159.123 58.7048H158.804C157.105 58.7048 155.682 59.5322 154.535 61.1871C153.431 62.7995 152.879 65.0908 152.879 68.0611C152.879 70.3948 153.325 72.177 154.217 73.4075C155.151 74.638 156.234 75.2533 157.466 75.2533Z" fill="white"/>
<path d="M179.14 82C177.526 82 176.379 81.1514 175.699 79.4541C175.062 77.7568 174.744 75.0411 174.744 71.3071C174.744 65.791 175.529 60.5506 177.101 55.5861C177.483 54.3555 178.099 53.4645 178.949 52.9128C179.841 52.3188 181.072 52.0218 182.644 52.0218C183.494 52.0218 184.088 52.1278 184.428 52.34C184.768 52.5522 184.938 52.9553 184.938 53.5493C184.938 54.2282 184.619 55.7558 183.982 58.132C183.557 59.8293 183.217 61.3144 182.963 62.5873C182.708 63.8603 182.495 65.4303 182.326 67.2973C183.727 63.6481 185.299 60.6779 187.04 58.3866C188.782 56.0952 190.481 54.4616 192.137 53.4857C193.836 52.5097 195.387 52.0218 196.789 52.0218C199.549 52.0218 200.93 53.4008 200.93 56.1589C200.93 56.7105 200.739 58.0471 200.357 60.1687C200.017 61.866 199.847 62.9268 199.847 63.3511C199.847 64.8362 200.378 65.5788 201.44 65.5788C202.629 65.5788 204.158 64.6453 206.027 62.7783C206.579 62.2267 207.153 61.9509 207.747 61.9509C208.299 61.9509 208.724 62.2055 209.022 62.7146C209.361 63.1814 209.531 63.8179 209.531 64.6241C209.531 66.1941 209.107 67.4246 208.257 68.3157C207.068 69.5462 205.666 70.607 204.052 71.4981C202.48 72.3467 200.803 72.771 199.019 72.771C196.767 72.771 195.047 72.1982 193.858 71.0525C192.711 69.9069 192.137 68.3581 192.137 66.4062C192.137 65.7697 192.201 65.1333 192.329 64.4968C192.414 63.6481 192.456 63.0753 192.456 62.7783C192.456 62.0994 192.222 61.7599 191.755 61.7599C191.118 61.7599 190.268 62.4813 189.207 63.924C188.187 65.3242 187.168 67.1912 186.148 69.525C185.129 71.8587 184.301 74.3198 183.663 76.9082C183.196 78.9025 182.644 80.2603 182.007 80.9816C181.412 81.6605 180.457 82 179.14 82Z" fill="white"/>
<path d="M226.42 69.3977C226.973 69.3977 227.397 69.6523 227.695 70.1615C228.035 70.6706 228.204 71.3708 228.204 72.2618C228.204 73.7894 227.843 75.1048 227.121 76.208C225.932 78.0326 224.36 79.4541 222.406 80.4725C220.495 81.4908 218.201 82 215.525 82C211.448 82 208.283 80.7907 206.032 78.3721C203.781 75.911 202.655 72.6013 202.655 68.443C202.655 65.5152 203.271 62.7995 204.503 60.296C205.735 57.7501 207.434 55.7346 209.6 54.2494C211.809 52.7643 214.294 52.0218 217.054 52.0218C219.518 52.0218 221.493 52.7643 222.98 54.2494C224.467 55.6921 225.21 57.6652 225.21 60.1687C225.21 63.0965 224.148 65.6212 222.024 67.7428C219.943 69.822 216.375 71.4769 211.32 72.7074C212.34 74.6593 214.06 75.6352 216.481 75.6352C218.223 75.6352 219.646 75.2321 220.75 74.4259C221.897 73.6197 223.214 72.2618 224.7 70.3524C225.21 69.7159 225.783 69.3977 226.42 69.3977ZM215.971 58.2593C214.4 58.2593 213.062 59.1716 211.957 60.9961C210.896 62.8207 210.365 65.0272 210.365 67.6155V67.7428C212.871 67.1488 214.846 66.2577 216.29 65.0696C217.734 63.8815 218.456 62.5025 218.456 60.9325C218.456 60.1263 218.223 59.4898 217.755 59.0231C217.331 58.5139 216.736 58.2593 215.971 58.2593Z" fill="white"/>
<path d="M200.286 4.25915C200.284 2.93515 201.102 1.75054 202.323 1.24303C202.332 1.23968 202.34 1.23565 202.349 1.23229C202.477 1.18023 202.609 1.13589 202.745 1.09928C203.229 0.969636 203.776 0.83596 204.38 0.708329C206.471 0.266659 209.239 -0.10112 212.385 0.0251677C216.992 0.209561 221.299 1.39989 225.2 3.56525C225.46 3.70967 225.719 3.85812 225.975 4.01128C234.576 9.14272 237.761 17.0918 238.895 21.3731C238.918 21.4614 238.938 21.5498 238.953 21.6385C238.984 21.8158 238.999 21.9935 239 22.1705C239.004 23.3188 238.381 24.4191 237.328 25.015L204.355 43.6689C203.938 43.905 203.479 44.0232 203.021 44.0232C202.566 44.0232 202.111 43.9067 201.695 43.6739C200.862 43.2067 200.363 42.3677 200.361 41.4296L200.286 4.25915ZM202.354 42.5558C202.774 42.7906 203.273 42.7896 203.692 42.5531L232.916 26.0199C232.672 25.2786 232.398 24.539 232.093 23.8149C231.955 23.4851 232.116 23.1086 232.454 22.9732C232.792 22.8378 233.178 22.9954 233.317 23.3249C233.598 23.9929 233.856 24.6737 234.087 25.3572L236.664 23.8992C237.45 23.4548 237.84 22.5487 237.614 21.6956C236.531 17.603 233.488 10.0062 225.285 5.11159C221.376 2.77931 217.018 1.50166 212.331 1.3139C208.447 1.15873 205.165 1.78782 203.095 2.34301C202.218 2.57846 201.607 3.36574 201.609 4.25747C201.61 4.7193 201.62 5.34905 201.63 5.95832C201.635 6.27606 201.64 6.5995 201.644 6.90313C203.932 6.50008 206.843 6.12928 210.092 6.32745C214.315 6.58506 218.231 7.77438 221.731 9.86249C226.022 12.4225 229.443 15.971 231.902 20.4102C232.076 20.7235 231.956 21.1148 231.635 21.2841C231.313 21.4534 230.912 21.3365 230.738 21.0231C228.393 16.7871 225.13 13.4022 221.041 10.9628C217.727 8.98553 214.015 7.85902 210.009 7.61484C206.773 7.41768 203.867 7.81267 201.617 8.21941L201.683 41.4273C201.684 41.8988 201.935 42.3207 202.354 42.5558Z" fill="white"/>
<path d="M208.401 27.2605C208.27 25.0011 210.048 23.0594 212.364 22.9318C213.486 22.8706 214.565 23.2377 215.404 23.9679C216.242 24.6981 216.738 25.703 216.802 26.797C216.865 27.8916 216.488 28.9445 215.739 29.762C214.991 30.5799 213.961 31.0642 212.839 31.126C212.758 31.1304 212.679 31.1324 212.599 31.1324C210.387 31.1327 208.528 29.441 208.401 27.2605ZM209.722 27.1876C209.811 28.7366 211.176 29.9253 212.764 29.838C213.534 29.7956 214.24 29.4635 214.753 28.9029C215.266 28.3423 215.525 27.6205 215.481 26.8699C215.438 26.1195 215.097 25.4307 214.523 24.9302C213.99 24.4657 213.314 24.2148 212.605 24.2148C212.55 24.2148 212.494 24.2165 212.439 24.2195C210.851 24.3072 209.632 25.6386 209.722 27.1876Z" fill="white"/>
<path d="M209.918 20.2808C209.821 20.2861 209.725 20.2888 209.629 20.2888C208.211 20.2888 206.866 19.7128 205.901 18.6837C205.655 18.421 205.674 18.013 205.943 17.7725C206.213 17.5323 206.631 17.5505 206.877 17.8134C207.638 18.6249 208.719 19.0548 209.843 18.993C210.838 18.9379 211.751 18.5087 212.415 17.7836C213.079 17.0587 213.413 16.1247 213.357 15.1544C213.301 14.1837 212.86 13.293 212.117 12.6454C211.374 11.9978 210.416 11.6721 209.422 11.7265C207.368 11.8397 205.792 13.5617 205.908 15.5651C205.928 15.9208 205.65 16.2255 205.285 16.2456C204.922 16.2651 204.608 15.9934 204.587 15.638C204.43 12.9245 206.566 10.5919 209.347 10.4384C210.696 10.3638 211.992 10.8065 212.998 11.6831C214.005 12.5601 214.601 13.7669 214.677 15.0815C214.754 16.3961 214.3 17.6606 213.401 18.6427C212.502 19.6248 211.265 20.2065 209.918 20.2808Z" fill="white"/>
<path d="M221.542 23.7626C221.488 22.8305 221.797 21.9331 222.413 21.2358C223.036 20.5322 223.894 20.116 224.831 20.0646C226.758 19.9588 228.415 21.4444 228.527 23.3773C228.639 25.3103 227.163 26.9691 225.237 27.0756C225.172 27.0793 225.106 27.081 225.041 27.081C224.175 27.081 223.35 26.7639 222.7 26.1775C222.007 25.5524 221.596 24.6946 221.542 23.7626ZM222.862 23.6897C222.897 24.2862 223.158 24.8333 223.598 25.2303C224.031 25.6213 224.586 25.8191 225.163 25.7875C226.361 25.7214 227.278 24.6728 227.207 23.4502C227.138 22.2679 226.171 21.349 225.025 21.349C224.985 21.349 224.945 21.35 224.906 21.3524C224.33 21.3839 223.801 21.6419 223.415 22.0782C223.024 22.5209 222.828 23.0932 222.862 23.6897Z" fill="white"/>
<path d="M203.887 34.3022C203.846 33.5898 204.082 32.9039 204.554 32.3706C205.031 31.8305 205.69 31.5114 206.41 31.4718C207.13 31.4325 207.821 31.6767 208.357 32.1607C208.887 32.6389 209.202 33.2946 209.243 34.0066C209.329 35.4858 208.197 36.7554 206.72 36.837C206.67 36.8397 206.62 36.841 206.569 36.841C205.904 36.841 205.271 36.5979 204.773 36.1481C204.243 35.6698 203.928 35.0142 203.887 34.3022ZM205.207 34.2293C205.229 34.6061 205.394 34.9511 205.671 35.201C205.941 35.4451 206.289 35.5694 206.646 35.5489C207.394 35.5076 207.967 34.8483 207.923 34.0795C207.901 33.7026 207.736 33.3574 207.459 33.1078C207.207 32.8804 206.89 32.7575 206.558 32.7575C206.534 32.7575 206.509 32.7582 206.484 32.7595C206.126 32.7793 205.796 32.9402 205.555 33.2126C205.309 33.4914 205.186 33.8524 205.207 34.2293Z" fill="white"/>
<path d="M217.946 21.8891C217.946 22.2196 218.221 22.4876 218.56 22.4876C218.899 22.4876 219.173 22.2196 219.173 21.8891C219.173 21.5583 218.899 21.2906 218.56 21.2906C218.221 21.2906 217.946 21.5583 217.946 21.8891Z" fill="white"/>
<path d="M211.85 34.7529C211.85 35.0834 212.124 35.3515 212.463 35.3515C212.802 35.3515 213.077 35.0834 213.077 34.7529C213.077 34.4224 212.802 34.1544 212.463 34.1544C212.124 34.1544 211.85 34.4224 211.85 34.7529Z" fill="white"/>
<path d="M217.946 14.4236C217.946 14.7541 218.221 15.0222 218.56 15.0222C218.899 15.0222 219.173 14.7541 219.173 14.4236C219.173 14.0931 218.899 13.8251 218.56 13.8251C218.221 13.8251 217.946 14.0931 217.946 14.4236Z" fill="white"/>
<path d="M204.724 22.9716C204.724 23.3021 204.999 23.5701 205.337 23.5701C205.676 23.5701 205.951 23.3021 205.951 22.9716C205.951 22.6411 205.676 22.3731 205.337 22.3731C204.999 22.3731 204.724 22.6411 204.724 22.9716Z" fill="white"/>
<path d="M203.497 10.477C203.497 10.8075 203.771 11.0756 204.11 11.0756C204.449 11.0756 204.724 10.8075 204.724 10.477C204.724 10.1465 204.449 9.87851 204.11 9.87851C203.771 9.87851 203.497 10.1465 203.497 10.477Z" fill="white"/>
<path d="M205.337 29.7926C205.337 30.1235 205.612 30.3912 205.951 30.3912C206.29 30.3912 206.565 30.1235 206.565 29.7926C206.565 29.4622 206.29 29.1941 205.951 29.1941C205.612 29.1941 205.337 29.4622 205.337 29.7926Z" fill="white"/>
<path d="M203.497 39.6496C203.497 39.9801 203.771 40.2481 204.11 40.2481C204.449 40.2481 204.724 39.9801 204.724 39.6496C204.724 39.3191 204.449 39.0511 204.11 39.0511C203.771 39.0511 203.497 39.3191 203.497 39.6496Z" fill="white"/>
<path d="M221.216 29.194C221.216 29.5248 221.491 29.7925 221.83 29.7925C222.169 29.7925 222.444 29.5248 222.444 29.194C222.444 28.8635 222.169 28.5955 221.83 28.5955C221.491 28.5955 221.216 28.8635 221.216 29.194Z" fill="white"/>
</svg>
