<svg width="72" height="73" viewBox="0 0 72 73" fill="none" xmlns="http://www.w3.org/2000/svg">
<path d="M63 9.125H56.25V2.28125C56.25 1.022 55.242 0 54 0H13.5C9.7785 0 6.75 3.07056 6.75 6.84375V63.875C6.75 68.9074 10.7865 73 15.75 73H63C64.242 73 65.25 71.978 65.25 70.7188V11.4062C65.25 10.147 64.242 9.125 63 9.125ZM49.5 59.3125H22.5C21.258 59.3125 20.25 58.2905 20.25 57.0312C20.25 55.772 21.258 54.75 22.5 54.75H49.5C50.742 54.75 51.75 55.772 51.75 57.0312C51.75 58.2905 50.742 59.3125 49.5 59.3125ZM20.25 27.375C20.25 22.2559 23.2155 18.25 27 18.25C30.7845 18.25 33.75 22.2559 33.75 27.375C33.75 31.4128 31.8915 34.7298 29.25 35.9571V47.9062C29.25 49.1655 28.242 50.1875 27 50.1875C25.758 50.1875 24.75 49.1655 24.75 47.9062V35.9571C22.1085 34.7298 20.25 31.4128 20.25 27.375ZM51.75 38.7812C51.75 40.0405 50.742 41.0625 49.5 41.0625H42.75V47.9062C42.75 49.1655 41.742 50.1875 40.5 50.1875C39.258 50.1875 38.25 49.1655 38.25 47.9062V20.5312C38.25 19.272 39.258 18.25 40.5 18.25C46.7055 18.25 51.75 23.3691 51.75 29.6562V38.7812ZM51.75 9.125H13.5C12.258 9.125 11.25 8.103 11.25 6.84375C11.25 5.5845 12.258 4.5625 13.5 4.5625H51.75V9.125Z" fill="#A3A7A7"/>
</svg>
