<svg width="26" height="36" viewBox="0 0 26 36" fill="none" xmlns="http://www.w3.org/2000/svg">
<path d="M14.2641 8.45304V7.93867C14.2641 7.07326 13.56 6.36914 12.6946 6.36914C11.8294 6.36914 11.1253 7.07326 11.1253 7.93867V8.45304C8.90443 9.12738 7.2832 11.1933 7.2832 13.6316C7.2832 13.8903 7.49281 14.0999 7.75149 14.0999H17.6377C17.8964 14.0999 18.106 13.8903 18.106 13.6316C18.106 11.1933 16.4849 9.12738 14.2641 8.45304ZM12.0618 7.93867C12.0618 7.5897 12.3458 7.30572 12.6946 7.30572C13.0436 7.30572 13.3275 7.5897 13.3275 7.93867V8.25842C13.1198 8.23406 12.9089 8.2202 12.6946 8.2202C12.4805 8.2202 12.2696 8.23406 12.0618 8.25842V7.93867ZM8.24414 13.1631C8.47903 10.9149 10.3854 9.1566 12.6946 9.1566C15.0038 9.1566 16.9103 10.9149 17.1452 13.1631H8.24414Z" fill="#F7F6FF"/>
<path d="M18.2772 16.0709H7.09329C6.83461 16.0709 6.625 15.8613 6.625 15.6026C6.625 15.3439 6.83461 15.1343 7.09329 15.1343H18.277C18.5357 15.1343 18.7453 15.3439 18.7453 15.6026C18.7453 15.8613 18.5357 16.0709 18.2772 16.0709Z" fill="#F7F6FF"/>
<path d="M5.99699 27.4667H3.62649C3.36781 27.4667 3.1582 27.2571 3.1582 26.9985V24.628C3.1582 24.3693 3.36781 24.1597 3.62649 24.1597H5.99699C6.25567 24.1597 6.46528 24.3693 6.46528 24.628V26.9985C6.46528 27.2571 6.25567 27.4667 5.99699 27.4667ZM4.09479 26.5302H5.52869V25.0963H4.09479V26.5302Z" fill="#F7F6FF"/>
<path d="M11.4487 26.2813H8.38626C8.12758 26.2813 7.91797 26.0717 7.91797 25.813C7.91797 25.5543 8.12758 25.3447 8.38626 25.3447H11.4487C11.7074 25.3447 11.917 25.5543 11.917 25.813C11.917 26.0717 11.7074 26.2813 11.4487 26.2813Z" fill="#F7F6FF"/>
<path d="M16.2898 22.1995H13.9195C13.6608 22.1995 13.4512 21.9899 13.4512 21.7312V19.3609C13.4512 19.1022 13.6608 18.8926 13.9195 18.8926H16.2898C16.5484 18.8926 16.7581 19.1022 16.7581 19.3609V21.7312C16.7581 21.9899 16.5484 22.1995 16.2898 22.1995ZM14.3878 21.2629H15.8215V19.8292H14.3878V21.2629Z" fill="#F7F6FF"/>
<path d="M21.7438 21.0142H18.6812C18.4225 21.0142 18.2129 20.8046 18.2129 20.5459C18.2129 20.2872 18.4225 20.0776 18.6812 20.0776H21.7438C22.0025 20.0776 22.2121 20.2872 22.2121 20.5459C22.2121 20.8046 22.0025 21.0142 21.7438 21.0142Z" fill="#F7F6FF"/>
<path d="M24.9022 2.7207H22.13C21.8713 2.7207 21.6617 2.93031 21.6617 3.18899C21.6617 3.44768 21.8713 3.65729 22.13 3.65729H24.4339V35.0632H0.936583V3.65729H3.24058C3.49926 3.65729 3.70887 3.44768 3.70887 3.18899C3.70887 2.93031 3.49926 2.7207 3.24058 2.7207H0.468291C0.209607 2.7207 0 2.93031 0 3.18899V35.5315C0 35.7901 0.209607 35.9997 0.468291 35.9997H24.9021C25.1607 35.9997 25.3703 35.7901 25.3703 35.5315V3.18899C25.3705 2.93031 25.1609 2.7207 24.9022 2.7207Z" fill="#F7F6FF"/>
<path d="M6.98587 3.65729H18.3826C18.6413 3.65729 18.8509 3.44768 18.8509 3.18899C18.8509 2.93031 18.6413 2.7207 18.3826 2.7207H6.98587C6.72719 2.7207 6.51758 2.93031 6.51758 3.18899C6.51758 3.44768 6.72719 3.65729 6.98587 3.65729Z" fill="#F7F6FF"/>
<path d="M5.11478 6.37851C5.37346 6.37851 5.58307 6.1689 5.58307 5.91021V0.468291C5.58307 0.209607 5.37346 0 5.11478 0C4.85609 0 4.64648 0.209607 4.64648 0.468291V5.91021C4.64648 6.1689 4.85609 6.37851 5.11478 6.37851Z" fill="#F7F6FF"/>
<path d="M20.2574 6.37851C20.516 6.37851 20.7256 6.1689 20.7256 5.91021V0.468291C20.7256 0.209607 20.516 0 20.2574 0C19.9987 0 19.7891 0.209607 19.7891 0.468291V5.91021C19.7891 6.1689 19.9987 6.37851 20.2574 6.37851Z" fill="#F7F6FF"/>
<path d="M3.16016 19.3604V21.7307C3.16016 21.9894 3.36976 22.199 3.62845 22.199H5.99894C6.25762 22.199 6.46723 21.9894 6.46723 21.7307V19.3604C6.46723 19.1017 6.25762 18.8921 5.99894 18.8921H3.62845C3.36976 18.8921 3.16016 19.1017 3.16016 19.3604ZM4.09674 19.8287H5.53065V21.2624H4.09674V19.8287Z" fill="#F7F6FF"/>
<path d="M11.4507 20.0771H8.38821C8.12953 20.0771 7.91992 20.2868 7.91992 20.5454C7.91992 20.8041 8.12953 21.0137 8.38821 21.0137H11.4507C11.7093 21.0137 11.9189 20.8041 11.9189 20.5454C11.9189 20.2868 11.7093 20.0771 11.4507 20.0771Z" fill="#F7F6FF"/>
<path d="M5.99894 29.4258H3.62845C3.36976 29.4258 3.16016 29.6354 3.16016 29.8941V32.2646C3.16016 32.5233 3.36976 32.7329 3.62845 32.7329H5.99894C6.25762 32.7329 6.46723 32.5233 6.46723 32.2646V29.8941C6.46723 29.6354 6.25762 29.4258 5.99894 29.4258ZM5.53065 31.7961H4.09674V30.3622H5.53065V31.7961Z" fill="#F7F6FF"/>
<path d="M11.4507 30.6113H8.38821C8.12953 30.6113 7.91992 30.8209 7.91992 31.0796C7.91992 31.3383 8.12953 31.5479 8.38821 31.5479H11.4507C11.7093 31.5479 11.9189 31.3383 11.9189 31.0796C11.9189 30.8209 11.7093 30.6113 11.4507 30.6113Z" fill="#F7F6FF"/>
<path d="M13.9214 24.1592C13.6627 24.1592 13.4531 24.3688 13.4531 24.6275V26.998C13.4531 27.2566 13.6627 27.4663 13.9214 27.4663H16.2917C16.5504 27.4663 16.76 27.2566 16.76 26.998V24.6275C16.76 24.3688 16.5504 24.1592 16.2917 24.1592H13.9214ZM15.8234 26.5297H14.3897V25.0958H15.8234V26.5297Z" fill="#F7F6FF"/>
<path d="M18.2129 25.8125C18.2129 26.0712 18.4225 26.2808 18.6812 26.2808H21.7438C22.0025 26.2808 22.2121 26.0712 22.2121 25.8125C22.2121 25.5538 22.0025 25.3442 21.7438 25.3442H18.6812C18.4225 25.3442 18.2129 25.5538 18.2129 25.8125Z" fill="#F7F6FF"/>
<path d="M16.2917 32.7329H13.9214C13.6627 32.7329 13.4531 32.5232 13.4531 32.2646V29.8941C13.4531 29.6354 13.6627 29.4258 13.9214 29.4258H16.2917C16.5504 29.4258 16.76 29.6354 16.76 29.8941V32.2646C16.76 32.5232 16.5504 32.7329 16.2917 32.7329ZM14.3897 31.7963H15.8234V30.3624H14.3897V31.7963Z" fill="#F7F6FF"/>
<path d="M21.7438 31.5479H18.6812C18.4225 31.5479 18.2129 31.3383 18.2129 31.0796C18.2129 30.8209 18.4225 30.6113 18.6812 30.6113H21.7438C22.0025 30.6113 22.2121 30.8209 22.2121 31.0796C22.2121 31.3383 22.0025 31.5479 21.7438 31.5479Z" fill="#F7F6FF"/>
</svg>
