<svg width="28" height="28" viewBox="0 0 28 28" fill="none" xmlns="http://www.w3.org/2000/svg">
<g clip-path="url(#clip0)">
<path d="M6.70947 7.31836H20.1261C20.4632 7.31836 20.7359 7.04559 20.7359 6.7085C20.7359 6.37141 20.4632 6.09863 20.1261 6.09863H6.70947C6.37238 6.09863 6.09961 6.37141 6.09961 6.7085C6.09967 7.04565 6.37244 7.31836 6.70947 7.31836Z" fill="#F7F6FF"/>
<path d="M14.0276 13.417H6.70947C6.37238 13.417 6.09961 13.6898 6.09961 14.0269C6.09961 14.3639 6.37238 14.6367 6.70947 14.6367H14.0276C14.3647 14.6367 14.6375 14.3639 14.6375 14.0269C14.6375 13.6898 14.3647 13.417 14.0276 13.417Z" fill="#F7F6FF"/>
<path d="M26.938 2.4394C26.9027 2.4394 26.8684 2.44826 26.8332 2.44992V2.4394C26.8332 1.09406 25.7386 0 24.3938 0H2.4394C1.09463 0 0 1.09406 0 2.4394V26.2233C0 26.4699 0.148878 26.6926 0.37637 26.7867C0.451438 26.8183 0.531194 26.8332 0.609807 26.8332C0.768233 26.8332 0.924258 26.7713 1.04101 26.6545L6.96081 20.7347H24.3938C25.7386 20.7347 26.8332 19.6407 26.8332 18.2953V8.18019L28.5889 6.42481C28.5889 6.42481 28.5889 6.42481 28.5889 6.42424C29.0236 5.98949 29.2725 5.38798 29.2725 4.77394C29.2725 3.48641 28.2256 2.4394 26.938 2.4394ZM25.6135 18.2953C25.6135 18.9677 25.0667 19.515 24.3938 19.515H6.70827C6.5463 19.515 6.39142 19.5793 6.27707 19.6937L1.21967 24.7511V2.4394C1.21967 1.76704 1.76642 1.21973 2.43934 1.21973H24.3938C25.0668 1.21973 25.6135 1.76704 25.6135 2.4394V2.85596C25.4977 2.93555 25.387 3.02308 25.2871 3.12307L18.6516 9.75753H6.70827C6.37118 9.75753 6.09841 10.0303 6.09841 10.3674C6.09841 10.7045 6.37118 10.9773 6.70827 10.9773H17.6732L17.0876 13.9068C17.0471 14.1069 17.1102 14.3136 17.2543 14.4577C17.3699 14.5732 17.5259 14.6363 17.6855 14.6363C17.7249 14.6363 17.7653 14.6322 17.8046 14.6244L20.8527 14.0146C20.9718 13.9907 21.0802 13.933 21.1647 13.8478L25.6135 9.39975V18.2953ZM20.4334 12.855L18.4633 13.2493L18.8576 11.2768L24.3935 5.74085L25.9708 7.31808L20.4334 12.855ZM27.7265 5.56247L26.8332 6.4558L25.2558 4.87845L26.1494 3.98484C26.3567 3.77816 26.6437 3.65907 26.9379 3.65907C27.5526 3.65907 28.0528 4.15933 28.0528 4.77394C28.0529 5.06695 27.9337 5.35465 27.7265 5.56247Z" fill="#F7F6FF"/>
</g>
<defs>
<clipPath id="clip0">
<rect width="28" height="28" fill="white"/>
</clipPath>
</defs>
</svg>
