<svg width="31" height="31" viewBox="0 0 31 31" fill="none" xmlns="http://www.w3.org/2000/svg">
<g clip-path="url(#clip0)">
<path d="M30.9012 13.7146C30.8353 13.557 30.7411 13.4137 30.6209 13.2935L26.7472 9.4198C26.2422 8.91605 25.4258 8.91605 24.9208 9.4198C24.4158 9.92483 24.4158 10.7425 24.9208 11.2462L26.5909 12.9163H19.3756C18.6614 12.9163 18.084 13.495 18.084 14.208C18.084 14.921 18.6614 15.4996 19.3756 15.4996H26.5909L24.9208 17.1697C24.4157 17.6748 24.4157 18.4924 24.9208 18.9961C25.1726 19.2493 25.5033 19.3746 25.834 19.3746C26.1647 19.3746 26.4953 19.2493 26.7472 18.9961L30.6209 15.1224C30.7411 15.0036 30.8353 14.8602 30.9012 14.7013C31.0316 14.3863 31.0316 14.0298 30.9012 13.7146Z" fill="#F7F6FF"/>
<path d="M21.9603 18.0834C21.246 18.0834 20.6686 18.662 20.6686 19.375V25.8334H15.502V5.16665C15.502 4.59702 15.1274 4.09327 14.581 3.92925L10.095 2.58335H20.6686V9.04171C20.6686 9.75471 21.246 10.3334 21.9603 10.3334C22.6745 10.3334 23.2519 9.75471 23.2519 9.04171V1.29171C23.2519 0.578646 22.6745 0 21.9603 0H1.2936C1.2471 0 1.20575 0.019375 1.16058 0.0245215C1.09985 0.031 1.04433 0.041293 0.986203 0.0555215C0.850578 0.0903965 0.72785 0.143375 0.612932 0.215668C0.584535 0.233771 0.54966 0.235043 0.522535 0.255689C0.512121 0.2635 0.508246 0.277729 0.497893 0.285479C0.357121 0.396521 0.2396 0.532147 0.15435 0.693625C0.136246 0.7285 0.132371 0.765979 0.118203 0.802125C0.0768496 0.900271 0.0316816 0.995875 0.0161816 1.10438C0.00970313 1.14312 0.0213281 1.17927 0.0200566 1.21675C0.0187852 1.2426 0.00195312 1.26585 0.00195312 1.29165V27.125C0.00195312 27.7411 0.437225 28.2707 1.04045 28.3909L13.9571 30.9742C14.0411 30.9923 14.1263 31.0001 14.2102 31.0001C14.506 31.0001 14.7966 30.898 15.0291 30.7068C15.3275 30.4614 15.5019 30.0959 15.5019 29.7084V28.4167H21.9603C22.6745 28.4167 23.2519 27.8381 23.2519 27.1251V19.375C23.2519 18.662 22.6745 18.0834 21.9603 18.0834Z" fill="#F7F6FF"/>
</g>
<defs>
<clipPath id="clip0">
<rect width="31" height="31" fill="white"/>
</clipPath>
</defs>
</svg>
