<svg width="28" height="29" viewBox="0 0 28 29" fill="none" xmlns="http://www.w3.org/2000/svg">
<path d="M14 0C9.92912 0 6.61719 3.43021 6.61719 7.64648C6.61719 11.8628 9.92912 15.293 14 15.293C18.0709 15.293 21.3828 11.8628 21.3828 7.64648C21.3828 3.43021 18.0709 0 14 0Z" fill="#F7F6FF"/>
<path d="M23.1856 20.2884C21.1644 18.1628 18.4849 16.9922 15.6406 16.9922H12.3594C9.51519 16.9922 6.83561 18.1628 4.81436 20.2884C2.80301 22.4036 1.69531 25.1956 1.69531 28.1504C1.69531 28.6196 2.06259 29 2.51562 29H25.4844C25.9374 29 26.3047 28.6196 26.3047 28.1504C26.3047 25.1956 25.197 22.4036 23.1856 20.2884Z" fill="#F7F6FF"/>
</svg>
