<svg width="29" height="29" viewBox="0 0 29 29" fill="none" xmlns="http://www.w3.org/2000/svg">
<path d="M2.175 10.9919H1.40323C0.631452 10.9919 0 11.6702 0 12.4419V16.6516C0 17.4468 0.631452 18.0081 1.40323 18.0081H2.19839C3.46129 18.0081 4.23306 19.8556 3.32097 20.7677L2.80645 21.2823C2.24516 21.8202 2.24516 22.7323 2.80645 23.2702L5.75323 26.2403C6.29113 26.7782 7.17984 26.7782 7.74113 26.2403L8.60645 25.375C9.49516 24.4863 10.9919 25.1177 10.9919 26.3806V27.6435C10.9919 28.4153 11.6234 29 12.3952 29H16.6048C17.3766 29 18.0081 28.4387 18.0081 27.6435V26.3806C18.0081 25.1411 19.5282 24.5097 20.3935 25.3984L21.2589 26.2637C21.7968 26.8016 22.6855 26.8016 23.2468 26.2637L26.1935 23.3169C26.7548 22.7556 26.7315 21.8669 26.1935 21.329L25.679 20.7911C24.7669 19.9024 25.5387 18.0315 26.8016 18.0315H27.5968C28.3685 18.0315 29 17.4704 29 16.675V12.4653C29 11.6935 28.3685 11.0153 27.5968 11.0153H26.825C25.5621 11.0153 24.7669 9.12097 25.6556 8.23226L26.2167 7.69436C26.7548 7.15645 26.7548 6.26774 26.2167 5.72984L23.2702 2.78306C22.7089 2.22177 21.8202 2.24516 21.2823 2.78306L20.721 3.27419C19.8323 4.18629 18.0081 3.4379 18.0081 2.15161V1.45C18.0081 0.678226 17.3766 0 16.6048 0H12.3952C11.6234 0 10.9919 0.678226 10.9919 1.45V2.15161C10.9919 3.4379 9.16774 4.18629 8.27903 3.27419L7.74113 2.73629C7.20323 2.175 6.29113 2.175 5.75323 2.73629L2.78306 5.70645C2.24516 6.24435 2.24516 7.13306 2.78306 7.69436L3.34435 8.20887C4.23306 9.09758 3.4379 10.9919 2.175 10.9919ZM14.5468 8.93387C17.6573 8.93387 20.1597 11.4363 20.1597 14.5468C20.1597 17.6573 17.6573 20.1597 14.5468 20.1597C11.4363 20.1597 8.93387 17.6573 8.93387 14.5468C8.93387 11.4363 11.4597 8.93387 14.5468 8.93387Z" fill="#F7F6FF"/>
</svg>
