<svg width="36" height="35" viewBox="0 0 36 35" fill="none" xmlns="http://www.w3.org/2000/svg">
<path d="M35.5811 15.6684L18.8491 0.332964C18.3647 -0.110988 17.5795 -0.110988 17.0951 0.332964L11.4187 5.5356V4.62219C11.4187 3.99434 10.8635 3.48547 10.1785 3.48547H6.44786C5.76284 3.48547 5.20763 3.99434 5.20763 4.62219V11.2284L0.363285 15.6684C-0.121095 16.1124 -0.121095 16.8321 0.363285 17.276C0.847664 17.72 1.63287 17.72 2.11725 17.276L17.9721 2.74432L33.8271 17.276C34.0692 17.4979 34.3867 17.609 34.7041 17.609C35.0214 17.609 35.3388 17.4979 35.5811 17.276C36.0654 16.8321 36.0654 16.1124 35.5811 15.6684ZM7.6881 5.75878H8.93825V7.80891L7.68796 8.95485V5.75878H7.6881Z" fill="white"/>
<path d="M18.846 5.9438C18.3617 5.49985 17.5765 5.49985 17.0921 5.9438L3.29684 18.5877C3.06423 18.8009 2.93359 19.09 2.93359 19.3914V33.8634C2.93359 34.4912 3.4888 35.0001 4.17383 35.0001H14.2843C14.9694 35.0001 15.5246 34.4912 15.5246 33.8634V26.8125H20.4137V33.8634C20.4137 34.4912 20.9689 35.0001 21.6539 35.0001H31.7643C32.4493 35.0001 33.0045 34.4912 33.0045 33.8634V19.3914C33.0045 19.09 32.8739 18.8009 32.6413 18.5877L18.846 5.9438ZM30.5241 32.7267H22.8942V25.6757C22.8942 25.0479 22.339 24.539 21.6539 24.539H14.2843C13.5993 24.539 13.0441 25.0479 13.0441 25.6757V32.7267H5.41406V19.8623L17.9691 8.35516L30.5241 19.8623V32.7267V32.7267Z" fill="white"/>
</svg>
