<svg width="45" height="45" viewBox="0 0 45 45" fill="none" xmlns="http://www.w3.org/2000/svg">
<path d="M22.492 7.30713C14.1143 7.30713 7.29883 14.1226 7.29883 22.5003C7.29883 30.8777 14.1143 37.6932 22.492 37.6932C30.8698 37.6932 37.6855 30.8777 37.6855 22.5003C37.6857 14.1226 30.8698 7.30713 22.492 7.30713ZM22.492 36.2532C14.9085 36.2532 8.73876 30.0837 8.73876 22.5003C8.73876 14.9168 14.9083 8.74706 22.492 8.74706C30.0756 8.74706 36.2456 14.9166 36.2456 22.5003C36.2456 30.0837 30.0756 36.2532 22.492 36.2532Z" fill="#FF0036"/>
<path d="M22.491 11.4424C16.394 11.4424 11.4336 16.4028 11.4336 22.5004C11.4336 28.5981 16.3938 33.5591 22.491 33.5591C28.5885 33.5591 33.5491 28.5983 33.5491 22.5004C33.5495 16.403 28.5887 11.4424 22.491 11.4424ZM22.491 32.1192C17.188 32.1192 12.8735 27.8043 12.8735 22.5004C12.8735 17.197 17.1878 12.8823 22.491 12.8823C27.7945 12.8823 32.1091 17.1968 32.1091 22.5004C32.1096 27.8043 27.7949 32.1192 22.491 32.1192Z" fill="#FF0036"/>
<path d="M44.0936 22.8286C44.0927 22.4687 44.081 18.884 43.9752 15.343C43.9099 13.1539 43.8216 11.4068 43.7132 10.1501C43.6465 9.37487 43.5731 8.79378 43.4892 8.37331C43.4163 8.00725 43.2454 7.1499 42.5026 7.1499C42.4484 7.1499 42.3943 7.15545 42.3413 7.16654C41.8816 7.26168 41.5685 7.62156 40.9285 9.50116C40.5311 10.6691 40.0944 12.1984 39.6989 13.8082C39.2285 15.7232 38.1628 20.4511 38.4232 22.9903C38.5941 24.6565 39.3473 25.0062 39.9493 25.0062L39.9843 25.0057C40.2685 24.9985 40.4944 24.9946 40.6744 24.9946C40.8826 24.9946 41.0121 24.9991 41.1621 25.0047C41.1821 25.0053 41.2024 25.0062 41.2237 25.0068C41.1734 26.1888 40.9739 27.8269 40.7798 29.4203C40.4976 31.7384 40.2055 34.1358 40.3054 35.5546C40.4246 37.2495 41.5717 37.8508 42.5178 37.8508C43.1844 37.8508 43.8653 37.5667 44.3389 37.091C44.7685 36.6592 45.0032 36.0977 45.0004 35.5102C44.9921 33.7719 44.1548 23.5769 44.0936 22.8286ZM43.3188 36.0751C43.1125 36.2825 42.806 36.4109 42.518 36.4109C42.048 36.4109 41.7867 36.0888 41.7421 35.4537C41.6521 34.1729 41.9354 31.8455 42.2095 29.5943C42.4625 27.5178 42.7012 25.5561 42.6741 24.2834C42.6658 23.8918 42.3458 23.5788 41.9544 23.5788C41.5851 23.5788 40.1038 23.7205 40.0217 23.5643C39.7951 23.1929 39.5359 21.2843 40.6661 16.0242C41.1834 13.6168 41.7908 11.4584 42.262 10.0517C42.5028 12.7467 42.6458 18.0074 42.6537 22.8603C42.6537 22.88 42.6545 22.8992 42.656 22.9184C42.665 23.0269 43.5522 33.8066 43.5609 35.5181C43.562 35.7248 43.4805 35.9126 43.3188 36.0751Z" fill="#FF0036"/>
<path d="M7.83389 14.977C7.83389 14.5218 7.81938 13.8654 7.80104 13.0345C7.77288 11.7648 7.73789 9.70469 7.73789 8.05229C7.73789 7.65465 7.41556 7.33232 7.01792 7.33232C6.62029 7.33232 6.29796 7.65465 6.29796 8.05229C6.29796 9.72069 6.33315 11.7895 6.36153 13.0662C6.36643 13.2894 6.37134 13.5038 6.37539 13.7066L5.63473 13.7175V8.29334C5.63473 7.89571 5.3124 7.57337 4.91477 7.57337C4.51713 7.57337 4.1948 7.89571 4.1948 8.29334V13.7389L3.52219 13.7487V8.29334C3.52219 7.89571 3.19986 7.57337 2.80222 7.57337C2.40458 7.57337 2.08225 7.89571 2.08225 8.29334V13.7698L1.43994 13.7792V7.88696C1.43994 7.48932 1.1176 7.16699 0.719968 7.16699C0.322332 7.16699 0 7.48932 0 7.88696V14.8895C0 16.6366 1.2808 17.8304 3.32358 18.0653V22.1899C3.11559 22.1937 3.00104 22.1971 2.98931 22.1974C2.64095 22.2076 2.34976 22.4657 2.29835 22.8104C1.95746 25.0879 1.23002 32.2135 1.28954 35.1295C1.32645 36.9308 2.51786 37.7371 3.68218 37.7371C4.92117 37.7371 6.29945 36.8205 6.36601 35.3394C6.44216 33.639 5.99354 26.4337 5.80198 23.8491C5.76721 23.3785 5.74118 23.028 5.72902 22.8478C5.70364 22.47 5.38962 22.176 5.01076 22.176C4.92564 22.176 4.84352 22.176 4.76352 22.1764V18.054C6.6028 17.7596 7.83389 16.3013 7.83389 14.977ZM4.92756 35.2745C4.90005 35.8861 4.26157 36.2968 3.68239 36.2968C3.07485 36.2968 2.74526 35.8829 2.72926 35.0996C2.67892 32.6285 3.25404 26.3484 3.63568 23.6245C3.82852 23.6217 4.06488 23.6194 4.34135 23.6177C4.34903 23.7216 4.35735 23.8346 4.36631 23.9549C4.53953 26.2944 4.99988 33.6601 4.92756 35.2745ZM4.08579 16.6684C3.50939 16.6684 1.72259 16.5569 1.47065 15.2189L6.37646 15.1468C6.24719 15.8196 5.3828 16.6684 4.08579 16.6684Z" fill="#FF0036"/>
</svg>
