<svg width="173" height="173" viewBox="0 0 173 173" fill="none" xmlns="http://www.w3.org/2000/svg">
<g clip-path="url(#clip0)">
<path d="M86.4697 28.0918C54.2623 28.0918 28.0605 54.2935 28.0605 86.5009C28.0605 118.708 54.2623 144.909 86.4697 144.909C118.678 144.909 144.88 118.708 144.88 86.5009C144.881 54.2935 118.678 28.0918 86.4697 28.0918ZM86.4697 139.374C57.3155 139.374 33.5963 115.655 33.5963 86.5009C33.5963 57.3468 57.3147 33.6275 86.4697 33.6275C115.625 33.6275 139.345 57.346 139.345 86.5009C139.345 115.655 115.625 139.374 86.4697 139.374Z" fill="#A3A7A7"/>
<path d="M86.4667 43.9893C63.0271 43.9893 43.957 63.0593 43.957 86.5014C43.957 109.943 63.0263 129.016 86.4667 129.016C109.908 129.016 128.979 109.944 128.979 86.5014C128.98 63.0601 109.909 43.9893 86.4667 43.9893ZM86.4667 123.48C66.0795 123.48 49.4928 106.892 49.4928 86.5014C49.4928 66.1126 66.0787 49.525 86.4667 49.525C106.855 49.525 123.443 66.1118 123.443 86.5014C123.445 106.892 106.857 123.48 86.4667 123.48Z" fill="#A3A7A7"/>
<path d="M169.515 87.763C169.512 86.3795 169.467 72.5983 169.06 58.9853C168.809 50.5693 168.47 43.8526 168.053 39.0214C167.796 36.0411 167.514 33.8071 167.192 32.1906C166.911 30.7833 166.255 27.4873 163.399 27.4873C163.191 27.4873 162.982 27.5086 162.779 27.5513C161.012 27.917 159.808 29.3006 157.347 36.5266C155.819 41.0167 154.141 46.8961 152.62 53.0846C150.812 60.4468 146.715 78.6229 147.716 88.3847C148.373 94.7906 151.269 96.1347 153.583 96.1347L153.717 96.1331C154.81 96.1052 155.678 96.0904 156.371 96.0904C157.171 96.0904 157.669 96.1076 158.245 96.129C158.322 96.1314 158.4 96.1347 158.482 96.1372C158.289 100.681 157.522 106.979 156.776 113.104C155.691 122.017 154.568 131.233 154.952 136.688C155.41 143.203 159.82 145.515 163.457 145.515C166.02 145.515 168.638 144.423 170.458 142.594C172.11 140.934 173.012 138.776 173.002 136.517C172.97 129.834 169.751 90.64 169.515 87.763ZM166.537 138.689C165.744 139.486 164.565 139.979 163.458 139.979C161.651 139.979 160.647 138.741 160.475 136.3C160.129 131.376 161.218 122.428 162.272 113.774C163.245 105.791 164.162 98.249 164.058 93.3562C164.026 91.8504 162.796 90.6473 161.291 90.6473C159.872 90.6473 154.177 91.1919 153.861 90.5916C152.99 89.1638 151.994 81.8262 156.339 61.6039C158.327 52.349 160.662 44.0511 162.474 38.6433C163.4 49.0037 163.949 69.2285 163.98 87.8852C163.98 87.9607 163.983 88.0345 163.989 88.1083C164.023 88.5257 167.434 129.968 167.467 136.547C167.472 137.342 167.158 138.064 166.537 138.689Z" fill="#A3A7A7"/>
<path d="M30.1169 57.5783C30.1169 55.8282 30.0612 53.3047 29.9906 50.1104C29.8824 45.2291 29.7479 37.3093 29.7479 30.9567C29.7479 29.428 28.5087 28.1888 26.98 28.1888C25.4513 28.1888 24.2121 29.428 24.2121 30.9567C24.2121 37.3708 24.3475 45.3242 24.4565 50.2326C24.4754 51.0904 24.4943 51.9146 24.5098 52.6946L21.6624 52.7364V31.8834C21.6624 30.3547 20.4232 29.1155 18.8945 29.1155C17.3659 29.1155 16.1267 30.3547 16.1267 31.8834V52.8184L13.5409 52.8561V31.8834C13.5409 30.3547 12.3017 29.1155 10.773 29.1155C9.24429 29.1155 8.00511 30.3547 8.00511 31.8834V52.9373L5.53575 52.9734V30.3211C5.53575 28.7924 4.29656 27.5532 2.76788 27.5532C1.23919 27.5532 0 28.7924 0 30.3211V57.2421C0 63.9588 4.92395 68.5481 12.7773 69.4511V85.3079C11.9777 85.3227 11.5373 85.3358 11.4922 85.3366C10.153 85.376 9.03353 86.3683 8.83588 87.6936C7.52534 96.4491 4.72876 123.843 4.95757 135.053C5.09945 141.978 9.67977 145.078 14.1559 145.078C18.9191 145.078 24.2179 141.554 24.4738 135.86C24.7665 129.323 23.0418 101.623 22.3054 91.6867C22.1717 89.8776 22.0717 88.5301 22.0249 87.8371C21.9273 86.3847 20.7201 85.2546 19.2636 85.2546C18.9364 85.2546 18.6206 85.2546 18.3131 85.2562V69.4076C25.3841 68.2758 30.1169 62.6696 30.1169 57.5783ZM18.9437 135.611C18.838 137.962 16.3834 139.541 14.1568 139.541C11.8211 139.541 10.554 137.95 10.4925 134.939C10.299 125.438 12.51 101.295 13.9772 90.8232C14.7185 90.8125 15.6272 90.8035 16.6901 90.7969C16.7196 91.1963 16.7516 91.631 16.786 92.0935C17.452 101.088 19.2218 129.404 18.9437 135.611ZM15.7076 64.081C13.4916 64.081 6.6224 63.6521 5.65385 58.5083L24.5139 58.2311C24.017 60.8178 20.6939 64.081 15.7076 64.081Z" fill="#A3A7A7"/>
</g>
<defs>
<clipPath id="clip0">
<rect width="173" height="173" fill="white"/>
</clipPath>
</defs>
</svg>
