<svg width="551" height="403" viewBox="0 0 551 403" fill="none" xmlns="http://www.w3.org/2000/svg">
<g clip-path="url(#clip0)">
<path opacity="0.1" d="M38.939 325.379C54.091 325.379 66.3741 320.986 66.3741 315.567C66.3741 310.148 54.091 305.755 38.939 305.755C23.787 305.755 11.5039 310.148 11.5039 315.567C11.5039 320.986 23.787 325.379 38.939 325.379Z" fill="black"/>
<path opacity="0.1" d="M482.156 365.947C497.308 365.947 509.591 361.554 509.591 356.135C509.591 350.715 497.308 346.322 482.156 346.322C467.004 346.322 454.721 350.715 454.721 356.135C454.721 361.554 467.004 365.947 482.156 365.947Z" fill="black"/>
<path opacity="0.1" d="M324.887 11.3024C283.137 27.5232 237.882 28.2775 195.845 13.0073C136.268 -8.62865 58.4623 -14.1664 29.6311 84.9799C-19.5753 254.369 81.0932 314.831 81.0932 314.831C81.0932 314.831 151.376 330.678 190.291 359.311C245.57 399.983 313.267 413.579 377.038 394.506C417.819 382.308 452.771 362.298 462.764 329.556C490.711 237.983 472.97 182.943 523.548 158.798C574.126 134.654 545.984 45.2097 510.013 43.1798C474.043 41.1499 389.299 61.8967 363.083 20.6302C353.737 5.97929 339.44 5.64199 324.887 11.3024Z" fill="black"/>
<path d="M481.046 357.526C481.046 357.526 488.362 332.481 479.669 314.046C475.966 306.337 474.849 297.629 476.486 289.227C477.294 285.244 478.464 281.344 479.98 277.575" stroke="#535461" stroke-width="2" stroke-miterlimit="10"/>
<path d="M474.565 265.929C474.565 268.996 480.088 277.9 480.088 277.9C480.088 277.9 485.612 269.002 485.612 265.929C485.612 264.455 485.03 263.041 483.993 261.998C482.957 260.956 481.551 260.37 480.085 260.37C478.619 260.37 477.214 260.956 476.177 261.998C475.141 263.041 474.559 264.455 474.559 265.929H474.565Z" fill="#F7F6FF"/>
<path d="M465.434 282.935C467.092 285.511 476.542 289.963 476.542 289.963C476.542 289.963 476.371 279.47 474.713 276.895C474.319 276.282 473.808 275.754 473.211 275.34C472.614 274.926 471.941 274.634 471.232 274.481C470.523 274.329 469.79 274.318 469.077 274.45C468.363 274.582 467.683 274.854 467.074 275.251C466.465 275.648 465.94 276.161 465.528 276.762C465.117 277.363 464.827 278.039 464.675 278.753C464.523 279.466 464.513 280.203 464.644 280.92C464.775 281.638 465.046 282.323 465.44 282.935H465.434Z" fill="#F7F6FF"/>
<path d="M465.83 311.986C468.555 313.365 478.943 312.415 478.943 312.415C478.943 312.415 473.53 303.443 470.804 302.063C469.496 301.399 467.98 301.286 466.588 301.747C465.197 302.208 464.044 303.206 463.385 304.522C462.725 305.838 462.612 307.364 463.07 308.763C463.529 310.163 464.521 311.322 465.83 311.986Z" fill="#F7F6FF"/>
<path d="M471.053 333.904C473.492 335.744 483.905 336.553 483.905 336.553C483.905 336.553 480.076 326.79 477.625 324.969C476.448 324.092 474.972 323.722 473.522 323.94C472.073 324.158 470.769 324.946 469.898 326.131C469.026 327.316 468.659 328.8 468.875 330.258C469.092 331.716 469.875 333.027 471.053 333.904Z" fill="#F7F6FF"/>
<path d="M488.137 290.558C485.948 292.698 475.748 294.912 475.748 294.912C475.748 294.912 478.248 284.725 480.436 282.585C481.487 281.558 482.901 280.993 484.366 281.014C485.831 281.036 487.228 281.641 488.249 282.699C489.27 283.756 489.832 285.178 489.811 286.652C489.79 288.125 489.188 289.53 488.137 290.558Z" fill="#F7F6FF"/>
<path d="M493.923 316.26C491.197 317.639 480.809 316.689 480.809 316.689C480.809 316.689 486.222 307.717 488.948 306.368C490.256 305.704 491.772 305.59 493.164 306.052C494.555 306.513 495.708 307.511 496.367 308.827C497.027 310.143 497.14 311.668 496.682 313.068C496.223 314.468 495.231 315.627 493.923 316.29V316.26Z" fill="#F7F6FF"/>
<path d="M496.135 342.023C493.696 343.863 483.283 344.672 483.283 344.672C483.283 344.672 487.112 334.909 489.563 333.088C490.741 332.211 492.217 331.841 493.666 332.059C495.115 332.277 496.419 333.065 497.29 334.25C498.162 335.435 498.53 336.92 498.313 338.377C498.096 339.835 497.313 341.147 496.135 342.023Z" fill="#F7F6FF"/>
<path d="M38.9519 315.64C38.9519 315.64 54.6143 262.213 36.0255 222.841C28.2217 206.326 25.6611 187.793 29.2399 169.874C30.9651 161.375 33.461 153.053 36.6961 145.012" stroke="#535461" stroke-width="2" stroke-miterlimit="10"/>
<path d="M25.1311 120.145C25.1311 126.694 36.9221 145.693 36.9221 145.693C36.9221 145.693 48.707 126.682 48.707 120.145C48.707 116.999 47.4647 113.982 45.2535 111.758C43.0422 109.534 40.0432 108.284 36.916 108.284C33.7888 108.284 30.7897 109.534 28.5785 111.758C26.3673 113.982 25.125 116.999 25.125 120.145H25.1311Z" fill="#F7F6FF"/>
<path d="M5.63963 156.431C9.18181 161.951 29.3435 171.432 29.3435 171.432C29.3435 171.432 28.9777 149.035 25.4356 143.541C23.7028 140.981 21.0433 139.204 18.0256 138.591C15.0079 137.977 11.8713 138.575 9.28615 140.257C6.70097 141.939 4.87227 144.571 4.19088 147.591C3.50949 150.611 4.02945 153.78 5.63963 156.419V156.431Z" fill="#F7F6FF"/>
<path d="M6.48596 218.444C12.3022 221.394 34.4758 219.358 34.4758 219.358C34.4758 219.358 22.8921 200.212 17.1064 197.281C15.7237 196.579 14.2172 196.158 12.6729 196.043C11.1286 195.927 9.57675 196.118 8.10595 196.606C6.63515 197.093 5.27419 197.867 4.1008 198.884C2.9274 199.9 1.96455 201.139 1.2672 202.53C0.569855 203.921 0.151678 205.436 0.0365438 206.99C-0.0785903 208.543 0.111575 210.104 0.596182 211.584C1.57489 214.571 3.6935 217.046 6.48596 218.463V218.444Z" fill="#F7F6FF"/>
<path d="M17.6141 265.218C22.8512 269.113 45.0492 270.873 45.0492 270.873C45.0492 270.873 36.8796 250.022 31.6365 246.146C29.1221 244.275 25.9721 243.486 22.8793 243.952C19.7866 244.418 17.0044 246.1 15.1449 248.63C13.2855 251.159 12.501 254.327 12.964 257.438C13.4271 260.549 15.0998 263.348 17.6141 265.218Z" fill="#F7F6FF"/>
<path d="M54.1012 172.677C49.4312 177.239 27.666 181.967 27.666 181.967C27.666 181.967 32.9945 160.221 37.6646 155.658C39.9081 153.463 42.9268 152.253 46.0568 152.297C49.1867 152.34 52.1714 153.632 54.3542 155.888C56.5371 158.145 57.7394 161.182 57.6965 164.33C57.6536 167.479 56.3691 170.481 54.1256 172.677H54.1012Z" fill="#F7F6FF"/>
<path d="M66.4469 227.57C60.6307 230.519 38.457 228.483 38.457 228.483C38.457 228.483 50.0407 209.337 55.8265 206.406C57.2092 205.705 58.7157 205.284 60.26 205.168C61.8043 205.052 63.3561 205.244 64.8269 205.731C66.2977 206.218 67.6587 206.993 68.8321 208.009C70.0055 209.026 70.9683 210.265 71.6657 211.656C72.363 213.046 72.7812 214.562 72.8963 216.115C73.0115 217.669 72.8213 219.23 72.3367 220.709C71.8521 222.189 71.0825 223.557 70.072 224.738C69.0614 225.918 67.8296 226.887 66.4469 227.588V227.57Z" fill="#F7F6FF"/>
<path d="M71.1734 282.555C65.9363 286.45 43.7383 288.21 43.7383 288.21C43.7383 288.21 51.9078 267.359 57.151 263.483C59.6653 261.612 62.8154 260.823 65.9081 261.289C69.0009 261.755 71.783 263.437 73.6425 265.967C75.502 268.496 76.2865 271.664 75.8234 274.775C75.3604 277.886 73.6877 280.685 71.1734 282.555Z" fill="#F7F6FF"/>
<path d="M231.155 183.85L197.178 179.423C195.801 179.245 194.74 178.717 194.776 178.258C194.837 177.798 195.996 177.583 197.404 177.785L231.308 182.722C232.24 182.857 232.948 183.213 232.905 183.525C232.862 183.82 232.082 183.973 231.155 183.85Z" fill="#F7F6FF"/>
<path d="M231.369 184.433L197.288 180.888C195.904 180.747 194.727 181.005 194.685 181.465C194.642 181.925 195.746 182.409 197.123 182.532L231.265 185.598C232.204 185.684 232.972 185.5 233.002 185.187C233.027 184.856 232.301 184.531 231.369 184.433Z" fill="#F7F6FF"/>
<path d="M282.496 210.221L316.467 205.793C317.844 205.615 318.905 205.088 318.869 204.628C318.808 204.168 317.649 203.953 316.241 204.155L282.337 209.092C281.405 209.227 280.697 209.583 280.74 209.896C280.783 210.19 281.563 210.343 282.496 210.221Z" fill="#F7F6FF"/>
<path d="M282.277 210.803L316.358 207.258C317.742 207.117 318.918 207.375 318.961 207.835C319.004 208.295 317.9 208.779 316.522 208.902L282.381 211.968C281.442 212.054 280.674 211.87 280.643 211.557C280.619 211.226 281.344 210.901 282.277 210.803Z" fill="#F7F6FF"/>
<path d="M170.116 246.925H161.83V366.425H170.116V246.925Z" fill="#40414D"/>
<path d="M351.078 246.925H342.793V366.425H351.078V246.925Z" fill="#40414D"/>
<path d="M158.667 237.198H350.102C353.66 237.198 357.071 238.62 359.587 241.15C362.102 243.68 363.515 247.112 363.515 250.69V252.481H145.254V250.69C145.254 247.112 146.667 243.68 149.182 241.15C151.698 238.62 155.109 237.198 158.667 237.198Z" fill="#DFE6F5"/>
<path opacity="0.1" d="M158.057 237.198H349.493C353.05 237.198 356.462 238.62 358.977 241.15C361.493 243.68 362.906 247.112 362.906 250.69V252.481H144.645V250.69C144.645 247.112 146.058 243.68 148.573 241.15C151.088 238.62 154.5 237.198 158.057 237.198Z" fill="black"/>
<path d="M158.667 234.414H350.102C353.66 234.414 357.071 235.836 359.587 238.366C362.102 240.896 363.515 244.328 363.515 247.906V249.697H145.254V247.906C145.254 244.328 146.667 240.896 149.182 238.366C151.698 235.836 155.109 234.414 158.667 234.414Z" fill="#DFE6F5"/>
<path d="M254.384 224.688C263.539 224.688 270.96 217.222 270.96 208.013C270.96 198.804 263.539 191.338 254.384 191.338C245.228 191.338 237.807 198.804 237.807 208.013C237.807 217.222 245.228 224.688 254.384 224.688Z" fill="#FFD77C" stroke="#FFAB50" stroke-miterlimit="10"/>
<path d="M254.384 221.228C261.641 221.228 267.523 215.312 267.523 208.013C267.523 200.714 261.641 194.797 254.384 194.797C247.128 194.797 241.246 200.714 241.246 208.013C241.246 215.312 247.128 221.228 254.384 221.228Z" fill="#FFD77C" stroke="#FFAB50" stroke-miterlimit="10"/>
<path d="M254.384 218.082C259.913 218.082 264.395 213.574 264.395 208.013C264.395 202.451 259.913 197.943 254.384 197.943C248.855 197.943 244.373 202.451 244.373 208.013C244.373 213.574 248.855 218.082 254.384 218.082Z" fill="#FFD77C" stroke="#FFAB50" stroke-miterlimit="10"/>
<path d="M254.385 213.673C257.493 213.673 260.012 211.139 260.012 208.013C260.012 204.887 257.493 202.353 254.385 202.353C251.277 202.353 248.758 204.887 248.758 208.013C248.758 211.139 251.277 213.673 254.385 213.673Z" fill="#FFD77C" stroke="#FFAB50" stroke-miterlimit="10"/>
<path d="M244.716 233.721C253.871 233.721 261.292 226.255 261.292 217.046C261.292 207.837 253.871 200.372 244.716 200.372C235.56 200.372 228.139 207.837 228.139 217.046C228.139 226.255 235.56 233.721 244.716 233.721Z" fill="#FFD77C" stroke="#FFAB50" stroke-miterlimit="10"/>
<path d="M244.715 230.262C251.971 230.262 257.853 224.345 257.853 217.046C257.853 209.747 251.971 203.83 244.715 203.83C237.458 203.83 231.576 209.747 231.576 217.046C231.576 224.345 237.458 230.262 244.715 230.262Z" fill="#FFD77C" stroke="#FFAB50" stroke-miterlimit="10"/>
<path d="M244.714 227.116C250.243 227.116 254.725 222.608 254.725 217.046C254.725 211.485 250.243 206.977 244.714 206.977C239.185 206.977 234.703 211.485 234.703 217.046C234.703 222.608 239.185 227.116 244.714 227.116Z" fill="#FFD77C" stroke="#FFAB50" stroke-miterlimit="10"/>
<path d="M244.715 222.707C247.823 222.707 250.342 220.172 250.342 217.046C250.342 213.92 247.823 211.386 244.715 211.386C241.607 211.386 239.088 213.92 239.088 217.046C239.088 220.172 241.607 222.707 244.715 222.707Z" fill="#FFD77C" stroke="#FFAB50" stroke-miterlimit="10"/>
<path d="M264.053 233.721C273.209 233.721 280.63 226.255 280.63 217.046C280.63 207.837 273.209 200.372 264.053 200.372C254.898 200.372 247.477 207.837 247.477 217.046C247.477 226.255 254.898 233.721 264.053 233.721Z" fill="#FFD77C" stroke="#FFAB50" stroke-miterlimit="10"/>
<path d="M264.052 230.262C271.309 230.262 277.191 224.345 277.191 217.046C277.191 209.747 271.309 203.83 264.052 203.83C256.796 203.83 250.914 209.747 250.914 217.046C250.914 224.345 256.796 230.262 264.052 230.262Z" fill="#FFD77C" stroke="#FFAB50" stroke-miterlimit="10"/>
<path d="M264.054 227.116C269.582 227.116 274.064 222.608 274.064 217.046C274.064 211.485 269.582 206.977 264.054 206.977C258.525 206.977 254.043 211.485 254.043 217.046C254.043 222.608 258.525 227.116 264.054 227.116Z" fill="#FFD77C" stroke="#FFAB50" stroke-miterlimit="10"/>
<path d="M264.053 222.707C267.161 222.707 269.68 220.172 269.68 217.046C269.68 213.92 267.161 211.386 264.053 211.386C260.945 211.386 258.426 213.92 258.426 217.046C258.426 220.172 260.945 222.707 264.053 222.707Z" fill="#FFD77C" stroke="#FFAB50" stroke-miterlimit="10"/>
<path d="M219.846 212.189H288.915V215.452C288.915 218.673 288.284 221.863 287.059 224.839C285.833 227.816 284.037 230.52 281.772 232.798C279.508 235.076 276.819 236.882 273.861 238.115C270.902 239.348 267.731 239.983 264.528 239.983H244.232C241.03 239.983 237.859 239.348 234.9 238.115C231.941 236.882 229.253 235.076 226.988 232.798C224.724 230.52 222.928 227.816 221.702 224.839C220.476 221.863 219.846 218.673 219.846 215.452V212.189Z" fill="#F7F6FF"/>
<path opacity="0.1" d="M282.685 212.183C282.505 219.43 279.517 226.319 274.358 231.381C269.2 236.442 262.279 239.276 255.073 239.277H241.361C243.362 239.737 245.406 239.971 247.458 239.976H261.273C264.903 239.978 268.497 239.26 271.85 237.864C275.204 236.468 278.251 234.421 280.818 231.84C283.385 229.259 285.422 226.195 286.811 222.822C288.2 219.449 288.915 215.834 288.915 212.183H282.685Z" fill="black"/>
<path d="M346.938 346.273V337.938H167.354V346.273H346.938Z" fill="#40414D"/>
<path d="M100.022 308.833H92.7734V375.176H100.022V308.833Z" fill="#40414D"/>
<path d="M157.276 308.833H150.027V375.176H157.276V308.833Z" fill="#40414D"/>
<path d="M163.081 297.899C163.081 302.327 148.156 305.921 129.744 305.921C111.332 305.921 97.1328 302.333 97.1328 297.899C97.1328 293.466 111.332 289.878 129.744 289.878C148.156 289.878 163.081 293.49 163.081 297.899Z" fill="#F6C6CD"/>
<path d="M86.9746 297.893H163.073V304.577C163.073 306.285 162.399 307.923 161.198 309.13C159.998 310.338 158.37 311.016 156.672 311.016H97.9486C95.0381 311.016 92.2469 309.853 90.1888 307.783C88.1308 305.713 86.9746 302.905 86.9746 299.978V297.893Z" fill="#40414D"/>
<path d="M74.0518 221.186L75.6218 220.829C76.7259 220.579 77.8838 220.779 78.8407 221.388C79.7976 221.996 80.4752 222.961 80.7244 224.072L99.7303 308.767L97.3514 309.307C95.3546 309.76 93.2606 309.397 91.5299 308.297C89.7992 307.198 88.5737 305.451 88.123 303.443L70.8166 226.321C70.693 225.77 70.6787 225.2 70.7744 224.644C70.8702 224.087 71.0742 223.555 71.3747 223.078C71.6753 222.601 72.0664 222.188 72.5258 221.864C72.9852 221.539 73.5038 221.309 74.0518 221.186Z" fill="#40414D"/>
<path d="M409.96 376.354H417.209V310.011H409.96V376.354Z" fill="#40414D"/>
<path d="M352.706 376.354H359.955V310.011H352.706V376.354Z" fill="#40414D"/>
<path d="M346.914 299.076C346.914 303.504 361.839 307.097 380.251 307.097C398.663 307.097 412.862 303.51 412.862 299.076C412.862 294.642 398.657 291.036 380.251 291.036C361.845 291.036 346.914 294.648 346.914 299.076Z" fill="#F6C6CD"/>
<path d="M412.032 312.2H353.309C351.611 312.2 349.983 311.522 348.782 310.314C347.582 309.107 346.907 307.469 346.907 305.761V299.076H423.006V301.161C423.006 304.089 421.85 306.897 419.792 308.967C417.734 311.037 414.942 312.2 412.032 312.2Z" fill="#40414D"/>
<path d="M412.641 310.484L410.262 309.943L429.271 225.237C429.52 224.126 430.198 223.16 431.155 222.552C432.112 221.944 433.269 221.744 434.373 221.994L435.943 222.351C437.048 222.601 438.007 223.283 438.612 224.246C439.216 225.208 439.416 226.373 439.167 227.484L421.858 304.617C421.407 306.624 420.184 308.368 418.456 309.468C416.728 310.568 414.637 310.933 412.641 310.484Z" fill="#40414D"/>
<path d="M415.221 273.252L417.361 272.571C417.361 272.571 413.703 247.991 413.739 225.963C413.739 225.35 413.739 224.694 413.739 224.062C413.782 222.688 413.831 221.327 413.898 219.996C413.983 218.291 414.002 216.666 413.989 215.09C414.191 193.877 405.881 184.917 405.881 184.917C405.881 184.917 396.126 170.923 390.279 168.2C389.773 166.605 389.194 164.557 388.682 162.177C388.871 162.049 389.054 161.92 389.231 161.785C391.645 159.983 393.956 158.044 396.15 155.977C399.15 153.15 402.028 149.704 401.869 145.816C401.886 145.437 401.873 145.058 401.833 144.681C401.278 139.99 396.431 136.457 394.474 132.011C392.828 128.276 393.322 124.118 391.883 120.328C390.444 116.538 385.42 113.012 381.628 115.005C380.232 115.741 379.391 117.041 378.226 118.029C375.336 120.482 370.679 120.709 366.728 119.592C362.777 118.476 361.607 113.926 356.083 113.914C356.573 114.079 357.042 114.303 357.479 114.582C357.018 114.504 356.551 114.463 356.083 114.459C357.207 114.817 358.203 115.494 358.952 116.41C359.701 117.325 360.169 118.439 360.302 119.617C360.293 119.765 360.277 119.912 360.253 120.058C358.046 121.254 355.144 120.574 352.498 120.531C349.852 120.488 346.84 121.831 347.103 124.008C347.058 124.255 347.058 124.509 347.103 124.756C347.45 126.406 349.645 127.651 349.913 129.178C349.913 129.221 349.913 129.257 349.913 129.3C345.017 131.762 339.719 133.315 334.275 133.888C334.098 133.888 334.178 134.102 334.434 134.415H334.275C333.281 134.519 340.232 140.045 341.024 140.407C343.926 141.731 347.395 142.706 350.468 143.724L350.736 143.81C349.701 146.229 349.168 148.836 349.169 151.47C349.169 160.914 355.918 168.85 365.057 171.094C366.764 173.1 368.557 175.301 370.191 177.491H370.075C370.075 177.491 359.57 191.547 359.906 212.539C359.876 215.17 360.014 217.8 360.32 220.413C353.565 220.027 339.049 218.236 328.008 210.104C313.114 199.145 296.5 202.432 299.963 209.006C303.426 215.58 321.161 221.057 324.021 221.609C324.289 221.658 324.911 221.805 325.801 222.026C322.277 222.694 319.863 223.866 320.009 225.442C320.295 228.453 335.476 238.044 344.64 238.59C350.694 238.952 357.979 240.828 363.728 242.478C364.283 255.081 361.253 258.858 361.253 258.858C361.253 258.858 362.155 259.416 363.649 260.208L363.009 262.047C359.29 264.206 354.705 266.457 350.535 267.364C345.221 268.463 340.056 270.192 335.147 272.516L314.522 282.543C312.68 283.402 311.086 284.72 309.892 286.371C308.697 288.023 307.94 289.953 307.694 291.981C307.242 296.231 308.517 301.542 315.418 305.755C315.845 309.207 317.942 313.236 323.447 316.928C334.117 324.067 362.155 345.451 365.972 348.37C366.045 353.589 365.362 364.058 358.961 365.689C350.937 367.737 357.394 375.501 363.881 375.194C365.42 375.78 367.095 375.904 368.703 375.55C375.58 373.907 400.784 365.125 402.503 351.989C402.575 351.419 402.607 350.845 402.601 350.271C402.701 348.032 402.145 345.812 401.003 343.887C401.272 344.481 401.491 345.096 401.656 345.727C399.571 340.944 394.492 337.939 390.541 336.246C390.541 336.203 390.541 336.154 390.541 336.111C389.932 335.872 389.322 335.676 388.822 335.498C388.832 335.143 388.806 334.787 388.743 334.437L349.218 307.043C349.218 307.043 366.405 292.796 384.164 294.992C401.924 297.187 404.753 293.943 404.753 293.943C404.753 293.943 413.861 285.229 414.776 275.196L415.349 275.042C415.349 275.042 415.306 274.411 415.221 273.252Z" fill="url(#paint0_linear)"/>
<path d="M366.953 344.605C366.953 344.605 368.568 362.494 360.484 364.665C352.4 366.836 359.948 375.508 366.41 373.864C372.873 372.221 396.595 363.561 398.211 350.56C399.826 337.559 382.042 333.211 382.042 333.211L366.953 344.605Z" fill="#B8616E"/>
<path opacity="0.05" d="M366.953 344.605C366.953 344.605 368.568 362.494 360.484 364.665C352.4 366.836 359.948 375.508 366.41 373.864C372.873 372.221 396.595 363.561 398.211 350.56C399.826 337.559 382.042 333.211 382.042 333.211L366.953 344.605Z" fill="black"/>
<path d="M370.203 345.144C370.203 345.144 371.818 363.033 363.734 365.204C355.65 367.375 363.198 376.047 369.66 374.403C376.123 372.76 399.845 364.1 401.461 351.099C403.076 338.098 385.292 333.75 385.292 333.75L370.203 345.144Z" fill="#B8616E"/>
<path opacity="0.1" d="M386.907 334.303L371.83 345.691C371.83 345.691 371.897 346.464 371.94 347.696C377.634 346.126 390.041 341.956 390.23 335.431C389.146 334.988 388.036 334.612 386.907 334.303Z" fill="black"/>
<path d="M377.476 178.429H371.008V183.311H377.476V178.429Z" fill="#F8BDC5"/>
<path d="M371.282 257.307C371.282 257.307 361.009 265.426 352.572 267.352C347.555 268.444 342.691 270.156 338.092 272.448L318.686 282.371C316.924 283.263 315.412 284.585 314.289 286.217C313.167 287.848 312.469 289.737 312.26 291.711C311.706 297.23 313.913 304.491 327.081 308.809L368.581 343.507L381.519 332.664L337.324 298.518L371.282 277.373V257.307Z" fill="#3D3838" fill-opacity="0.9"/>
<path opacity="0.1" d="M371.282 257.307C371.282 257.307 361.009 265.426 352.572 267.352C347.555 268.444 342.691 270.156 338.092 272.448L318.686 282.371C316.924 283.263 315.412 284.585 314.289 286.217C313.167 287.848 312.469 289.737 312.26 291.711C311.706 297.23 313.913 304.491 327.081 308.809L368.581 343.507L381.519 332.664L337.324 298.518L371.282 277.373V257.307Z" fill="black"/>
<path d="M365.349 220.989C365.349 220.989 345.407 221.529 331.391 210.686C317.374 199.844 301.749 203.094 304.98 209.601C308.211 216.108 324.922 221.529 327.617 222.069C330.312 222.608 369.117 233.457 369.117 233.457L365.349 220.989Z" fill="#F8BDC5"/>
<path opacity="0.05" d="M365.349 220.989C365.349 220.989 345.407 221.529 331.391 210.686C317.374 199.844 301.749 203.094 304.98 209.601C308.211 216.108 324.922 221.529 327.617 222.069C330.312 222.608 369.117 233.457 369.117 233.457L365.349 220.989Z" fill="black"/>
<path d="M367.509 252.438L361.04 271.958C361.04 271.958 324.661 294.458 321.692 297.439C319.388 299.757 316.303 308.827 327.082 316.413C337.861 323.999 367.503 347.861 367.503 347.861C367.503 347.861 390.14 342.955 388.524 333.756L351.334 306.65C351.334 306.65 367.503 292.545 384.214 294.722C400.925 296.899 403.62 293.637 403.62 293.637C403.62 293.637 416.557 280.611 412.24 268.162C407.924 255.712 367.509 252.438 367.509 252.438Z" fill="#3D3838"/>
<path d="M359.424 164.091C359.424 164.091 377.75 184.151 376.671 190.111C375.592 196.072 391.224 172.762 391.224 172.762C391.224 172.762 386.347 160.834 387.45 147.821L359.424 164.091Z" fill="#F8BDC5"/>
<path opacity="0.1" d="M375.416 182.489C376.666 181.161 377.983 179.898 379.36 178.705C382.118 176.43 384.648 173.889 386.914 171.119C390.688 166.213 404.698 187.383 404.698 187.383C404.698 187.383 413.319 197.14 412.246 220.456C411.173 243.772 413.593 274.945 413.593 274.945L410.332 275.858C407.584 276.781 404.661 277.047 401.794 276.638C398.926 276.228 396.193 275.153 393.81 273.497C389.505 270.505 384.055 267.365 379.909 267.083C371.825 266.543 364.545 261.931 364.545 261.931C364.545 261.931 368.051 253.529 362.662 226.417C357.272 199.305 371.008 180.036 371.008 180.036C371.008 180.036 372.093 185.936 375.416 182.489Z" fill="black"/>
<path d="M415.478 272.497L412.246 273.583L410.326 274.227C407.579 275.149 404.656 275.416 401.788 275.007C398.921 274.597 396.187 273.522 393.804 271.866C389.506 268.879 384.049 265.733 379.904 265.451C371.832 264.905 362.687 258.944 362.687 258.944C362.687 258.944 368.076 251.898 362.687 224.785C357.297 197.673 371.039 178.429 371.039 178.429C371.039 178.429 372.124 184.298 375.447 180.845C376.694 179.519 378.009 178.258 379.385 177.067C382.143 174.793 384.673 172.252 386.939 169.481C390.713 164.575 404.723 185.745 404.723 185.745C404.723 185.745 413.344 195.502 412.271 218.818C412.155 221.271 412.106 223.798 412.1 226.355C412.021 248.175 415.478 272.497 415.478 272.497Z" fill="#FFE120"/>
<path opacity="0.1" d="M384.756 219.364L385.292 231.292C385.292 231.292 356.723 232.917 350.797 226.957C344.871 220.996 366.953 244.49 371.831 245.931C376.409 247.286 388.231 248.482 394.431 248.605C396.202 248.662 397.952 248.201 399.467 247.276C400.983 246.352 402.198 245.005 402.967 243.398C403.689 241.817 403.923 240.055 403.637 238.339C402.558 231.292 403.637 216.108 403.637 216.108L384.756 219.364Z" fill="black"/>
<path d="M384.756 218.279L385.292 230.207C385.292 230.207 356.723 231.832 350.797 225.871C344.871 219.91 323.429 221.229 323.85 225.871C324.118 228.852 338.403 238.339 347.017 238.885C355.632 239.43 366.953 243.404 371.831 244.845C376.409 246.201 388.231 247.397 394.431 247.519C396.202 247.577 397.952 247.115 399.467 246.191C400.983 245.266 402.198 243.919 402.966 242.313C403.689 240.732 403.923 238.969 403.637 237.253C402.558 230.207 403.637 215.022 403.637 215.022L384.756 218.279Z" fill="#F8BDC5"/>
<path opacity="0.1" d="M391.225 183.58C391.225 183.58 378.83 185.205 380.446 203.64C382.062 222.075 384.22 223.7 384.22 223.7C384.22 223.7 402.546 222.075 404.699 221.529C406.851 220.983 405.778 200.93 405.778 200.93C405.778 200.93 405.235 183.041 391.225 183.58Z" fill="black"/>
<path d="M391.225 183.041C391.225 183.041 378.83 184.666 380.446 203.101C382.062 221.535 384.22 223.161 384.22 223.161C384.22 223.161 402.546 221.535 404.699 220.99C406.851 220.444 405.778 200.39 405.778 200.39C405.778 200.39 405.235 182.489 391.225 183.041Z" fill="#FFE120"/>
<path opacity="0.1" d="M386.639 159.455C385.791 155.162 387.529 153.837 387.986 148.342L359.941 164.606C359.941 164.606 363.154 168.126 366.806 172.646C368.438 173.061 370.116 173.267 371.799 173.259C379.146 173.29 383.164 165.354 386.639 159.455Z" fill="black"/>
<path d="M371.276 172.738C382.29 172.738 391.219 163.757 391.219 152.678C391.219 141.599 382.29 132.618 371.276 132.618C360.262 132.618 351.334 141.599 351.334 152.678C351.334 163.757 360.262 172.738 371.276 172.738Z" fill="#F8BDC5"/>
<path opacity="0.1" d="M376.305 146.588C373.256 148.539 373.214 152.948 375.177 156.002C377.14 159.056 380.524 161.074 383.779 162.975C384.724 163.527 385.767 164.097 386.828 163.974C387.643 163.815 388.399 163.43 389.01 162.864C391.289 161.076 393.463 159.158 395.522 157.118C398.485 154.187 401.332 150.575 400.868 146.484C400.344 141.842 395.784 138.346 393.943 133.949C392.394 130.269 392.857 126.142 391.504 122.383C390.15 118.624 385.407 115.146 381.859 117.115C380.548 117.839 379.756 119.133 378.658 120.108C375.939 122.524 371.555 122.763 367.836 121.659C364.118 120.555 363.014 116.048 357.826 116.036C360.405 116.949 362.148 119.654 361.752 122.119C359.673 123.303 356.942 122.628 354.436 122.585C351.93 122.542 348.949 123.953 349.382 126.222C349.76 128.062 352.4 129.429 352.009 131.269C347.43 133.696 342.437 135.235 337.292 135.807C336.359 135.912 342.895 141.376 343.639 141.738C346.364 143.05 349.638 144.013 352.522 145.018C360.356 147.735 368.379 148.704 376.305 146.588Z" fill="black"/>
<path d="M376.305 146.043C373.256 147.993 373.214 152.402 375.177 155.456C377.14 158.51 380.524 160.528 383.779 162.429C384.724 162.981 385.767 163.551 386.828 163.429C387.643 163.269 388.399 162.884 389.01 162.319C391.289 160.53 393.463 158.612 395.522 156.572C398.485 153.641 401.332 150.029 400.868 145.938C400.344 141.296 395.784 137.8 393.943 133.403C392.394 129.724 392.857 125.596 391.504 121.837C390.15 118.078 385.407 114.601 381.859 116.569C380.548 117.293 379.756 118.587 378.658 119.562C375.939 121.978 371.555 122.217 367.836 121.113C364.118 120.01 363.014 115.502 357.826 115.49C360.405 116.404 362.148 119.108 361.752 121.573C359.673 122.757 356.942 122.082 354.436 122.039C351.93 121.996 348.949 123.407 349.382 125.676C349.76 127.516 352.4 128.883 352.009 130.723C347.43 133.15 342.437 134.69 337.292 135.261C336.359 135.366 342.895 140.83 343.639 141.192C346.364 142.504 349.638 143.467 352.522 144.473C360.356 147.195 368.379 148.146 376.305 146.043Z" fill="#916168"/>
<path opacity="0.1" d="M400.051 343.097C400.917 345.104 401.218 347.313 400.923 349.481C399.307 362.494 375.591 371.166 369.123 372.785C365.715 373.643 362.002 371.638 360.447 369.228C361.447 372.061 365.751 374.851 369.665 373.87C376.134 372.245 399.85 363.567 401.466 350.566C401.819 347.988 401.322 345.364 400.051 343.097Z" fill="white"/>
<path d="M228.766 357.882C228.284 356.791 225.784 354.663 213.731 354.203C205.476 353.89 202.666 349.505 201.904 345.225C204.617 344.869 206.738 344.378 207.433 343.698C207.433 343.698 207.397 343.501 207.336 343.152L207.433 343.078C206.906 339.991 206.631 336.865 206.61 333.732C206.594 331.051 206.877 328.377 207.452 325.76C207.787 324.029 207.928 322.266 207.872 320.504C207.939 310.078 204.3 291.754 204.3 291.754L203.8 276.527C203.75 274.627 203.191 272.776 202.184 271.168C201.177 269.56 199.757 268.254 198.075 267.389C196.878 266.766 195.552 266.434 194.204 266.42C194.204 266.42 175.097 263.391 157.898 261.741C156.678 260.754 152.38 258.092 142.528 259.619L136.858 242.926C136.812 242.724 136.78 242.519 136.761 242.313C136.962 240.191 138.37 236.996 144.936 236.793L146.308 238.02C146.308 238.02 146.552 237.535 146.96 236.793C155.106 236.701 199.477 236.248 201.763 236.793C204.281 237.407 226.339 232.464 226.973 231.851C235.545 223.443 201.763 227.521 201.763 227.521C198.441 228.067 187.704 227.417 176.706 226.515C182.15 218.304 187.272 190.431 187.272 190.431C187.272 190.431 206.781 180.539 201.135 174.976C195.49 169.414 178.45 187.34 178.45 187.34C178.45 187.34 171.518 207.743 168.366 213.925C167.146 216.378 165.567 216.881 164.159 216.599C164.799 216.084 165.214 215.777 165.214 215.777C165.214 215.777 151.35 204.646 150.088 200.323C149.853 199.614 149.542 198.934 149.161 198.293C148.497 194.374 147.332 190.517 144.491 187.947C144.014 187.432 143.487 186.965 142.918 186.555C142.15 186.003 141.278 185.525 140.553 184.924C140.961 183.035 141.437 181.072 141.931 179.171C152.222 177.945 160.221 169.359 160.221 158.933C160.219 157.361 160.033 155.795 159.666 154.267C161.204 154.368 162.742 154.068 164.131 153.396C165.519 152.723 166.712 151.701 167.592 150.428C169.671 147.312 169.603 143.068 167.86 139.781C167.139 138.447 166.194 137.247 165.067 136.237C163.271 134.417 161.08 133.04 158.666 132.214C156.575 131.484 154.264 131.048 152.606 129.619C151.865 128.645 151.191 127.62 150.588 126.553C149.892 125.506 149.073 124.546 148.149 123.695C145.101 120.537 140.797 118.593 136.413 117.734C131.072 116.686 125.555 117.06 120.123 117.434C118.093 117.575 115.709 117.937 114.794 119.715C114.105 121.052 114.556 122.653 114.465 124.143C114.178 128.884 108.789 131.502 104.101 132.649C99.4123 133.796 93.8217 134.789 91.5598 138.947C89.5052 142.7 90.9501 147.251 91.6086 151.464C92.7052 158.862 91.0722 166.407 87.0178 172.677C84.9571 175.847 82.2989 178.668 80.6711 182.072C78.8678 185.866 78.4491 190.178 79.4884 194.251C79.7932 195.441 80.2322 196.655 80.0127 197.87C79.7632 198.871 79.2733 199.795 78.5861 200.562C75.7826 204.044 72.2936 206.906 68.3382 208.967C64.3829 211.028 60.0465 212.244 55.6016 212.539C55.9749 213.784 56.7043 214.891 57.6988 215.722C58.9623 216.978 60.4358 218.002 62.0519 218.745C66.3093 220.893 70.7861 222.569 75.4036 223.743C78.5129 224.534 81.7624 225.098 84.9266 224.559C88.0908 224.019 91.1757 222.198 92.4743 219.315C93.2303 217.647 93.34 215.758 94.0107 214.06C95.3458 210.662 98.6563 208.461 100.894 205.548C100.14 213.054 99.7842 220.596 99.8269 228.14C99.8269 230.501 99.8269 232.629 99.8269 234.604C99.8269 243.122 99.2172 248.997 93.968 259.637C93.3424 260.756 93.0682 262.039 93.1815 263.317C93.0674 264.008 93.1339 264.716 93.3744 265.373C93.6149 266.03 94.0211 266.613 94.5533 267.064C94.1874 269.186 94.0099 271.337 94.0229 273.491C93.9497 281.243 96.553 291.65 110.356 294.287L134.932 293.06C134.932 293.06 169.591 286.259 179.041 291.221C179.821 291.387 180.521 291.818 181.023 292.441C181.526 293.063 181.801 293.841 181.803 294.643C181.774 295.158 181.694 295.67 181.565 296.17C181.302 297.776 181.202 299.406 181.266 301.033C181.224 311.458 183.455 335.118 183.455 335.118V345.151C181.882 347.53 179.943 351.051 180.193 353.645C180.193 353.7 180.193 353.761 180.193 353.816C180.193 353.872 180.193 353.97 180.23 354.043C180.267 354.117 180.23 354.178 180.273 354.246C180.315 354.313 180.309 354.374 180.328 354.442C180.346 354.509 180.376 354.589 180.407 354.657C180.437 354.724 180.449 354.767 180.474 354.822C180.498 354.877 180.553 354.982 180.596 355.055L180.669 355.184C180.742 355.302 180.824 355.415 180.913 355.521C184.065 359.201 199.813 366.321 204.861 366.033C210.22 365.726 228.174 366.646 228.808 358.612C228.889 358.372 228.873 358.111 228.766 357.882Z" fill="url(#paint1_linear)"/>
<path d="M183.968 342.354C183.968 342.354 176.652 351.553 179.7 355.233C182.748 358.912 197.99 365.947 202.868 365.658C208.05 365.352 225.425 366.272 226.035 358.299C226.035 358.299 227.254 354.62 211.403 354.006C195.551 353.393 200.429 336.835 200.429 336.835L183.968 342.354Z" fill="#FF6787"/>
<path opacity="0.1" d="M96.7858 265.084C96.7858 265.084 89.4698 290.227 111.418 294.52L135.195 293.294C135.195 293.294 168.727 286.548 177.872 291.454C177.872 291.454 181.53 292.067 180.31 296.973C179.091 301.879 182.139 334.996 182.139 334.996V346.034C182.139 346.034 202.868 346.034 205.307 343.581C205.307 343.581 203.478 333.769 205.307 325.797C207.136 317.824 202.258 292.681 202.258 292.681L201.777 277.545C201.741 275.675 201.21 273.848 200.24 272.253C199.269 270.658 197.893 269.351 196.253 268.469C195.099 267.854 193.816 267.526 192.51 267.512C192.51 267.512 151.052 260.766 136.42 261.993C121.788 263.219 96.7858 265.084 96.7858 265.084Z" fill="black"/>
<path d="M96.7858 264.47C96.7858 264.47 89.4698 289.614 111.418 293.907L135.195 292.68C135.195 292.68 168.727 285.935 177.872 290.841C177.872 290.841 181.53 291.454 180.31 296.36C179.091 301.266 182.139 334.382 182.139 334.382V345.421C182.139 345.421 202.868 345.421 205.307 342.968C205.307 342.968 203.478 333.156 205.307 325.183C207.136 317.211 202.258 292.067 202.258 292.067L201.777 276.932C201.741 275.062 201.21 273.235 200.24 271.64C199.269 270.044 197.893 268.738 196.253 267.856C195.099 267.24 193.816 266.912 192.51 266.899C192.51 266.899 151.052 260.153 136.42 261.38C121.788 262.606 96.7858 264.47 96.7858 264.47Z" fill="#3D3838"/>
<path d="M159.58 214.796C159.58 214.796 164.458 220.928 167.506 214.796C170.555 208.663 177.261 188.425 177.261 188.425C177.261 188.425 193.722 170.641 199.209 176.16C204.696 181.679 185.796 191.492 185.796 191.492C185.796 191.492 179.09 228.901 172.993 229.514C166.896 230.127 157.751 229.514 157.751 229.514L154.703 222.768L159.58 214.796Z" fill="#F8BDC5"/>
<path opacity="0.05" d="M159.58 214.796C159.58 214.796 164.458 220.928 167.506 214.796C170.555 208.663 177.261 188.425 177.261 188.425C177.261 188.425 193.722 170.641 199.209 176.16C204.696 181.679 185.796 191.492 185.796 191.492C185.796 191.492 179.09 228.901 172.993 229.514C166.896 230.127 157.751 229.514 157.751 229.514L154.703 222.768L159.58 214.796Z" fill="black"/>
<path d="M137.632 184.132C137.632 184.132 148.606 197.011 149.826 201.304C151.045 205.597 164.458 216.635 164.458 216.635C164.458 216.635 154.703 223.994 156.532 227.674C158.361 231.354 143.729 215.409 143.729 215.409L126.658 190.265L137.632 184.132Z" fill="#EB6475"/>
<path opacity="0.1" d="M137.632 184.132C137.632 184.132 148.606 197.011 149.826 201.304C151.045 205.597 164.458 216.635 164.458 216.635C164.458 216.635 154.703 223.994 156.532 227.674C158.361 231.354 143.729 215.409 143.729 215.409L126.658 190.265L137.632 184.132Z" fill="black"/>
<path d="M144.949 169.414C144.949 169.414 139.462 187.199 139.462 193.945C139.462 200.691 116.295 192.105 116.904 188.425C117.514 184.746 130.317 171.254 130.927 165.735C131.536 160.215 144.949 169.414 144.949 169.414Z" fill="#F8BDC5"/>
<path opacity="0.1" d="M126.659 181.679C126.659 181.679 105.32 176.16 102.272 207.436C99.2236 238.713 104.711 242.392 95.5656 261.404C86.4206 280.415 157.752 263.857 157.752 263.857C157.752 263.857 154.094 259.564 142.51 261.404L137.023 244.845C137.023 244.845 135.194 237.486 145.558 237.486C155.923 237.486 151.045 216.022 151.045 216.022C151.045 216.022 145.558 197.624 142.51 195.784C139.462 193.945 133.975 182.906 126.659 181.679Z" fill="black"/>
<path d="M126.659 180.453C126.659 180.453 105.32 174.933 102.272 206.21C99.2236 237.486 104.711 241.166 95.5656 260.177C86.4206 279.188 157.752 262.63 157.752 262.63C157.752 262.63 154.094 258.337 142.51 260.177L137.023 243.619C137.023 243.619 135.194 236.26 145.558 236.26C155.923 236.26 151.045 214.796 151.045 214.796C151.045 214.796 145.558 196.398 142.51 194.558C139.462 192.718 133.975 181.679 126.659 180.453Z" fill="#D40F39"/>
<path d="M147.998 224.608C147.998 224.608 192.503 229.514 199.819 228.287C199.819 228.287 232.498 224.24 224.206 232.58C223.596 233.194 202.258 238.1 199.819 237.486C197.381 236.873 145.559 237.486 145.559 237.486L144.949 231.354L147.998 224.608Z" fill="#F8BDC5"/>
<path opacity="0.1" d="M113.855 209.276L146.168 238.713C146.168 238.713 152.264 226.448 154.093 226.448C155.922 226.448 132.145 190.265 132.145 190.265C132.145 190.265 126.049 182.906 122.391 186.585C118.733 190.265 107.758 187.812 113.855 209.276Z" fill="black"/>
<path d="M113.246 208.05L145.558 237.486C145.558 237.486 151.655 225.221 153.484 225.221C155.313 225.221 131.536 189.038 131.536 189.038C131.536 189.038 125.439 181.679 121.781 185.359C118.123 189.038 107.149 186.585 113.246 208.05Z" fill="#EB6475"/>
<path d="M139.461 180.453C150.572 180.453 159.58 171.392 159.58 160.215C159.58 149.038 150.572 139.978 139.461 139.978C128.349 139.978 119.342 149.038 119.342 160.215C119.342 171.392 128.349 180.453 139.461 180.453Z" fill="#F8BDC5"/>
<path opacity="0.1" d="M157.082 155.131C160.496 156.487 164.678 154.861 166.69 151.777C168.702 148.692 168.641 144.491 166.946 141.216C165.251 137.941 162.118 135.562 158.661 134.323C156.564 133.575 154.229 133.146 152.619 131.6C151.601 130.625 150.997 129.307 150.235 128.117C147.388 123.652 142.31 121.015 137.146 119.979C131.982 118.943 126.641 119.31 121.386 119.678C119.423 119.819 117.118 120.175 116.228 121.941C115.563 123.266 115.996 124.854 115.911 126.332C115.637 131.036 110.424 133.642 105.87 134.771C101.315 135.899 96.0357 136.96 93.8165 141.106C91.829 144.828 93.2495 149.342 93.8653 153.524C94.9183 160.83 93.3444 168.274 89.4269 174.516C87.4333 177.662 84.8666 180.459 83.2875 183.838C81.5408 187.614 81.1362 191.879 82.1413 195.919C82.4401 197.103 82.8608 198.305 82.6535 199.507C82.4145 200.495 81.9419 201.41 81.2756 202.175C78.6037 205.614 75.2442 208.45 71.4143 210.502C67.5843 212.553 63.3691 213.774 59.041 214.084C59.736 216.715 62.2662 218.377 64.6744 219.604C68.7836 221.73 73.1143 223.391 77.5871 224.559C80.5928 225.344 83.7387 225.902 86.7992 225.368C89.8598 224.835 92.841 223.026 94.1152 220.168C94.8468 218.512 94.9566 216.642 95.6028 214.949C97.0599 211.153 100.944 208.859 103.029 205.37C105.022 202.034 105.796 201.641 106.303 197.79C106.809 193.939 107.924 189.781 111.07 187.518C114.362 185.144 118.996 185.598 122.654 187.42C126.312 189.241 128.574 188.53 131.628 191.203C136.986 195.886 142.983 199.772 149.437 202.745C148.827 197.397 147.845 191.43 143.529 188.247C142.31 187.334 140.767 186.635 140.121 185.236C139.09 183.01 140.852 180.293 140.054 177.969C139.255 175.645 136.219 174.786 134.872 172.677C133.725 170.886 134.036 168.451 135.109 166.611C136.182 164.772 137.877 163.41 139.566 162.122C141.066 160.982 142.586 159.868 144.126 158.78C145.518 157.892 146.768 156.796 147.833 155.53C148.443 154.69 148.845 152.85 149.693 152.255C151.826 150.771 155.106 154.352 157.082 155.131Z" fill="black"/>
<path d="M156.47 154.518C159.885 155.873 164.067 154.248 166.079 151.163C168.091 148.079 168.03 143.878 166.335 140.603C164.64 137.328 161.506 134.949 158.05 133.71C155.952 132.962 153.617 132.532 152.008 130.987C150.99 130.012 150.386 128.693 149.624 127.504C146.777 123.039 141.698 120.402 136.534 119.366C131.37 118.329 126.03 118.697 120.774 119.065C118.811 119.206 116.507 119.562 115.617 121.328C114.952 122.653 115.385 124.241 115.3 125.719C115.025 130.423 109.813 133.029 105.258 134.158C100.704 135.286 95.4244 136.347 93.2052 140.493C91.2176 144.215 92.6382 148.729 93.254 152.911C94.3069 160.217 92.7331 167.661 88.8156 173.903C86.822 177.049 84.2552 179.846 82.6762 183.225C80.9295 187.001 80.5248 191.266 81.53 195.306C81.8288 196.49 82.2494 197.692 82.0421 198.894C81.8032 199.882 81.3305 200.797 80.6643 201.561C77.9924 205 74.6329 207.837 70.8029 209.889C66.973 211.94 62.7578 213.161 58.4297 213.471C59.1247 216.102 61.6548 217.764 64.063 218.99C68.1723 221.116 72.5029 222.778 76.9758 223.946C79.9815 224.731 83.1274 225.289 86.1879 224.755C89.2484 224.222 92.2297 222.412 93.5039 219.555C94.2355 217.899 94.3453 216.028 94.9915 214.336C96.4486 210.54 100.332 208.246 102.417 204.757C104.411 201.42 105.185 201.028 105.691 197.177C106.197 193.325 107.313 189.167 110.459 186.904C113.751 184.531 118.384 184.985 122.042 186.806C125.701 188.628 127.962 187.916 131.017 190.59C136.375 195.272 142.372 199.159 148.825 202.132C148.216 196.784 147.234 190.817 142.918 187.634C141.698 186.72 140.156 186.021 139.509 184.623C138.479 182.397 140.241 179.68 139.442 177.356C138.644 175.032 135.608 174.173 134.26 172.063C133.114 170.273 133.425 167.838 134.498 165.998C135.571 164.158 137.266 162.797 138.955 161.509C140.454 160.368 141.975 159.254 143.515 158.167C144.907 157.278 146.157 156.182 147.222 154.917C147.831 154.076 148.234 152.237 149.081 151.642C151.215 150.158 154.495 153.739 156.47 154.518Z" fill="#916168"/>
<g opacity="0.1">
<path opacity="0.1" d="M199.733 341.668C199.779 340.035 200.012 338.414 200.428 336.835L200.123 336.939C199.819 338.496 199.688 340.082 199.733 341.668Z" fill="white"/>
<path opacity="0.1" d="M202.867 364.432C197.989 364.72 182.748 357.686 179.699 354.006C179.299 353.508 179.053 352.902 178.992 352.265C178.903 352.782 178.919 353.312 179.041 353.822C179.163 354.333 179.387 354.813 179.699 355.233C182.748 358.912 197.989 365.947 202.867 365.658C208.049 365.352 225.425 366.272 226.034 358.299C226.08 358.079 226.05 357.85 225.949 357.649C224.553 364.996 207.921 364.131 202.867 364.432Z" fill="white"/>
</g>
<path d="M227.559 181.373H226.949V206.516H227.559V181.373Z" fill="#FFD77C" stroke="#FFAB50" stroke-width="0.25" stroke-miterlimit="10"/>
<path d="M228.168 181.373H227.559V206.516H228.168V181.373Z" fill="#FFD77C" stroke="#FFAB50" stroke-width="0.25" stroke-miterlimit="10"/>
<path d="M228.778 181.373H228.168V206.516H228.778V181.373Z" fill="#FFD77C" stroke="#FFAB50" stroke-width="0.25" stroke-miterlimit="10"/>
<path d="M229.387 181.373H228.777V206.516H229.387V181.373Z" fill="#FFD77C" stroke="#FFAB50" stroke-width="0.25" stroke-miterlimit="10"/>
<path d="M229.998 181.373H229.389V206.516H229.998V181.373Z" fill="#FFD77C" stroke="#FFAB50" stroke-width="0.25" stroke-miterlimit="10"/>
<path d="M230.608 181.373H229.998V206.516H230.608V181.373Z" fill="#FFD77C" stroke="#FFAB50" stroke-width="0.25" stroke-miterlimit="10"/>
<path d="M231.217 181.373H230.607V206.516H231.217V181.373Z" fill="#FFD77C" stroke="#FFAB50" stroke-width="0.25" stroke-miterlimit="10"/>
</g>
<defs>
<linearGradient id="paint0_linear" x1="358.418" y1="375.777" x2="358.418" y2="113.914" gradientUnits="userSpaceOnUse">
<stop stop-color="#808080" stop-opacity="0.25"/>
<stop offset="0.54" stop-color="#808080" stop-opacity="0.12"/>
<stop offset="1" stop-color="#808080" stop-opacity="0.1"/>
</linearGradient>
<linearGradient id="paint1_linear" x1="66139.5" y1="178937" x2="66139.5" y2="77847" gradientUnits="userSpaceOnUse">
<stop stop-color="#808080" stop-opacity="0.25"/>
<stop offset="0.54" stop-color="#808080" stop-opacity="0.12"/>
<stop offset="1" stop-color="#808080" stop-opacity="0.1"/>
</linearGradient>
<clipPath id="clip0">
<rect width="551" height="403" fill="white"/>
</clipPath>
</defs>
</svg>
