<svg width="31" height="31" viewBox="0 0 31 31" fill="none" xmlns="http://www.w3.org/2000/svg">
<path d="M30.5 15.5C30.5 23.7843 23.7843 30.5 15.5 30.5C7.21573 30.5 0.5 23.7843 0.5 15.5C0.5 7.21573 7.21573 0.5 15.5 0.5C23.7843 0.5 30.5 7.21573 30.5 15.5Z" fill="white" stroke="#A3A7A7"/>
<g clip-path="url(#clip0)">
<path d="M16.0475 5.90967C19.9242 5.90967 23.0781 9.06332 23.0781 12.9397C23.0781 14.2493 22.7153 15.5275 22.0287 16.6363L16.4477 25.6291C16.3408 25.8014 16.1525 25.9061 15.9499 25.9061C15.9483 25.9061 15.9468 25.9061 15.9453 25.9061C15.7409 25.9045 15.5522 25.7966 15.4473 25.6213L10.0086 16.5413C9.35981 15.4559 9.01691 14.2105 9.01691 12.9397C9.01691 9.06332 12.1708 5.90967 16.0475 5.90967ZM11.0142 15.9398L15.9588 24.1949L21.0327 16.019C21.6043 15.0961 21.9142 14.0313 21.9142 12.9397C21.9142 9.70938 19.2781 7.07352 16.0475 7.07352C12.817 7.07352 10.1848 9.70938 10.1848 12.9397C10.1848 13.9989 10.4742 15.0365 11.0142 15.9398Z" fill="#3D3838"/>
<path d="M15.9072 9.29541C17.884 9.29541 19.4922 10.9036 19.4922 12.8804C19.4922 14.8446 17.9101 16.4654 15.9072 16.4654C13.8795 16.4654 12.3222 14.823 12.3222 12.8804C12.3222 10.9036 13.9304 9.29541 15.9072 9.29541ZM15.9072 15.2784C17.2319 15.2784 18.3051 14.2016 18.3051 12.8804C18.3051 11.5626 17.225 10.4824 15.9072 10.4824C14.5893 10.4824 13.5132 11.5626 13.5132 12.8804C13.5132 14.1823 14.5614 15.2784 15.9072 15.2784Z" fill="#3D3838"/>
</g>
<defs>
<clipPath id="clip0">
<rect width="20.3947" height="20.3947" fill="white" transform="matrix(-1 0 0 1 26.1055 5.71045)"/>
</clipPath>
</defs>
</svg>
