<svg width="31" height="31" viewBox="0 0 31 31" fill="none" xmlns="http://www.w3.org/2000/svg">
<path d="M30.5 15.5C30.5 23.7843 23.7843 30.5 15.5 30.5C7.21573 30.5 0.5 23.7843 0.5 15.5C0.5 7.21573 7.21573 0.5 15.5 0.5C23.7843 0.5 30.5 7.21573 30.5 15.5Z" fill="white" stroke="#A3A7A7"/>
<path d="M12.7099 7.3704C11.5612 7.41386 10.7788 7.5753 10.0275 7.92302C9.23579 8.28936 8.46274 9.00031 8.05914 9.733C7.7704 10.2577 7.54066 11.0028 7.44752 11.7293C7.37922 12.2632 7.33886 13.7441 7.34196 15.9205C7.34196 18.9412 7.38853 19.9564 7.56239 20.7015C7.93495 22.3004 8.90981 23.4802 10.31 24.0204C11.3159 24.4084 12.0921 24.4736 15.9077 24.4736C19.1054 24.4736 19.9189 24.4364 20.6981 24.2532C22.1325 23.9179 23.2626 23.0735 23.8524 21.8999C24.1008 21.4094 24.2995 20.7015 24.3833 20.0216C24.4485 19.4939 24.4734 18.4538 24.4734 16.4793C24.4734 13.9025 24.433 12.1111 24.3709 11.6827C24.1101 9.94411 23.2439 8.63087 21.912 7.96338C21.1545 7.58462 20.3566 7.42007 19.0123 7.36729C18.1399 7.33314 13.6133 7.33314 12.7099 7.3704ZM19.5091 8.94753C19.8599 8.98479 20.2728 9.04067 20.4249 9.07172C21.1235 9.21453 21.7165 9.55914 22.1014 10.0435C22.3094 10.3073 22.5485 10.7358 22.6478 11.0214C22.7317 11.2667 22.8528 11.9062 22.8962 12.3191C22.9459 12.8003 22.9707 17.6808 22.9273 18.578C22.8838 19.469 22.7907 20.2979 22.6882 20.6426C22.4367 21.5181 21.9648 22.08 21.139 22.4929C20.6671 22.7288 20.102 22.8406 19.0744 22.9058C18.1896 22.9617 13.7468 22.971 13.0266 22.9213C12.2442 22.8655 11.496 22.7692 11.1886 22.6885C10.8161 22.586 10.3876 22.3749 10.1051 22.1514C9.76979 21.8813 9.38792 21.3504 9.22648 20.9282C9.1085 20.6115 8.95017 19.7888 8.91602 19.3045C8.86634 18.5718 8.84771 14.2812 8.88808 13.3747C8.93154 12.4899 9.01847 11.6268 9.1054 11.2636C9.26063 10.6302 9.59283 10.0807 10.0492 9.71747C10.7633 9.14933 11.3842 8.97548 13.098 8.87613C13.2004 8.86992 14.5416 8.86992 16.0784 8.87302C18.7236 8.87923 18.9068 8.88234 19.5091 8.94753Z" fill="#3D3838"/>
<path d="M20.2702 10.2842C19.969 10.3618 19.6803 10.6009 19.5375 10.8927C19.4506 11.0728 19.4412 11.1131 19.4537 11.3335C19.4661 11.6316 19.5468 11.8148 19.7641 12.0259C19.997 12.2556 20.1522 12.3208 20.472 12.3208C20.7887 12.3208 20.9532 12.2525 21.183 12.029C21.5151 11.7061 21.599 11.2777 21.4158 10.8865C21.332 10.7126 21.0712 10.4518 20.8973 10.368C20.7235 10.2811 20.4254 10.2438 20.2702 10.2842Z" fill="#3D3838"/>
<path d="M15.3369 11.5318C13.9088 11.6839 12.6328 12.5718 11.9498 13.8881C11.6548 14.4625 11.5151 14.9903 11.4779 15.6764C11.3909 17.2691 12.0988 18.6816 13.4338 19.5758C14.1975 20.0849 14.9085 20.296 15.874 20.2929C16.6316 20.2929 17.2401 20.1594 17.8362 19.8614C18.752 19.405 19.5561 18.5388 19.9535 17.5764C20.413 16.4681 20.3633 15.0089 19.8293 13.944C19.5499 13.379 18.9787 12.7053 18.4385 12.2986C17.6375 11.6963 16.4856 11.4107 15.3369 11.5318ZM16.3459 13.0654C17.4481 13.23 18.3671 14.0713 18.6558 15.1797C18.721 15.4311 18.7365 15.5584 18.7365 15.8906C18.7396 16.6916 18.4944 17.2939 17.9293 17.8713C17.5102 18.2998 17.0228 18.573 16.4888 18.6816C16.1876 18.7437 15.5853 18.7468 15.2779 18.6879C14.4397 18.5264 13.6325 17.9055 13.263 17.1325C12.8532 16.2818 12.9122 15.1921 13.4121 14.388C13.5704 14.1334 14.0019 13.677 14.2317 13.5218C14.8526 13.1027 15.5698 12.9475 16.3459 13.0654Z" fill="#3D3838"/>
</svg>
