<svg width="12" height="17" viewBox="0 0 12 17" fill="none" xmlns="http://www.w3.org/2000/svg">
<path d="M5.62021 2.55046C7.30721 2.55046 8.6797 3.91771 8.6797 5.59827C8.6797 7.26809 7.32954 8.64608 5.62021 8.64608C3.88979 8.64608 2.56072 7.24974 2.56072 5.59827C2.56072 3.91771 3.9332 2.55046 5.62021 2.55046ZM5.62021 7.63691C6.75076 7.63691 7.66667 6.72145 7.66667 5.59827C7.66667 4.47789 6.74487 3.55962 5.62021 3.55962C4.49554 3.55962 3.57715 4.47789 3.57715 5.59827C3.57715 6.70506 4.47174 7.63691 5.62021 7.63691Z" fill="#3D3838"/>
<path d="M6 0C9.3084 0 12 2.68109 12 5.97656C12 7.09 11.6904 8.1766 11.1044 9.1193L6.34153 16.7646C6.2503 16.911 6.08957 17 5.9167 17H5.91273C5.73837 16.9986 5.5773 16.9069 5.48773 16.7579L0.8463 9.03856C0.292634 8.11577 0 7.05696 0 5.97656C0 2.68109 2.6916 0 6 0ZM1.70447 8.52716L5.92427 15.5452L10.2544 8.5945C10.7422 7.80984 11.0067 6.90459 11.0067 5.97656C11.0067 3.23033 8.757 0.989453 6 0.989453C3.243 0.989453 0.996667 3.23033 0.996667 5.97656C0.996667 6.87706 1.2437 7.75917 1.70447 8.52716Z" fill="#3D3838"/>
</svg>
