<svg width="17" height="16" viewBox="0 0 17 16" fill="none" xmlns="http://www.w3.org/2000/svg">
<path d="M7.94954 0.27481C3.65799 0.681459 0.418017 4.59372 0.886961 8.82148C0.972223 9.6488 1.2138 10.5743 1.51222 11.2193L1.69695 11.626L1.26354 13.7013C0.851435 15.7135 0.84433 15.7836 0.965118 15.9028C1.08591 16.022 1.12854 16.029 1.51222 15.9379C1.73959 15.8818 2.67037 15.6644 3.57983 15.4541C5.17851 15.0755 5.24956 15.0685 5.46271 15.1736C6.52139 15.7205 8.21953 15.9869 9.56242 15.8397C12.3619 15.5172 14.7208 13.8555 15.8932 11.3876C17.975 6.99856 15.5379 1.76119 10.8271 0.51319C10.3085 0.372967 8.74532 0.16263 8.56769 0.204698C8.54637 0.211708 8.26927 0.239754 7.94954 0.27481ZM9.5411 1.9575C13.0369 2.42725 15.4668 5.68747 14.8629 9.08791C14.4295 11.5278 12.6532 13.4068 10.1593 14.0518C9.8111 14.143 9.40611 14.178 8.74532 14.178C7.66533 14.178 6.99033 14.0308 6.00982 13.5821L5.39877 13.3016L4.19799 13.5891C3.54431 13.7434 2.99721 13.8625 2.983 13.8485C2.97589 13.8415 3.07536 13.2876 3.21747 12.6216L3.47326 11.4156L3.17484 10.7846C2.69879 9.775 2.578 9.22813 2.5709 8.0853C2.5709 7.01259 2.65616 6.55686 3.03273 5.65241C3.68641 4.0819 5.14298 2.75678 6.77718 2.23795C7.83585 1.8944 8.56059 1.82429 9.5411 1.9575Z" fill="#3D3838"/>
<path d="M5.82338 4.38997C5.52497 4.57927 5.09155 5.07707 4.92813 5.44165C4.67234 5.99554 4.77892 7.04021 5.16971 7.80443C5.80207 9.02438 7.37232 10.5598 8.72231 11.275C9.54651 11.7027 10.1576 11.8569 10.9391 11.8219C11.6497 11.7938 12.0191 11.6466 12.4099 11.2259C12.9428 10.665 13.092 10.2373 12.8504 9.95687C12.7225 9.81665 11.1594 9.31184 10.8397 9.31184C10.7615 9.31184 10.5199 9.46609 10.3068 9.6624C9.86625 10.055 9.70283 10.0901 9.28362 9.87274C8.72231 9.59229 7.42916 8.45647 6.94601 7.81144C6.71864 7.51697 6.74706 7.22951 7.03838 6.86493C7.18048 6.68965 7.30837 6.48632 7.32969 6.40219C7.37232 6.22691 6.71864 4.6564 6.5197 4.46008C6.32785 4.27078 6.06496 4.24273 5.82338 4.38997Z" fill="#3D3838"/>
</svg>

