<svg width="31" height="31" viewBox="0 0 31 31" fill="none" xmlns="http://www.w3.org/2000/svg">
<path d="M30.5 15.5C30.5 23.7843 23.7843 30.5 15.5 30.5C7.21573 30.5 0.5 23.7843 0.5 15.5C0.5 7.21573 7.21573 0.5 15.5 0.5C23.7843 0.5 30.5 7.21573 30.5 15.5Z" fill="white" stroke="#A3A7A7"/>
<path d="M14.9657 6.61616C9.86957 7.09905 6.02216 11.7448 6.57902 16.7652C6.68027 17.7476 6.96714 18.8466 7.32151 19.6126L7.54088 20.0955L7.0262 22.5599C6.53684 24.9493 6.5284 25.0326 6.67183 25.1741C6.81527 25.3157 6.86589 25.324 7.32151 25.2158C7.5915 25.1492 8.69679 24.8911 9.77676 24.6413C11.6752 24.1917 11.7595 24.1834 12.0127 24.3083C13.2698 24.9577 15.2863 25.274 16.881 25.0992C20.2053 24.7162 23.0065 22.743 24.3986 19.8124C26.8708 14.6005 23.9768 8.3812 18.3828 6.89923C17.7669 6.73272 15.9107 6.48295 15.6998 6.5329C15.6744 6.54123 15.3454 6.57453 14.9657 6.61616ZM16.8557 8.61432C21.0068 9.17215 23.8924 13.0436 23.1752 17.0816C22.6605 19.9789 20.5512 22.2102 17.5897 22.9761C17.1763 23.0844 16.6954 23.126 15.9107 23.126C14.6282 23.126 13.8267 22.9512 12.6623 22.4183L11.9367 22.0853L10.5108 22.4267C9.73458 22.6098 9.0849 22.7514 9.06803 22.7347C9.05959 22.7264 9.17771 22.0686 9.34646 21.2777L9.6502 19.8457L9.29584 19.0964C8.73054 17.8975 8.5871 17.2481 8.57867 15.891C8.57867 14.6172 8.67991 14.076 9.12709 13.002C9.90332 11.137 11.633 9.56345 13.5736 8.94735C14.8307 8.53939 15.6913 8.45614 16.8557 8.61432Z" fill="#3D3838"/>
<path d="M12.4411 11.503C12.0868 11.7278 11.5721 12.319 11.378 12.7519C11.0743 13.4096 11.2008 14.6502 11.6649 15.5577C12.4158 17.0063 14.2805 18.8297 15.8836 19.6789C16.8623 20.1867 17.5879 20.3699 18.516 20.3283C19.3597 20.295 19.7985 20.1201 20.2625 19.6206C20.8953 18.9545 21.0725 18.4467 20.7856 18.1136C20.6338 17.9471 18.7776 17.3477 18.3979 17.3477C18.3051 17.3477 18.0182 17.5308 17.7651 17.764C17.242 18.2302 17.0479 18.2718 16.5501 18.0137C15.8836 17.6807 14.348 16.3319 13.7742 15.566C13.5042 15.2163 13.538 14.8749 13.8839 14.442C14.0527 14.2339 14.2045 13.9924 14.2298 13.8925C14.2805 13.6844 13.5042 11.8194 13.268 11.5863C13.0402 11.3615 12.728 11.3282 12.4411 11.503Z" fill="#3D3838"/>
</svg>
