<svg width="15" height="16" viewBox="0 0 15 16" fill="none" xmlns="http://www.w3.org/2000/svg">
<path d="M4.94244 0.755272C3.97508 0.791874 3.31624 0.927824 2.68353 1.22064C2.01684 1.52914 1.36584 2.12785 1.02596 2.74486C0.782813 3.1867 0.589342 3.81416 0.510908 4.42594C0.453389 4.87562 0.419401 6.12271 0.422016 7.95543C0.422016 10.4993 0.461233 11.3542 0.607643 11.9817C0.92138 13.3281 1.74232 14.3216 2.92145 14.7765C3.76854 15.1033 4.42216 15.1582 7.63534 15.1582C10.3283 15.1582 11.0132 15.1268 11.6695 14.9726C12.8774 14.6902 13.829 13.9791 14.3258 12.9908C14.5349 12.5778 14.7023 11.9817 14.7729 11.4091C14.8278 10.9646 14.8487 10.0888 14.8487 8.42603C14.8487 6.25605 14.8147 4.74752 14.7624 4.38672C14.5428 2.92264 13.8133 1.81673 12.6917 1.25463C12.0538 0.935668 11.3819 0.797103 10.2498 0.752657C9.51515 0.723898 5.70325 0.723898 4.94244 0.755272ZM10.6681 2.08341C10.9636 2.11478 11.3113 2.16184 11.4394 2.18798C12.0277 2.30825 12.527 2.59845 12.8512 3.0063C13.0264 3.22853 13.2277 3.58932 13.3114 3.82985C13.382 4.03639 13.4839 4.57496 13.5205 4.92268C13.5624 5.32792 13.5833 9.43782 13.5467 10.1934C13.5101 10.9437 13.4316 11.6418 13.3454 11.932C13.1336 12.6693 12.7362 13.1425 12.0407 13.4902C11.6433 13.6889 11.1675 13.783 10.3021 13.8379C9.55698 13.885 5.81567 13.8928 5.20911 13.851C4.55027 13.8039 3.92018 13.7229 3.66135 13.6549C3.34761 13.5686 2.98681 13.3908 2.7489 13.2026C2.46653 12.9751 2.14495 12.5281 2.009 12.1725C1.90965 11.9058 1.77631 11.213 1.74755 10.8052C1.70572 10.1882 1.69003 6.57501 1.72402 5.81159C1.76063 5.06648 1.83383 4.33966 1.90704 4.03378C2.03776 3.50043 2.31751 3.03767 2.70184 2.73179C3.30316 2.25334 3.82606 2.10694 5.26925 2.02327C5.35553 2.01804 6.48498 2.01804 7.77914 2.02066C10.0067 2.02589 10.1609 2.0285 10.6681 2.08341Z" fill="#3D3838"/>
<path d="M11.3085 3.20925C11.0549 3.27461 10.8118 3.47592 10.6915 3.72168C10.6183 3.87331 10.6105 3.9073 10.6209 4.09293C10.6314 4.34391 10.6994 4.49816 10.8824 4.67594C11.0785 4.86941 11.2092 4.92432 11.4785 4.92432C11.7452 4.92432 11.8837 4.8668 12.0772 4.67856C12.3569 4.40666 12.4275 4.04587 12.2733 3.71645C12.2027 3.57004 11.9831 3.35043 11.8367 3.27984C11.6903 3.20663 11.4393 3.17526 11.3085 3.20925Z" fill="#3D3838"/>
<path d="M7.15426 4.25972C5.9516 4.38783 4.87705 5.13556 4.30187 6.24408C4.05349 6.72775 3.93584 7.17221 3.90447 7.75C3.83126 9.0912 4.42736 10.2808 5.55158 11.0337C6.19474 11.4625 6.79346 11.6403 7.60656 11.6377C8.24449 11.6377 8.75693 11.5252 9.25891 11.2743C10.0302 10.8899 10.7073 10.1605 11.042 9.35003C11.4289 8.41668 11.3871 7.18789 10.9374 6.29114C10.7021 5.81531 10.221 5.24798 9.76611 4.90549C9.09158 4.39829 8.12161 4.15776 7.15426 4.25972ZM8.00396 5.55126C8.9321 5.68982 9.70598 6.39833 9.94913 7.33169C10.004 7.54346 10.0171 7.65065 10.0171 7.93039C10.0197 8.60492 9.81317 9.11212 9.33734 9.59841C8.98439 9.9592 8.57391 10.1893 8.12423 10.2808C7.87062 10.3331 7.36341 10.3357 7.10458 10.286C6.39867 10.1501 5.71891 9.62716 5.40779 8.97617C5.06268 8.25981 5.11235 7.34215 5.53328 6.66501C5.66662 6.45062 6.03003 6.0663 6.2235 5.93558C6.7464 5.58263 7.35034 5.45191 8.00396 5.55126Z" fill="#3D3838"/>
</svg>
