<svg width="30" height="29" viewBox="0 0 30 29" fill="none" xmlns="http://www.w3.org/2000/svg">
<path d="M28.6947 9.88705L20.4332 9.09223C19.9124 9.04406 19.4624 8.70687 19.2496 8.20108L16.2905 0.903202C15.8171 -0.301067 14.1361 -0.301067 13.6626 0.903202L10.7272 8.20108C10.5378 8.70687 10.0644 9.04406 9.54358 9.09223L1.28183 9.88705C0.0508482 10.0075 -0.446277 11.573 0.476956 12.416L6.70286 17.9797C7.10529 18.341 7.271 18.8709 7.15264 19.4008L5.2825 27.2042C4.99843 28.4328 6.30043 29.4441 7.38937 28.7941L14.2781 24.6752C14.7279 24.4103 15.2724 24.4103 15.7221 24.6752L22.6111 28.7941C23.7001 29.4441 25.002 28.4569 24.7177 27.2042L22.8713 19.4008C22.7529 18.8709 22.9186 18.341 23.3211 17.9797L29.547 12.416C30.4465 11.573 29.9257 10.0075 28.6947 9.88705Z" fill="#FF0036"/>
</svg>
