<svg width="19" height="19" viewBox="0 0 19 19" fill="none" xmlns="http://www.w3.org/2000/svg">
<path d="M12.8636 9.70864C12.8636 10.1954 12.469 10.5893 11.9829 10.5893H9.62209C9.13537 10.5893 8.74141 10.1954 8.74141 9.70864V5.71562C8.74141 5.2289 9.13537 4.83494 9.62209 4.83494C10.1082 4.83494 10.5028 5.2289 10.5028 5.71562V8.82795H11.9829C12.469 8.82795 12.8636 9.22191 12.8636 9.70864ZM19.0008 9.39394C19.0008 14.5735 14.7864 18.7879 9.60683 18.7879C4.42725 18.7879 0.212891 14.5735 0.212891 9.39394C0.212891 4.21436 4.42725 0 9.60683 0C14.7864 0 19.0008 4.21436 19.0008 9.39394ZM17.1778 10.3234H15.7223C15.2361 10.3234 14.8416 9.92939 14.8416 9.44267C14.8416 8.95595 15.2361 8.56199 15.7223 8.56199H17.1924C16.8085 5.03339 14.0091 2.22343 10.4875 1.81597V3.32663C10.4875 3.81335 10.093 4.20731 9.60683 4.20731C9.12069 4.20731 8.72615 3.81335 8.72615 3.32663V1.81597C5.2046 2.22284 2.40579 5.0328 2.0224 8.56199H3.49138C3.97692 8.56199 4.37206 8.95595 4.37206 9.44267C4.37206 9.92939 3.97692 10.3234 3.49138 10.3234H2.03649C2.46274 13.8056 5.23689 16.568 8.72615 16.9713V15.5587C8.72615 15.072 9.12069 14.678 9.60683 14.678C10.093 14.678 10.4875 15.072 10.4875 15.5587V16.9713C13.9768 16.5691 16.7521 13.8056 17.1778 10.3234Z" fill="#3D3838"/>
</svg>
