<svg width="39" height="39" viewBox="0 0 39 39" fill="none" xmlns="http://www.w3.org/2000/svg">
<path d="M37.5952 19.2859C37.5952 29.5295 29.2912 37.8335 19.0476 37.8335C8.80405 37.8335 0.5 29.5295 0.5 19.2859C0.5 9.04233 8.80405 0.738281 19.0476 0.738281C29.2912 0.738281 37.5952 9.04233 37.5952 19.2859Z" fill="white" stroke="#A3A7A7"/>
<path d="M29.6298 12.8233C28.8514 13.1685 28.014 13.4019 27.1358 13.5062C28.0325 12.969 28.7206 12.119 29.0454 11.1044C28.2063 11.6022 27.2767 11.9632 26.2881 12.1578C25.496 11.3143 24.3675 10.7871 23.1179 10.7871C20.7203 10.7871 18.7758 12.7316 18.7758 15.1292C18.7758 15.4695 18.8144 15.8008 18.8888 16.1188C15.2802 15.9377 12.0806 14.2092 9.93886 11.5814C9.56518 12.2226 9.35081 12.969 9.35081 13.7646C9.35081 15.2707 10.1179 16.6003 11.2824 17.3787C10.571 17.3564 9.90098 17.1611 9.31584 16.835C9.31552 16.8535 9.31552 16.872 9.31552 16.8901C9.31552 18.9939 10.8128 20.7487 12.7988 21.1473C12.4348 21.247 12.0505 21.2998 11.6551 21.2998C11.3747 21.2998 11.103 21.2729 10.8381 21.2224C11.3905 22.9471 12.9938 24.2025 14.8942 24.2378C13.4079 25.4026 11.5359 26.0965 9.50106 26.0965C9.15134 26.0965 8.80486 26.0761 8.46582 26.0356C10.3864 27.2681 12.6693 27.9866 15.1212 27.9866C23.1078 27.9866 27.4755 21.3704 27.4755 15.6321C27.4755 15.4439 27.4713 15.2564 27.4629 15.0706C28.3119 14.4585 29.0479 13.694 29.6298 12.8233Z" fill="#55ACEE"/>
</svg>
