<svg width="512" height="512" viewBox="0 0 512 512" fill="none" xmlns="http://www.w3.org/2000/svg">
<g clip-path="url(#clip0)">
<path d="M511.999 192.506C511.999 182.058 503.498 173.557 493.051 173.557H445.835C441.693 173.557 438.335 176.915 438.335 181.057C438.335 185.199 441.693 188.557 445.835 188.557H493.051C495.228 188.557 497 190.328 497 192.506V452.454L393.544 325.249C389.93 320.806 384.572 318.257 378.844 318.257H291.448C287.306 318.257 283.948 321.615 283.948 325.757C283.948 329.899 287.306 333.257 291.448 333.257H378.843C380.037 333.257 381.153 333.788 381.906 334.714L488.733 466.063H120.564C119.37 466.063 118.253 465.532 117.5 464.605L15.9113 339.697C14.4913 337.95 15.0873 336.187 15.4093 335.51C15.7313 334.832 16.7242 333.257 18.9752 333.257H254.421C258.563 333.257 261.921 329.899 261.921 325.757C261.921 321.615 258.563 318.257 254.421 318.257H122.621V260.786C123.685 260.815 124.752 260.833 125.823 260.833H213.962C220.253 260.833 225.874 257.078 228.281 251.266C230.688 245.453 229.37 238.825 224.921 234.376L212.238 221.693C229.829 201.698 239.803 176.555 240.699 149.831H265.428C266.483 149.831 267.475 150.242 268.22 150.987L289.264 172.031C287.591 176.142 286.66 180.632 286.66 185.337C286.66 204.864 302.545 220.75 322.072 220.75C340.512 220.75 355.699 206.579 357.332 188.557H408.808C412.95 188.557 416.308 185.199 416.308 181.057C416.308 176.915 412.95 173.557 408.808 173.557H355.463C350.597 159.806 337.47 149.925 322.073 149.925C312.744 149.925 304.251 153.557 297.919 159.475L278.827 140.381C275.248 136.803 270.49 134.832 265.428 134.832H240.227C238.388 115.561 231.765 97.1579 220.763 81.0711C218.424 77.6521 213.757 76.7761 210.338 79.1141C206.919 81.4521 206.043 86.12 208.381 89.539C219.758 106.174 225.772 125.659 225.772 145.884C225.772 172.581 215.375 197.681 196.497 216.559C193.569 219.488 193.569 224.237 196.497 227.165L214.314 244.981C214.44 245.107 214.55 245.217 214.422 245.525C214.295 245.833 214.14 245.833 213.962 245.833H125.823C70.7117 245.833 25.8752 200.997 25.8742 145.885C25.8742 119.215 36.2771 94.123 55.1689 75.2311C74.0607 56.3393 99.1524 45.9354 125.823 45.9354C146.998 45.9354 167.233 52.4784 184.34 64.8542C187.697 67.2832 192.386 66.5302 194.813 63.1743C197.24 59.8183 196.488 55.1293 193.133 52.7014C173.452 38.4615 150.176 30.9346 125.823 30.9346C95.1455 30.9346 66.2868 42.8985 44.562 64.6232C22.8382 86.349 10.8743 115.209 10.8743 145.885C10.8743 203.075 52.8579 250.636 107.621 259.387V318.257H18.9752C11.5923 318.257 5.03536 322.399 1.86339 329.067C-1.30758 335.734 -0.384586 343.434 4.27437 349.161L105.863 474.071C109.477 478.515 114.836 481.064 120.564 481.064H504.499C508.53 481.114 512.064 477.597 511.998 473.56V192.506H511.999ZM322.073 164.925C333.328 164.925 342.486 174.082 342.486 185.338C342.486 196.594 333.329 205.751 322.073 205.751C310.817 205.751 301.66 196.594 301.66 185.338C301.66 174.082 310.817 164.925 322.073 164.925Z" fill="#A3A7A7"/>
<path d="M276.72 406.465L302.608 440.482C305.897 444.804 311.103 447.384 316.534 447.384H417.551C422.335 447.384 426.626 444.721 428.751 440.435C430.876 436.149 430.396 431.121 427.499 427.313L401.61 393.296C398.321 388.975 393.115 386.395 387.685 386.395H286.667C281.883 386.395 277.591 389.058 275.467 393.344C273.343 397.632 273.823 402.659 276.72 406.465V406.465ZM387.685 401.395C388.461 401.395 389.205 401.764 389.674 402.381L412.507 432.384H316.534C315.758 432.384 315.014 432.015 314.545 431.398L291.711 401.395H387.685Z" fill="#A3A7A7"/>
<path d="M202.617 439.883C202.617 444.025 205.975 447.383 210.117 447.383H256.004C260.146 447.383 263.504 444.025 263.504 439.883C263.504 435.741 260.146 432.383 256.004 432.383H210.117C205.975 432.383 202.617 435.741 202.617 439.883Z" fill="#A3A7A7"/>
<path d="M239.258 422.507C243.4 422.507 246.758 419.149 246.758 415.007C246.758 410.865 243.4 407.507 239.258 407.507H219.781C215.639 407.507 212.281 410.865 212.281 415.007C212.281 419.149 215.639 422.507 219.781 422.507H239.258Z" fill="#A3A7A7"/>
<path d="M178.917 115.292C178.917 109.282 176.576 103.631 172.327 99.3829C168.078 95.133 162.428 92.792 156.418 92.792C150.408 92.792 144.757 95.133 140.508 99.3829L125.823 114.068L111.14 99.3819C106.89 95.132 101.24 92.792 95.2302 92.792C89.2203 92.792 83.5694 95.133 79.3204 99.3819C75.0704 103.632 72.7305 109.282 72.7305 115.292C72.7305 121.302 75.0704 126.952 79.3204 131.202L94.0043 145.886L79.3204 160.57C75.0704 164.82 72.7305 170.47 72.7305 176.48C72.7305 182.49 75.0714 188.141 79.3204 192.389C83.5704 196.639 89.2203 198.98 95.2302 198.98C101.24 198.98 106.891 196.639 111.14 192.39L125.824 177.705L140.509 192.39C144.759 196.64 150.409 198.98 156.419 198.98C162.429 198.98 168.079 196.64 172.328 192.39C176.578 188.14 178.918 182.49 178.918 176.48C178.918 170.47 176.578 164.82 172.328 160.57L157.644 145.885L172.328 131.201C176.577 126.952 178.917 121.302 178.917 115.292V115.292ZM161.721 120.595L141.733 140.583C138.804 143.511 138.804 148.26 141.733 151.188L161.721 171.176C163.138 172.593 163.918 174.476 163.918 176.479C163.918 178.482 163.138 180.366 161.721 181.782C160.304 183.198 158.421 183.979 156.418 183.979C154.415 183.979 152.531 183.199 151.115 181.782L131.127 161.794C129.721 160.387 127.813 159.597 125.824 159.597C123.835 159.597 121.927 160.387 120.521 161.794L100.533 181.782C99.1172 183.198 97.2342 183.978 95.2302 183.978C93.2263 183.978 91.3433 183.198 89.9273 181.781C88.5103 180.365 87.7303 178.482 87.7303 176.478C87.7303 174.475 88.5103 172.591 89.9273 171.175L109.914 151.187C112.843 148.258 112.843 143.509 109.914 140.582L89.9273 120.594C88.5103 119.177 87.7303 117.294 87.7303 115.291C87.7303 113.288 88.5103 111.404 89.9273 109.988C91.3433 108.571 93.2263 107.791 95.2302 107.791C97.2342 107.791 99.1172 108.571 100.533 109.988L120.52 129.976C121.926 131.383 123.834 132.173 125.823 132.173C127.812 132.173 129.72 131.383 131.126 129.976L151.114 109.988C152.531 108.571 154.413 107.791 156.417 107.791C158.421 107.791 160.303 108.571 161.72 109.989C163.137 111.405 163.917 113.288 163.917 115.292C163.918 117.295 163.138 119.178 161.721 120.595V120.595Z" fill="#A3A7A7"/>
<path d="M419.826 159.37C436.107 159.37 449.353 146.124 449.353 129.843C449.353 113.562 436.107 100.316 419.826 100.316C403.545 100.316 390.299 113.562 390.299 129.843C390.299 146.124 403.545 159.37 419.826 159.37ZM419.826 115.316C427.836 115.316 434.353 121.833 434.353 129.843C434.353 137.853 427.836 144.37 419.826 144.37C411.816 144.37 405.299 137.853 405.299 129.843C405.299 121.833 411.816 115.316 419.826 115.316V115.316Z" fill="#A3A7A7"/>
<path d="M344.227 104.246C345.691 105.71 347.611 106.443 349.53 106.443C351.449 106.443 353.369 105.711 354.833 104.246L358.891 100.188L362.949 104.246C364.413 105.711 366.333 106.443 368.252 106.443C370.171 106.443 372.091 105.711 373.555 104.246C376.484 101.317 376.484 96.5694 373.555 93.6404L369.497 89.5824L373.555 85.5244C376.484 82.5954 376.484 77.8464 373.555 74.9184C370.626 71.9894 365.877 71.9894 362.949 74.9184L358.891 78.9764L354.833 74.9184C351.904 71.9894 347.155 71.9894 344.227 74.9184C341.298 77.8474 341.298 82.5954 344.227 85.5244L348.285 89.5824L344.227 93.6404C341.297 96.5694 341.297 101.318 344.227 104.246V104.246Z" fill="#A3A7A7"/>
<path d="M28.3166 295.19C29.7806 296.654 31.7006 297.387 33.6196 297.387C35.5386 297.387 37.4586 296.655 38.9226 295.19L45.9876 288.125L53.0526 295.19C54.5166 296.654 56.4366 297.387 58.3556 297.387C60.2746 297.387 62.1946 296.655 63.6586 295.19C66.5876 292.261 66.5876 287.512 63.6586 284.584L56.5936 277.519L63.6586 270.454C66.5876 267.525 66.5876 262.776 63.6586 259.848C60.7296 256.919 55.9806 256.919 53.0526 259.848L45.9876 266.913L38.9226 259.848C35.9936 256.919 31.2446 256.919 28.3166 259.848C25.3876 262.777 25.3876 267.526 28.3166 270.454L35.3816 277.519L28.3166 284.584C25.3866 287.512 25.3866 292.261 28.3166 295.19V295.19Z" fill="#A3A7A7"/>
</g>
<defs>
<clipPath id="clip0">
<rect width="512" height="512" fill="white"/>
</clipPath>
</defs>
</svg>
