<svg width="35" height="35" viewBox="0 0 35 35" fill="none" xmlns="http://www.w3.org/2000/svg">
<path d="M30.9305 28.4492L27.0321 8.65868H20.7399C20.9497 8.20686 21.0678 7.70378 21.0678 7.17373C21.0678 5.63217 20.076 4.31839 18.6971 3.8348C18.884 3.14854 19.3166 2.25506 20.315 1.97868L19.7671 0C17.5577 0.611763 16.8434 2.59018 16.6129 3.75736C15.1056 4.16218 13.992 5.54031 13.992 7.17373C13.992 7.70405 14.1101 8.20686 14.32 8.65868H8.02742L4.12933 28.4492H1.43555V35H33.624V28.4492H30.9305ZM16.045 7.17373C16.045 6.35502 16.7112 5.68905 17.5299 5.68905C18.3486 5.68905 19.0146 6.35529 19.0146 7.17373C19.0146 7.99244 18.3486 8.65868 17.5299 8.65868C16.7112 8.65868 16.045 7.99244 16.045 7.17373ZM25.3442 10.7116L26.0406 14.2471H25.701C24.0395 14.2471 22.6878 15.5985 22.6878 17.2599V22.9538C22.6878 23.5453 22.2069 24.0265 21.6154 24.0265C21.024 24.0265 20.5428 23.5453 20.5428 22.9538V17.2599C20.5428 15.5985 19.1911 14.2471 17.5299 14.2471C15.8685 14.2471 14.5168 15.5985 14.5168 17.2599V19.1137C14.5168 19.7051 14.0356 20.1863 13.4444 20.1863C12.8529 20.1863 12.3717 19.7051 12.3717 19.1137V17.2599C12.3717 15.5985 11.02 14.2471 9.35856 14.2471H9.01917L9.71558 10.7116H25.3442ZM8.61488 16.3H9.35883C9.88808 16.3 10.3188 16.7307 10.3188 17.2599V19.1137C10.3188 20.8371 11.721 22.239 13.4444 22.239C15.1678 22.239 16.5697 20.8371 16.5697 19.1137V17.2599C16.5697 16.7307 17.0004 16.3 17.5299 16.3C18.0592 16.3 18.4899 16.7307 18.4899 17.2599V22.9538C18.4899 24.6772 19.892 26.0794 21.6154 26.0794C23.3389 26.0794 24.741 24.6772 24.741 22.9538V17.2599C24.741 16.7307 25.1717 16.3 25.701 16.3H26.4449L28.838 28.4492H6.22177L8.61488 16.3ZM31.5714 32.9471H3.48846V30.5022H31.5714V32.9471Z" fill="#A3A7A7"/>
</svg>
