<svg width="34" height="34" viewBox="0 0 34 34" fill="none" xmlns="http://www.w3.org/2000/svg">
<path d="M7.71189 9.47033C7.94189 9.33314 8.01714 9.03557 7.87996 8.80556C7.64323 8.4085 7.54245 8.02766 7.58053 7.67352C7.60748 7.42276 7.69294 7.26011 7.81131 7.03507C7.92748 6.81417 8.0591 6.56379 8.14016 6.20752C8.28588 5.56687 8.19557 4.86758 7.87169 4.12912C7.76418 3.88391 7.47832 3.77233 7.23292 3.8799C6.98772 3.98748 6.87608 4.27341 6.98371 4.51868C7.22232 5.06282 7.2933 5.55866 7.19465 5.99244C7.14184 6.22491 7.05437 6.39118 6.95314 6.58377C6.81719 6.84229 6.6632 7.13521 6.61646 7.56996C6.55544 8.13782 6.70037 8.72061 7.0472 9.30224C7.1856 9.53452 7.48511 9.60557 7.71189 9.47033V9.47033ZM27.6741 12.5588C27.9041 12.4216 27.9793 12.124 27.8421 11.894C27.6054 11.497 27.5047 11.1162 27.5428 10.762C27.5697 10.5112 27.6552 10.3485 27.7735 10.1235C27.8897 9.90256 28.0213 9.65224 28.1024 9.29597C28.2481 8.65532 28.1578 7.95603 27.8339 7.21763C27.7264 6.97243 27.4406 6.86091 27.1952 6.96835C26.95 7.07593 26.8383 7.36193 26.9459 7.60713C27.1846 8.15133 27.2555 8.64717 27.157 9.08089C27.104 9.31343 27.0165 9.4797 26.9154 9.67228C26.7794 9.93081 26.6254 10.2238 26.5787 10.6585C26.5177 11.2264 26.6625 11.8093 27.0094 12.3908C27.1478 12.623 27.4473 12.694 27.6741 12.5588V12.5588ZM29.9256 17.9554C30.1556 17.8182 30.2309 17.5206 30.0937 17.2906C29.857 16.8936 29.7562 16.5128 29.7942 16.1586C29.8212 15.9079 29.9067 15.7452 30.025 15.5201C30.1412 15.2992 30.2728 15.0489 30.3538 14.6926C30.4997 14.0521 30.4093 13.3528 30.0855 12.6142C29.978 12.369 29.6919 12.2574 29.4468 12.3649C29.2015 12.4725 29.0899 12.7584 29.1975 13.0037C29.4361 13.5479 29.5071 14.0438 29.4084 14.4775C29.3556 14.71 29.268 14.8763 29.1669 15.0689C29.0309 15.3274 28.8769 15.6203 28.8302 16.055C28.7692 16.6229 28.9142 17.2057 29.2609 17.7873C29.3993 18.0196 29.6988 18.0906 29.9256 17.9554ZM4.80282 5.63132C5.03283 5.49414 5.10808 5.19657 4.9709 4.96656C4.73417 4.56949 4.63339 4.18866 4.67146 3.83452C4.69842 3.58382 4.78388 3.42117 4.90225 3.19607C5.01842 2.97517 5.15004 2.72479 5.2311 2.36852C5.37681 1.72787 5.28644 1.02858 4.96263 0.29018C4.85512 0.044974 4.56919 -0.0665423 4.32386 0.0409012C4.07866 0.148474 3.96702 0.434473 4.07465 0.679679C4.31326 1.22381 4.38424 1.71972 4.28559 2.1535C4.23278 2.38597 4.14525 2.55231 4.04408 2.74489C3.90813 3.00335 3.75414 3.29633 3.7074 3.73102C3.64638 4.29888 3.79131 4.88167 4.13814 5.4633C4.27654 5.69552 4.57605 5.76656 4.80282 5.63132V5.63132ZM26.7466 23.9904C26.0807 23.3794 25.1006 23.1926 24.3849 23.0561C23.967 22.9764 23.657 22.9367 23.3088 22.8817C22.4484 22.7457 21.5674 22.5504 20.9504 22.0463C20.4056 21.6012 20.2553 21.1504 20.1061 20.6321C20.0104 20.2993 19.7249 20.071 19.3788 20.0504C19.0323 20.0297 18.7207 20.2233 18.5858 20.5433C18.1768 21.514 17.8255 22.975 18.4748 24.4224C19.0133 25.6229 20.0905 26.4531 21.5901 26.8232C22.1869 26.9706 22.7895 27.0285 23.3451 27.0285C23.9973 27.0285 24.5848 26.9486 25.0211 26.8394C26.3685 26.5023 27.135 26.0032 27.2993 25.3562C27.38 25.0384 27.3496 24.5436 26.7466 23.9904V23.9904ZM26.3595 25.1176C26.3232 25.2606 25.9476 25.608 24.7857 25.8987C24.0907 26.0725 22.9474 26.1594 21.8224 25.8818C20.9861 25.6753 19.8799 25.1857 19.3594 24.0255C18.9345 23.0779 19.0716 22.0928 19.3243 21.3315C19.5399 21.8291 19.6569 22.2418 20.3368 22.7973C21.1322 23.4472 22.1624 23.6823 23.1573 23.8395C23.5076 23.8948 24.2033 24.0086 24.2033 24.0086C24.8047 24.1233 25.6283 24.2803 26.0911 24.7049C26.3145 24.9099 26.3753 25.0553 26.3595 25.1176V25.1176ZM32.9934 28.308C32.8681 28.1103 32.6531 27.9922 32.4187 27.9922H29.4027C30.0347 27.1863 30.3759 26.3455 30.4176 25.4821C30.467 24.4628 30.0843 23.4184 29.2801 22.378C29.1164 22.1661 28.8119 22.1273 28.6 22.2909C28.3881 22.4546 28.3492 22.7592 28.5129 22.971C29.1719 23.8237 29.4869 24.6528 29.449 25.4352C29.4073 26.2972 28.9531 27.1566 28.0999 27.9922H12.4595C12.1916 27.9922 11.9746 28.2093 11.9746 28.477C11.9746 28.7448 12.1916 28.9619 12.4595 28.9619H31.9609L30.8614 31.2912C30.6211 31.8005 30.0991 32.1296 29.5317 32.1296H3.56777C3.00031 32.1296 2.47829 31.8005 2.238 31.2912L1.13851 28.9619H7.0291H7.02968H7.03007H10.1969C10.4647 28.9619 10.6817 28.7448 10.6817 28.477C10.6817 28.2093 10.4647 27.9922 10.1969 27.9922H7.27262C6.82462 27.3675 6.55266 26.7154 6.46467 26.0507C6.36027 25.2606 6.51303 24.4293 6.91668 23.5708C7.10402 23.8614 7.32201 24.134 7.57025 24.3822C8.49623 25.3082 9.72457 25.8169 11.0328 25.8168C11.0445 25.8168 11.0563 25.8168 11.068 25.8167C12.3891 25.8075 13.6242 25.2804 14.546 24.3326C15.4459 23.4072 15.939 22.1886 15.9344 20.9014C15.9295 19.531 15.3539 18.2341 14.3418 17.3074C17.7302 16.2102 21.568 17.8028 23.962 19.309C24.9248 19.9148 26.2457 20.8061 26.9982 21.4371C27.2024 21.6084 27.5085 21.5832 27.6813 21.3772C27.8533 21.172 27.8265 20.8662 27.6213 20.6941C27.084 20.2436 26.4827 19.7976 25.7501 19.3072C26.2069 17.639 25.7416 15.8165 24.5135 14.571C23.6807 13.7264 22.5715 13.213 21.3902 13.1252C20.1609 13.0341 19.0144 12.5753 18.0746 11.7985L16.6533 10.6241C16.1879 10.2392 15.6096 10.0815 15.0526 10.1437L14.5736 9.66433C14.9722 8.9439 14.8311 8.01984 14.215 7.45269C13.5173 6.80997 12.4312 6.81766 11.7421 7.4704C11.5169 7.684 11.3511 7.9495 11.2591 8.24281C10.9649 8.33499 10.6992 8.50101 10.4865 8.72611C9.83363 9.41525 9.82593 10.5017 10.469 11.1996C11.0356 11.8144 11.959 11.9554 12.6805 11.5577L13.1618 12.039C13.0991 12.6109 13.2711 13.1914 13.6394 13.6371L14.8762 15.1338C15.1154 15.423 15.3233 15.7322 15.4983 16.0575C14.7744 16.1683 14.059 16.3541 13.3634 16.6113C12.7607 16.2852 12.0924 16.0859 11.3986 16.0343C10.1691 15.9431 9.02264 15.4844 8.08321 14.7079L6.66159 13.5328C6.19614 13.148 5.61781 12.9905 5.06083 13.0527L4.58193 12.5734C4.98028 11.8532 4.83954 10.9292 4.22373 10.3616C3.52549 9.71915 2.43925 9.72691 1.75044 10.3795C1.52528 10.5931 1.35947 10.8586 1.26735 11.152C0.974113 11.244 0.708483 11.4098 0.494764 11.6352C-0.158094 12.3244 -0.165787 13.4108 0.477245 14.1087C1.04419 14.7237 1.96759 14.8649 2.68891 14.4669L3.168 14.946C3.10587 15.5029 3.26341 16.0811 3.64806 16.5464L4.88473 18.0426C5.63268 18.9475 6.0799 20.0681 6.14397 21.198C6.16918 21.6419 6.25458 22.0761 6.39473 22.4902C5.64645 23.7483 5.34611 24.9878 5.50333 26.1778C5.58569 26.7999 5.79333 27.4072 6.1227 27.9922H0.68075C0.44628 27.9922 0.231397 28.1103 0.105984 28.308C-0.0190407 28.5052 -0.0341678 28.749 0.0654514 28.9603L1.36108 31.705C1.76079 32.552 2.62691 33.0992 3.56777 33.0992H29.5317C30.4725 33.0992 31.3386 32.552 31.7383 31.7051L33.034 28.9601C33.1336 28.7491 33.1184 28.5053 32.9934 28.308ZM13.7758 10.76C13.6873 10.8483 13.6081 10.9434 13.5374 11.0435L13.2499 10.7559C12.9892 10.4971 12.5794 10.461 12.277 10.6689C11.9344 10.9025 11.4635 10.8481 11.1819 10.5425C10.8832 10.2183 10.8869 9.7134 11.1907 9.39268C11.2994 9.27774 11.4372 9.19609 11.5892 9.15672C11.8753 9.08283 12.0988 8.85928 12.1726 8.57354C12.2119 8.42175 12.2937 8.28366 12.409 8.17434C12.729 7.87121 13.2337 7.86747 13.5579 8.16613C13.864 8.44787 13.9185 8.91843 13.6842 9.26106C13.4755 9.56704 13.5133 9.97722 13.7728 10.2351L14.0592 10.5217C13.9598 10.592 13.8648 10.6711 13.7758 10.76V10.76ZM14.3869 13.0196C14.2138 12.8099 14.1184 12.5451 14.1184 12.2739C14.1184 11.9607 14.2401 11.6668 14.4612 11.4461C14.6119 11.2955 14.7931 11.1949 14.9847 11.143C15.0021 11.1396 15.0193 11.1349 15.0363 11.1296C15.3773 11.0537 15.7462 11.1323 16.0354 11.3716L17.4569 12.5462C18.5523 13.4516 19.8877 13.9863 21.3183 14.0924C22.2655 14.1627 23.1551 14.5745 23.823 15.252C24.7338 16.1756 25.1214 17.4945 24.8854 18.7452C23.0494 17.5738 20.1549 15.7342 16.5268 15.9498C16.2902 15.4382 15.988 14.9569 15.6234 14.516L14.3869 13.0196ZM3.7842 13.6692C3.69525 13.7582 3.61606 13.8533 3.54585 13.9526L3.25831 13.665C2.99766 13.4062 2.5878 13.3701 2.28519 13.5782C1.94289 13.8118 1.47208 13.7574 1.19022 13.4517C0.891495 13.1274 0.89518 12.6225 1.19843 12.3025C1.30788 12.187 1.44603 12.1051 1.59756 12.0659C1.88355 11.992 2.10709 11.7685 2.18086 11.4828C2.22023 11.3309 2.30207 11.1928 2.41739 11.0834C2.73746 10.7801 3.2424 10.7766 3.56667 11.0751C3.87251 11.3569 3.92674 11.8275 3.69247 12.1701C3.48444 12.4752 3.5218 12.8849 3.7811 13.1442L4.06748 13.4308C3.96818 13.5011 3.87315 13.5802 3.7842 13.6692V13.6692ZM5.6321 17.4249L4.39536 15.9287C4.00445 15.4565 4.04492 14.7799 4.4699 14.3549C4.89482 13.9299 5.57612 13.8926 6.04364 14.2803L7.46526 15.4554C8.56036 16.3607 9.89575 16.8953 11.3267 17.0015C12.2737 17.0718 13.1631 17.4836 13.8311 18.161C14.5583 18.8984 14.9609 19.8729 14.9646 20.9049C14.9683 21.9369 14.5727 22.9142 13.8508 23.6565C13.1114 24.4169 12.1207 24.8397 11.0612 24.8471C11.0517 24.8472 11.0424 24.8472 11.0329 24.8472C9.9838 24.8472 8.99847 24.4392 8.25594 23.6966H8.25588C7.5729 23.0136 7.16653 22.1068 7.11197 21.1432C7.03634 19.8084 6.51077 18.4879 5.6321 17.4249V17.4249Z" fill="#FF0036"/>
</svg>
