<svg width="41" height="41" viewBox="0 0 41 41" fill="none" xmlns="http://www.w3.org/2000/svg">
<path d="M19.2188 11.6984V17.9375H9.60938C9.43947 17.9375 9.27653 18.005 9.15638 18.1251C9.03624 18.2453 8.96875 18.4082 8.96875 18.5781V20.9894L7.75517 23.4166C7.71066 23.5056 7.68749 23.6037 7.6875 23.7031V36.5156C7.68749 36.6151 7.71066 36.7132 7.75517 36.8021L9.03642 39.3646C9.08962 39.471 9.17141 39.5605 9.2726 39.6231C9.3738 39.6856 9.49041 39.7187 9.60938 39.7188H19.8594C19.9783 39.7187 20.095 39.6856 20.1961 39.6231C20.2973 39.5605 20.3791 39.471 20.4323 39.3646L20.4442 39.3406C20.9744 39.666 21.6049 39.787 22.2179 39.681C22.8308 39.5751 23.3842 39.2493 23.7743 38.7649C24.362 39.3465 25.2605 39.7188 26.2656 39.7188C27.2708 39.7188 28.1692 39.3465 28.7569 38.7652C29.0896 39.1778 29.5421 39.477 30.0521 39.6216C30.562 39.7662 31.1042 39.7491 31.604 39.5726C32.1038 39.3961 32.5365 39.0689 32.8425 38.6361C33.1485 38.2033 33.3127 37.6863 33.3125 37.1562C33.3125 37.1429 33.3125 37.1296 33.3112 37.1162L32.6748 26.9317L33.306 22.5124C33.3101 22.4824 33.312 22.4521 33.3117 22.4219H33.3125V11.6984C33.3135 11.041 33.1113 10.3994 32.7335 9.86146L29.4179 5.125H29.4688C29.6387 5.125 29.8016 5.05751 29.9217 4.93737C30.0419 4.81722 30.1094 4.65428 30.1094 4.48438V3.20312C30.1088 2.69359 29.9061 2.20508 29.5458 1.84479C29.1855 1.48449 28.697 1.28182 28.1875 1.28125H24.3438C23.8342 1.28182 23.3457 1.48449 22.9854 1.84479C22.6251 2.20508 22.4224 2.69359 22.4219 3.20312V4.48438C22.4219 4.65428 22.4894 4.81722 22.6095 4.93737C22.7296 5.05751 22.8926 5.125 23.0625 5.125H23.1134L19.7981 9.86146C19.4202 10.3994 19.2178 11.041 19.2188 11.6984V11.6984ZM8.96875 35.875V24.3438H14.1649C14.7984 25.9797 15.375 27.7103 15.375 29.4688C15.375 32.3355 14.4981 34.0172 13.4479 35.875H8.96875ZM15.5359 24.3438H16.7274C17.3609 25.9797 17.9375 27.7103 17.9375 29.4688C17.9375 32.3355 17.0606 34.0172 16.0104 35.875H14.9147C15.8641 34.1373 16.6562 32.3171 16.6562 29.4688C16.6562 27.6684 16.1409 25.9588 15.5359 24.3438V24.3438ZM19.4635 38.4375H10.0053L9.36466 37.1562H20.1041L19.4635 38.4375ZM30.75 38.4375C30.4103 38.4371 30.0847 38.302 29.8445 38.0618C29.6043 37.8216 29.4692 37.4959 29.4688 37.1562C29.4688 36.9863 29.4013 36.8234 29.2811 36.7033C29.161 36.5831 28.998 36.5156 28.8281 36.5156C28.6582 36.5156 28.4953 36.5831 28.3751 36.7033C28.255 36.8234 28.1875 36.9863 28.1875 37.1562C28.1875 37.8508 27.3074 38.4375 26.2656 38.4375C25.2239 38.4375 24.3438 37.8508 24.3438 37.1562C24.3438 36.9863 24.2763 36.8234 24.1561 36.7033C24.036 36.5831 23.873 36.5156 23.7031 36.5156C23.5332 36.5156 23.3703 36.5831 23.2501 36.7033C23.13 36.8234 23.0625 36.9863 23.0625 37.1562C23.0626 37.3933 22.9969 37.6258 22.8727 37.8277C22.7485 38.0296 22.5707 38.1931 22.3591 38.3C22.1475 38.4068 21.9104 38.4529 21.6741 38.4329C21.4379 38.413 21.2119 38.3279 21.0211 38.1871L21.7136 36.8017C21.758 36.7129 21.7812 36.615 21.7812 36.5156V23.7031C21.7813 23.6037 21.7581 23.5056 21.7136 23.4166L21.5365 23.0625H31.9332L31.3971 26.8157C31.3909 26.8589 31.3891 26.9026 31.3919 26.9462L32.0312 37.1743C32.0261 37.5108 31.8889 37.8319 31.6492 38.0682C31.4096 38.3045 31.0866 38.4371 30.75 38.4375V38.4375ZM23.7031 3.20312C23.7033 3.03328 23.7709 2.87044 23.891 2.75035C24.0111 2.63025 24.1739 2.56269 24.3438 2.5625H28.1875C28.3573 2.56269 28.5202 2.63025 28.6403 2.75035C28.7604 2.87044 28.8279 3.03328 28.8281 3.20312V3.84375H23.7031V3.20312ZM20.5 11.6984C20.4994 11.304 20.6207 10.919 20.8474 10.5963L24.6773 5.125H27.854L31.6839 10.5963C31.9105 10.919 32.0319 11.304 32.0312 11.6984V12.8125H20.5V11.6984ZM20.5 18.5781V14.0938H32.0312V21.7812H20.8959L20.5 20.9894V18.5781ZM20.5 35.875H17.4772C18.4266 34.1373 19.2188 32.3171 19.2188 29.4688C19.2188 27.6684 18.7034 25.9588 18.0984 24.3438H20.5V35.875ZM9.36466 23.0625L10.0053 21.7812H16.0156C16.1855 21.7812 16.3485 21.7138 16.4686 21.5936C16.5888 21.4735 16.6562 21.3105 16.6562 21.1406C16.6562 20.9707 16.5888 20.8078 16.4686 20.6876C16.3485 20.5675 16.1855 20.5 16.0156 20.5H10.25V19.2188H19.2188V20.5H18.5781C18.4082 20.5 18.2453 20.5675 18.1251 20.6876C18.005 20.8078 17.9375 20.9707 17.9375 21.1406C17.9375 21.3105 18.005 21.4735 18.1251 21.5936C18.2453 21.7138 18.4082 21.7812 18.5781 21.7812H19.4635L20.1041 23.0625H9.36466Z" fill="#A3A7A7"/>
</svg>
