<svg width="46" height="46" viewBox="0 0 46 46" fill="none" xmlns="http://www.w3.org/2000/svg">
<g clip-path="url(#clip0)">
<path d="M44.6212 26.177L43.3775 24.8807C43.1647 24.6591 42.9353 24.4615 42.6933 24.2871C42.6576 23.8643 42.5679 23.4414 42.4196 23.0284L41.1222 19.4146C40.5873 17.9246 39.3603 16.7715 37.8399 16.3302L36.1148 15.8294C35.8197 15.7437 35.5223 15.6875 35.2255 15.6574C34.9833 15.3091 34.6941 14.9878 34.3592 14.7041L31.4286 12.2232C30.2204 11.2003 28.581 10.8154 27.0439 11.1932L25.2996 11.622C25.0013 11.6954 24.7154 11.7954 24.4434 11.9177C24.0594 11.7372 23.6484 11.6034 23.2165 11.5254L19.4381 10.8421C17.8806 10.5606 16.2682 11.0465 15.1257 12.1425L13.8295 13.386C13.6078 13.5988 13.4103 13.8282 13.2358 14.0702C12.8131 14.1059 12.3902 14.1954 11.9772 14.3438L8.3632 15.6413C6.87323 16.1762 5.72018 17.4033 5.27895 18.9235L4.77816 20.6486C4.69254 20.9436 4.63621 21.2411 4.60611 21.5378C4.25779 21.7801 3.93642 22.0693 3.65287 22.4042L1.17175 25.3349C0.149415 26.5435 -0.235476 28.1825 0.142317 29.7199L0.571141 31.4643C1.07112 33.4977 2.77213 34.9687 4.81105 35.2028V35.2364L45.0629 35.2367L45.9214 30.4894C46.2032 28.9315 45.7171 27.3195 44.6212 26.177ZM4.86693 32.4573C4.06337 32.268 3.4147 31.6461 3.21039 30.8153L2.78157 29.071C2.61086 28.3767 2.78471 27.6366 3.2466 27.0911L5.32235 24.6392C5.65216 25.1715 6.08584 25.6447 6.61008 26.0276C5.65378 27.9987 5.04599 30.1687 4.86693 32.4573ZM34.7304 18.35C34.9383 18.35 35.149 18.3791 35.3571 18.4395L37.0823 18.9403C37.7688 19.1395 38.3228 19.6602 38.5644 20.333L39.6499 23.3565C39.0239 23.376 38.3972 23.5151 37.8034 23.7777C36.5474 21.9248 34.9555 20.3176 33.117 19.0421C33.5389 18.5998 34.1221 18.35 34.7304 18.35ZM25.9485 14.2615L27.6928 13.8326C27.8684 13.7894 28.0469 13.7683 28.2245 13.7683C28.7489 13.7683 29.2652 13.9527 29.6727 14.2977L32.1244 16.3733C31.5959 16.7008 31.1257 17.1308 30.7443 17.65C28.7733 16.6882 26.6026 16.0749 24.3122 15.8911C24.5089 15.0999 25.1269 14.4634 25.9485 14.2615ZM15.7112 15.3475L17.0074 14.1039C17.5233 13.609 18.2514 13.3894 18.9546 13.5168L22.1157 14.0883C21.8224 14.6348 21.6302 15.2406 21.5592 15.8793C19.2655 16.043 17.0891 16.6372 15.1105 17.5814C14.8831 16.7966 15.0995 15.9344 15.7112 15.3475ZM7.38848 21.4067L7.88927 19.6816C8.08855 18.9951 8.6091 18.441 9.28185 18.1995L12.3054 17.1139C12.3248 17.7374 12.4628 18.3617 12.7234 18.9534C10.8727 20.2139 9.26829 21.8095 7.99655 23.6519C7.39936 23.086 7.15076 22.2258 7.38848 21.4067ZM7.58857 32.5186C8.27875 24.7013 14.8629 18.55 22.8563 18.55C30.8498 18.55 37.4339 24.7013 38.124 32.5186H7.58857ZM43.2471 30.0057L42.7926 32.5189H40.8506C40.6817 30.261 40.095 28.118 39.1686 26.166C39.957 25.9321 40.8261 26.147 41.4163 26.7623L42.6599 28.0585C43.1548 28.5743 43.3743 29.3022 43.2471 30.0057Z" fill="#A3A7A7"/>
<path d="M26.2381 25.2883L24.3164 27.21L26.2381 29.1316L28.1598 27.21L26.2381 25.2883Z" fill="#A3A7A7"/>
<path d="M22.8522 21.9105L17.5527 27.21L19.4744 29.1316L24.7738 23.8322L22.8522 21.9105Z" fill="#A3A7A7"/>
</g>
<defs>
<clipPath id="clip0">
<rect width="46" height="46" fill="white"/>
</clipPath>
</defs>
</svg>
