<svg width="42" height="42" viewBox="0 0 42 42" fill="none" xmlns="http://www.w3.org/2000/svg">
<g clip-path="url(#clip0)">
<path d="M40.7411 23.9012L39.6055 22.7176C39.4113 22.5152 39.2018 22.3349 38.9808 22.1756C38.9483 21.7896 38.8663 21.4035 38.731 21.0264L37.5464 17.7268C37.058 16.3663 35.9377 15.3136 34.5494 14.9106L32.9744 14.4534C32.705 14.3751 32.4334 14.3238 32.1624 14.2963C31.9413 13.9783 31.6772 13.6849 31.3715 13.4259L28.6957 11.1607C27.5925 10.2268 26.0957 9.87538 24.6922 10.2203L23.0996 10.6119C22.8273 10.6789 22.5662 10.7701 22.3179 10.8818C21.9673 10.717 21.592 10.5949 21.1977 10.5236L17.7478 9.89974C16.3258 9.64274 14.8536 10.0864 13.8105 11.0871L12.6269 12.2225C12.4245 12.4167 12.2442 12.6262 12.0848 12.8471C11.6989 12.8797 11.3128 12.9615 10.9357 13.0969L7.63597 14.2816C6.27556 14.77 5.22277 15.8904 4.81991 17.2784L4.36267 18.8535C4.2845 19.1228 4.23306 19.3944 4.20558 19.6654C3.88755 19.8866 3.59412 20.1506 3.33523 20.4564L1.06986 23.1323C0.136422 24.2358 -0.215 25.7323 0.129942 27.136L0.521477 28.7287C0.977981 30.5853 2.53108 31.9284 4.3927 32.1421V32.1728L41.1444 32.173L41.9282 27.8386C42.1856 26.4162 41.7417 24.9443 40.7411 23.9012ZM4.44372 29.6353C3.71003 29.4625 3.11777 28.8947 2.93123 28.1361L2.53969 26.5435C2.38383 25.9096 2.54256 25.2338 2.96429 24.7358L4.85954 22.4971C5.16067 22.9831 5.55664 23.4151 6.03529 23.7647C5.16215 25.5644 4.60721 27.5457 4.44372 29.6353ZM31.7103 16.7548C31.9002 16.7548 32.0926 16.7813 32.2826 16.8365L33.8577 17.2937C34.4845 17.4757 34.9904 17.951 35.2109 18.5654L36.2021 21.326C35.6305 21.3438 35.0584 21.4707 34.5161 21.7105C33.3693 20.0187 31.9159 18.5512 30.2373 17.3867C30.6224 16.9829 31.155 16.7548 31.7103 16.7548ZM23.6921 13.0218L25.2847 12.6302C25.445 12.5908 25.608 12.5715 25.7702 12.5715C26.249 12.5715 26.7204 12.7398 27.0925 13.0548L29.331 14.95C28.8484 15.249 28.4191 15.6416 28.0709 16.1157C26.2713 15.2374 24.2893 14.6775 22.1981 14.5097C22.3777 13.7873 22.9419 13.2062 23.6921 13.0218ZM14.345 14.0134L15.5285 12.8779C15.9995 12.4261 16.6643 12.2255 17.3064 12.3418L20.1926 12.8637C19.9248 13.3626 19.7494 13.9157 19.6845 14.4989C17.5902 14.6484 15.6031 15.1909 13.7965 16.053C13.5889 15.3364 13.7865 14.5492 14.345 14.0134ZM6.74601 19.5456L7.20325 17.9706C7.3852 17.3438 7.86048 16.8379 8.47473 16.6174L11.2353 15.6262C11.2531 16.1955 11.3791 16.7654 11.617 17.3057C9.92726 18.4566 8.46235 19.9135 7.3012 21.5957C6.75593 21.079 6.52895 20.2935 6.74601 19.5456ZM6.92869 29.6913C7.55886 22.5538 13.5704 16.9374 20.8688 16.9374C28.1672 16.9374 34.1787 22.5538 34.8089 29.6913H6.92869ZM39.4865 27.3969L39.0715 29.6916H37.2984C37.1442 27.6301 36.6085 25.6734 35.7626 23.8912C36.4825 23.6775 37.276 23.8738 37.8149 24.4356L38.9503 25.6191C39.4022 26.09 39.6026 26.7546 39.4865 27.3969Z" fill="#FF0036"/>
<path d="M23.9557 23.0892L22.2012 24.8438L23.9557 26.5983L25.7103 24.8437L23.9557 23.0892Z" fill="#FF0036"/>
<path d="M20.8659 20.0051L16.0273 24.8438L17.7819 26.5983L22.6205 21.7597L20.8659 20.0051Z" fill="#FF0036"/>
</g>
<defs>
<clipPath id="clip0">
<rect width="42" height="42" fill="white"/>
</clipPath>
</defs>
</svg>
