<svg width="37" height="37" viewBox="0 0 37 37" fill="none" xmlns="http://www.w3.org/2000/svg">
<path d="M35.2646 23.125H32.3739V19.6562C32.3745 18.3064 32.0963 16.971 31.5567 15.7337C31.0171 14.4964 30.2278 13.3838 29.2383 12.4658C30.0187 10.3773 32.1467 8.55406 32.1692 8.53455C32.2594 8.458 32.324 8.35561 32.3542 8.24121C32.3844 8.12681 32.3787 8.0059 32.338 7.89481C32.2973 7.78371 32.2235 7.68779 32.1265 7.61998C32.0296 7.55217 31.9141 7.51573 31.7958 7.5156C30.1243 7.5156 28.6712 7.84376 27.4526 8.49292C27.6826 8.10711 27.9376 7.73678 28.2159 7.3843C28.7096 6.75648 29.2586 6.17419 29.8563 5.64443C29.9467 5.56795 30.0115 5.46555 30.0418 5.3511C30.0721 5.23664 30.0665 5.11563 30.0258 5.00444C29.9851 4.89325 29.9113 4.79723 29.8143 4.72936C29.7172 4.6615 29.6017 4.62506 29.4833 4.62498C27.9206 4.62498 26.5421 4.91599 25.3684 5.4892C25.2063 4.28042 24.6581 2.1441 22.8044 1.21729C22.7241 1.17715 22.6356 1.15625 22.5458 1.15625C22.4561 1.15625 22.3675 1.17715 22.2872 1.21729C20.4357 2.14309 19.8864 4.27572 19.7238 5.4853C18.5539 4.91354 17.1776 4.62498 15.6083 4.62498C15.49 4.62505 15.3745 4.66144 15.2775 4.72923C15.1805 4.79702 15.1066 4.89294 15.0659 5.00405C15.0251 5.11515 15.0195 5.23609 15.0497 5.35052C15.0798 5.46495 15.1444 5.56736 15.2346 5.64392C15.8325 6.17372 16.3817 6.75608 16.8755 7.38401C17.1532 7.7356 17.4076 8.10494 17.6372 8.48967C16.4211 7.84275 14.9693 7.5156 13.2958 7.5156C13.1775 7.51568 13.062 7.55206 12.965 7.61985C12.868 7.68764 12.7941 7.78357 12.7534 7.89467C12.7126 8.00578 12.707 8.12671 12.7372 8.24114C12.7673 8.35557 12.8319 8.45798 12.9221 8.53455C12.9449 8.55384 15.0728 10.3773 15.8534 12.4658C14.8638 13.3838 14.0745 14.4964 13.5349 15.7337C12.9953 16.971 12.7171 18.3064 12.7177 19.6562V19.7226C12.0798 19.8438 11.2357 20.12 10.7849 20.4584C10.7208 20.5062 10.6535 20.5495 10.5833 20.5878C10.7356 19.1955 11.0051 17.7751 11.4643 17.0863C11.5076 17.0232 11.5379 16.9521 11.5535 16.8771C11.5691 16.8022 11.5696 16.7249 11.5551 16.6497C11.5405 16.5746 11.5112 16.503 11.4688 16.4393C11.4264 16.3756 11.3718 16.3209 11.3081 16.2784C11.2444 16.236 11.1729 16.2066 11.0978 16.192C11.0227 16.1773 10.9454 16.1778 10.8704 16.1933C10.7954 16.2088 10.7243 16.239 10.6611 16.2823C10.5979 16.3255 10.5439 16.3808 10.5023 16.445V16.445C9.97817 17.2313 9.6099 18.6723 9.40669 20.7261C9.21261 20.6708 9.03041 20.5802 8.86925 20.4587C8.25947 20.0007 6.92921 19.6562 6.36467 19.6562C4.85316 19.6562 3.48936 20.2725 2.52455 21.3915C1.42488 22.667 0.955153 24.4799 1.23576 26.3652L1.59709 28.7917C1.82155 30.3306 2.32387 31.8159 3.07955 33.1752C4.02341 34.8662 5.66124 35.846 7.3938 35.8459C7.82015 35.8455 8.24443 35.7868 8.65484 35.6713C8.66799 35.6676 8.68095 35.6635 8.69372 35.6589L9.66078 35.3129C9.76841 35.274 9.88629 35.274 9.99392 35.3129L10.9609 35.6589C10.9737 35.6635 10.9867 35.6676 10.9998 35.6713C11.4102 35.7868 11.8345 35.8455 12.2609 35.8459C13.528 35.8459 14.7442 35.3212 15.6757 34.378C17.6355 35.3353 19.7866 35.8364 21.9677 35.8437C25.5665 35.8437 29.0436 34.4812 31.7597 32.0071C34.3544 29.6429 35.8427 26.6163 35.8427 23.7031C35.8427 23.5498 35.7818 23.4027 35.6734 23.2943C35.5649 23.1859 35.4179 23.125 35.2646 23.125ZM20.105 20.2271L22.5534 17.8496L25.0067 20.2312L22.5594 22.6047L20.105 20.2271ZM21.4347 23.125H18.1293C18.045 22.8889 17.9453 22.6586 17.8308 22.4355L19.2749 21.0331L21.4347 23.125ZM25.8365 21.0369L27.9874 23.125H23.6833L25.8365 21.0369ZM23.383 17.0437L25.8293 14.668L28.2846 17.0528L25.8369 19.4262L23.383 17.0437ZM23.7877 11.0737C24.8499 11.2267 25.8741 11.5769 26.8075 12.1063L25.8293 13.0563L23.7877 11.0737ZM24.9994 13.8622L22.553 16.2381L20.1079 13.8644L22.5548 11.4882L24.9994 13.8622ZM19.2782 13.0584L18.2925 12.1014C19.23 11.5713 20.2587 11.2218 21.3251 11.0711L19.2782 13.0584ZM19.2782 14.6699L21.7234 17.0438L19.2741 19.4224L16.8261 17.0513L19.2782 14.6699ZM18.4442 20.2282L17.1819 21.4542C17.1645 21.4333 17.1474 21.4121 17.1296 21.3915C16.3505 20.4823 15.2679 19.8867 14.0829 19.7153L15.9962 17.8572L18.4442 20.2282ZM18.0571 28.7917L18.4184 26.3652C18.5234 25.6746 18.5242 24.9721 18.4209 24.2812H32.2712C31.9378 26.1903 30.809 28.1027 29.1063 29.6107C27.0936 31.3933 24.5584 32.375 21.9677 32.375C20.3922 32.3685 18.838 32.0108 17.4182 31.3278C17.7154 30.5059 17.9295 29.6563 18.0572 28.7917H18.0571ZM30.239 23.125L31.2177 22.1771V23.125H30.239ZM31.2177 20.5676L29.1129 22.606L26.6672 20.2317L29.1148 17.8583L31.2177 19.9007V20.5676ZM31.0888 18.1637L29.9451 17.0531L30.5928 16.4249C30.8188 16.9855 30.9851 17.5683 31.0888 18.1637V18.1637ZM30.0599 15.3308L29.1152 16.2469L26.6593 13.8622L27.7955 12.7588C28.7127 13.4584 29.4823 14.3326 30.0599 15.3311V15.3308ZM30.2753 8.78242C29.6114 9.51433 28.8107 10.5437 28.3042 11.6966C27.7873 11.3215 27.2352 10.9977 26.6556 10.7296C26.6629 10.6396 26.6738 10.5495 26.688 10.4595C27.6194 9.56795 28.8216 9.00623 30.2753 8.78264V8.78242ZM27.9622 5.8918C27.0235 6.92671 25.8119 8.55601 25.5438 10.2957C24.8634 10.0773 24.1612 9.93435 23.4496 9.86937C23.3819 9.65886 23.2951 9.42067 23.1849 9.16478C23.8947 7.80524 25.2775 6.30653 27.9622 5.89237V5.8918ZM22.5458 2.3997C23.9785 3.33301 24.2279 5.47338 24.2712 6.15029C23.5909 6.64959 23.0062 7.26733 22.5449 7.97391C22.2797 7.56837 21.9739 7.19084 21.6323 6.84715C21.3799 6.59403 21.1085 6.36053 20.8206 6.1487C20.8641 5.47013 21.1142 3.33229 22.5458 2.3997ZM17.1302 5.89324C20.3333 6.39043 21.6672 8.43439 22.2114 9.83439C21.3064 9.86429 20.41 10.0198 19.5479 10.2963C19.5298 10.179 19.5075 10.0622 19.4811 9.94604L19.5015 9.92718C19.4909 9.91576 19.4798 9.90478 19.4694 9.8935C19.0938 8.30771 17.996 6.84787 17.1302 5.89324ZM14.816 8.78235C16.2714 9.00572 17.4726 9.56816 18.4038 10.4609C18.4179 10.5505 18.4289 10.6402 18.436 10.7298C17.8564 10.9979 17.3043 11.3218 16.7875 11.6968C16.2808 10.5435 15.48 9.51425 14.816 8.78235ZM17.3037 12.7531L18.4484 13.8644L15.9952 16.2466L15.0384 15.3199C15.6169 14.3233 16.3867 13.451 17.3037 12.7531V12.7531ZM14.5041 16.4121L15.1653 17.0525L13.9994 18.1846C14.1036 17.5774 14.2728 16.9831 14.5041 16.4121V16.4121ZM15.565 32.6116C14.8321 33.9251 13.5728 34.6875 12.2504 34.6875C11.9395 34.6873 11.63 34.6454 11.3302 34.5629L10.3835 34.2242C10.0239 34.0959 9.63095 34.0959 9.27134 34.2242L8.32394 34.5631C6.69073 35.0105 4.99119 34.2282 4.08917 32.6119C3.40161 31.3746 2.94472 30.0225 2.74077 28.6217L2.37944 26.1953C2.14819 24.6429 2.5205 23.1674 3.40033 22.1469C3.76714 21.7216 4.22257 21.3818 4.73467 21.1513C5.24677 20.9207 5.80313 20.8051 6.36467 20.8125C6.73192 20.8125 7.80565 21.1058 8.17514 21.3834C8.51105 21.6367 8.90032 21.81 9.31332 21.8902C9.28485 22.3504 9.26895 22.7548 9.26007 23.0646C8.76042 22.9524 8.5085 22.7228 8.49484 22.71L8.5012 22.7162C8.4476 22.6621 8.38382 22.619 8.31352 22.5896C8.24322 22.5601 8.16779 22.5449 8.09158 22.5447C8.01536 22.5445 7.93987 22.5594 7.86943 22.5885C7.79899 22.6176 7.73501 22.6604 7.68115 22.7143C7.62729 22.7682 7.58463 22.8323 7.55562 22.9028C7.52661 22.9732 7.51182 23.0487 7.5121 23.125C7.51238 23.2012 7.52772 23.2766 7.55725 23.3468C7.58679 23.4171 7.62992 23.4808 7.68417 23.5344C7.76171 23.6115 8.47165 24.2812 9.82706 24.2812C11.1836 24.2812 11.8939 23.6102 11.9702 23.5338C12.0239 23.4801 12.0665 23.4164 12.0956 23.3462C12.1246 23.2761 12.1396 23.2009 12.1396 23.125C12.1396 23.0491 12.1246 22.9739 12.0956 22.9037C12.0665 22.8336 12.0239 22.7699 11.9702 22.7162C11.9166 22.6625 11.8528 22.6199 11.7827 22.5908C11.7125 22.5618 11.6374 22.5468 11.5614 22.5468C11.4855 22.5468 11.4103 22.5618 11.3402 22.5908C11.27 22.6199 11.2063 22.6625 11.1526 22.7162C11.1496 22.7192 10.9027 22.9437 10.4155 23.0586C10.4256 22.7094 10.4438 22.3004 10.4728 21.8613C10.8371 21.7716 11.1793 21.609 11.4789 21.3832C11.8484 21.1058 12.9221 20.8123 13.2894 20.8123C13.8509 20.8048 14.4073 20.9204 14.9194 21.1509C15.4315 21.3814 15.887 21.7211 16.2538 22.1464C17.1336 23.1668 17.5057 24.6424 17.2747 26.1948L16.9134 28.6212C16.7094 30.0221 16.2525 31.3742 15.565 32.6116V32.6116ZM30.9807 31.1523C28.4783 33.432 25.2775 34.6875 21.9677 34.6875C20.048 34.6808 18.1527 34.2577 16.4125 33.4473C16.4685 33.3586 16.5229 33.2682 16.5748 33.1752C16.7171 32.9203 16.8502 32.6608 16.9743 32.3967C18.5352 33.1373 20.2401 33.5247 21.9677 33.5312C24.8411 33.5312 27.6486 32.4463 29.873 30.4763C31.8278 28.745 33.1069 26.5133 33.442 24.2812H34.6643C34.4804 26.6915 33.1609 29.1664 30.9807 31.1523Z" fill="#FF0036"/>
<path d="M29.4844 26.5938C29.8037 26.5938 30.0625 26.3349 30.0625 26.0156C30.0625 25.6963 29.8037 25.4375 29.4844 25.4375C29.1651 25.4375 28.9062 25.6963 28.9062 26.0156C28.9062 26.3349 29.1651 26.5938 29.4844 26.5938Z" fill="#FF0036"/>
<path d="M26.5938 29.4844C26.913 29.4844 27.1719 29.2255 27.1719 28.9062C27.1719 28.587 26.913 28.3281 26.5938 28.3281C26.2745 28.3281 26.0156 28.587 26.0156 28.9062C26.0156 29.2255 26.2745 29.4844 26.5938 29.4844Z" fill="#FF0036"/>
<path d="M23.7031 27.75C24.0224 27.75 24.2812 27.4912 24.2812 27.1719C24.2812 26.8526 24.0224 26.5938 23.7031 26.5938C23.3838 26.5938 23.125 26.8526 23.125 27.1719C23.125 27.4912 23.3838 27.75 23.7031 27.75Z" fill="#FF0036"/>
<path d="M20.2344 27.75C20.5537 27.75 20.8125 27.4912 20.8125 27.1719C20.8125 26.8526 20.5537 26.5938 20.2344 26.5938C19.9151 26.5938 19.6562 26.8526 19.6562 27.1719C19.6562 27.4912 19.9151 27.75 20.2344 27.75Z" fill="#FF0036"/>
<path d="M21.9688 31.2188C22.288 31.2188 22.5469 30.9599 22.5469 30.6406C22.5469 30.3213 22.288 30.0625 21.9688 30.0625C21.6495 30.0625 21.3906 30.3213 21.3906 30.6406C21.3906 30.9599 21.6495 31.2188 21.9688 31.2188Z" fill="#FF0036"/>
</svg>
