<svg width="19" height="16" viewBox="0 0 19 16" fill="none" xmlns="http://www.w3.org/2000/svg">
<path d="M10.9355 2.09209C12.1541 2.25103 13.2845 2.61211 14.2044 3.13616C15.094 3.643 15.7481 4.27801 16.096 4.97271C16.1557 5.09222 16.2933 5.16399 16.4381 5.16399C16.4862 5.16399 16.5351 5.15606 16.5822 5.13934C16.7711 5.0722 16.8595 4.88897 16.7799 4.72991C16.376 3.92339 15.6292 3.19329 14.6203 2.61846C13.6102 2.04302 12.3753 1.64739 11.049 1.47442C10.8467 1.44805 10.6569 1.56487 10.6255 1.73553C10.5941 1.90594 10.7328 2.0656 10.9355 2.09209V2.09209Z" fill="#A3A7A7"/>
<path d="M3.72384 4.43691C3.78255 4.55556 3.93201 4.63552 4.0845 4.62942C4.23511 4.62331 4.3734 4.53359 4.41921 4.41262C4.4656 4.29018 4.4137 4.14724 4.29194 4.06924C4.16597 3.98867 3.98086 3.98574 3.85155 4.06265C3.71399 4.14443 3.66021 4.30618 3.72384 4.43691Z" fill="#A3A7A7"/>
<path d="M5.51127 3.27304C5.57056 3.39304 5.72262 3.47385 5.877 3.46555C6.02587 3.45737 6.16126 3.36801 6.20693 3.2485C6.25346 3.12692 6.20127 2.98532 6.08154 2.90695C5.95499 2.82431 5.76669 2.82089 5.6368 2.90012C5.5017 2.98251 5.44691 3.14304 5.51127 3.27304Z" fill="#A3A7A7"/>
<path d="M7.4328 4.43691C7.49151 4.55556 7.64111 4.63552 7.79361 4.62942C7.94422 4.62331 8.0828 4.53359 8.1286 4.41262C8.17499 4.29006 8.12281 4.14712 8.0009 4.06924C7.87493 3.98867 7.68996 3.98574 7.56051 4.06265C7.42309 4.14443 7.36917 4.30618 7.4328 4.43691Z" fill="#A3A7A7"/>
<path d="M19 9.99805C19 9.30994 18.475 8.72351 17.7448 8.50684V7.72486C17.8622 7.68836 17.9753 7.64026 18.0815 7.5802C18.5041 7.34107 18.7465 6.96362 18.7465 6.54431C18.7465 6.28211 18.6502 6.03394 18.4713 5.8252C18.5618 5.64465 18.589 5.44422 18.5451 5.24671C18.2274 3.81555 17.1361 2.50549 15.4724 1.55762C13.8154 0.613648 11.6944 0.09375 9.5 0.09375C7.30562 0.09375 5.18459 0.613648 3.52757 1.55762C1.86388 2.50537 0.772629 3.81555 0.45488 5.24671C0.399796 5.49439 0.456474 5.74658 0.60984 5.95838C0.494308 6.13684 0.434151 6.33557 0.434151 6.54431C0.434151 6.96362 0.676521 7.34131 1.09922 7.58032C1.14967 7.60889 1.202 7.6344 1.2552 7.65772V8.50684C0.52504 8.72351 0 9.30994 0 9.99805V10.0615C0 10.5173 0.230629 10.9285 0.598389 11.2173C0.491119 11.3911 0.434151 11.5845 0.434151 11.7836C0.434151 12.0964 0.569252 12.3859 0.813217 12.6121V13.7397C0.813217 14.9445 1.97709 15.9247 3.40783 15.9247H15.5922C17.0229 15.9247 18.1868 14.9445 18.1868 13.7397V12.7538C18.5438 12.5142 18.7465 12.1664 18.7465 11.7835C18.7465 11.5433 18.6662 11.316 18.5161 11.1195C18.8166 10.8392 19 10.4681 19 10.0615V9.99805ZM18.2578 9.99805V10.0615C18.2578 10.3842 18.0668 10.6698 17.7751 10.843C17.5851 10.9558 17.3553 11.0173 17.1228 11.0173H11.3684L13.7348 9.04224H17.1226C17.7486 9.04224 18.2578 9.47107 18.2578 9.99805ZM5.62453 9.04224L5.68339 9.09192L6.06405 9.41236L5.26721 10.0835L4.03072 9.04224H5.62453ZM9.12833 11.1089L6.85161 9.19177C6.85161 9.19165 6.85146 9.19153 6.85132 9.19141L6.67418 9.04224H12.6789L10.1988 11.1077C10.1987 11.1078 10.1986 11.1079 10.1984 11.1082C10.1981 11.1084 10.1977 11.1086 10.1974 11.1089L9.66279 11.5591L9.12833 11.1089ZM1.18431 5.36145C1.46539 4.09583 2.4453 2.92871 3.94345 2.0752C5.479 1.20044 7.45232 0.71875 9.5 0.71875C11.5477 0.71875 13.521 1.20044 15.0565 2.0752C16.5547 2.92871 17.5345 4.09583 17.8157 5.36145C17.8677 5.59619 17.6451 5.82044 17.3621 5.82044H1.63789C1.35449 5.82044 1.13227 5.59619 1.18431 5.36145ZM1.20374 6.37744C1.34159 6.42236 1.49017 6.44544 1.63789 6.44544H17.3621C17.5669 6.44544 17.7729 6.40076 17.9515 6.31616C17.9865 6.38843 18.0043 6.46619 18.0043 6.54419C18.0043 6.75183 17.8816 6.94031 17.6677 7.06128C17.4489 7.18506 17.1703 7.21472 16.9201 7.14807C16.7965 7.11511 16.6798 7.07263 16.5522 7.04968C16.4142 7.02478 16.273 7.0138 16.132 7.0138C15.4691 7.0138 15.1134 7.22522 14.8277 7.39502C14.5769 7.54419 14.3789 7.66199 13.9515 7.66199C13.5242 7.66199 13.3262 7.54419 13.0754 7.39514C12.7897 7.2251 12.4341 7.0138 11.7711 7.0138C11.1082 7.0138 10.7526 7.22522 10.4669 7.39514C10.2161 7.54419 10.0181 7.66199 9.59074 7.66199C9.16341 7.66199 8.96525 7.54419 8.71447 7.39502C8.42876 7.2251 8.07317 7.0138 7.41028 7.0138C6.74738 7.0138 6.39165 7.22522 6.10594 7.39502C5.85516 7.54419 5.65701 7.66199 5.22981 7.66199C4.80233 7.66199 4.60432 7.54419 4.35339 7.39502C4.06768 7.2251 3.7121 7.0138 3.04906 7.0138C2.78683 7.0138 2.5504 7.05127 2.32615 7.1283C2.06131 7.21936 1.75139 7.19629 1.51308 7.0614C1.29912 6.94043 1.17648 6.75195 1.17648 6.54431C1.17634 6.48682 1.18562 6.43091 1.20374 6.37744V6.37744ZM2.07117 7.80676C2.26585 7.79883 2.44849 7.75745 2.62969 7.69934C2.81046 7.64124 3.0076 7.62976 3.19909 7.64417C3.5267 7.6687 3.70586 7.77527 3.92533 7.90564C4.21104 8.07556 4.56663 8.28699 5.22967 8.28699C5.89256 8.28699 6.24815 8.07556 6.53386 7.90564C6.78464 7.75659 6.9828 7.6388 7.41013 7.6388C7.83747 7.6388 8.03548 7.75659 8.28626 7.90564C8.57198 8.07556 8.9277 8.28699 9.5906 8.28699C10.2535 8.28699 10.6091 8.07556 10.8948 7.90564C11.1456 7.75659 11.3437 7.6388 11.7709 7.6388C12.1983 7.6388 12.3964 7.75659 12.6472 7.90564C12.9329 8.07556 13.2885 8.28699 13.9514 8.28699C14.6143 8.28699 14.9699 8.07556 15.2556 7.90564C15.5065 7.75659 15.7045 7.6388 16.1319 7.6388C16.2835 7.6388 16.4324 7.66004 16.5737 7.70679C16.7115 7.75244 16.855 7.78528 17.0025 7.79981V8.41736H13.5822C13.582 8.41736 13.582 8.41736 13.5819 8.41736H13.5817H5.77935C5.77906 8.41736 5.77863 8.41736 5.77834 8.41736C5.7779 8.41736 5.77747 8.41736 5.77718 8.41736H1.99738V7.80847C2.02203 7.80835 2.04652 7.80774 2.07117 7.80676V7.80676ZM0.742188 9.99805C0.742188 9.47107 1.25143 9.04224 1.87721 9.04224H2.98122L5.00484 10.7465C5.07442 10.8051 5.16879 10.8379 5.26721 10.8379C5.36564 10.8379 5.46001 10.8051 5.52959 10.7465L6.58894 9.85437L7.96996 11.0173H1.87721C1.68108 11.0173 1.48611 10.9736 1.31593 10.8917C0.973541 10.7271 0.742188 10.4168 0.742188 10.0615V9.99805ZM1.23766 11.5477C1.4419 11.6101 1.65992 11.6423 1.87721 11.6423H8.71215L9.40041 12.2219C9.54276 12.3419 9.78122 12.3422 9.924 12.2229L10.6197 11.6423H17.1226C17.332 11.6423 17.541 11.6124 17.7387 11.5548C17.7802 11.5427 17.8225 11.5305 17.8615 11.5137C17.8741 11.5082 17.8924 11.496 17.9073 11.4968C17.9279 11.498 17.9333 11.5201 17.9406 11.5341C17.9808 11.6086 18.0023 11.6903 18.004 11.7722C18.0102 12.067 17.7581 12.3137 17.4289 12.394C17.2403 12.4402 17.0361 12.4299 16.8543 12.3674C16.6305 12.2904 16.3941 12.2529 16.1319 12.2529C15.469 12.2529 15.1134 12.4644 14.8277 12.6343C14.5767 12.7835 14.3787 12.9012 13.9514 12.9012C13.5242 12.9012 13.326 12.7835 13.0753 12.6343C12.7895 12.4644 12.434 12.2529 11.7711 12.2529C11.1082 12.2529 10.7526 12.4644 10.4667 12.6343C10.216 12.7835 10.0179 12.9012 9.5906 12.9012C9.16326 12.9012 8.96525 12.7835 8.71432 12.6343C8.42861 12.4644 8.07303 12.2529 7.41013 12.2529C6.74724 12.2529 6.39165 12.4644 6.1058 12.6343C5.85502 12.7835 5.65701 12.9012 5.22967 12.9012C4.80219 12.9012 4.60417 12.7833 4.35339 12.6343C4.06754 12.4644 3.71195 12.2529 3.04891 12.2529C2.78668 12.2529 2.55025 12.2904 2.32615 12.3676C2.08392 12.4508 1.80154 12.4398 1.57294 12.3314C1.37073 12.2356 1.22012 12.0713 1.18475 11.8761C1.17416 11.8184 1.17358 11.7593 1.18272 11.7013C1.18533 11.6845 1.21939 11.5421 1.23766 11.5477V11.5477ZM17.4446 13.7397C17.4446 14.5999 16.6135 15.2997 15.5922 15.2997H3.40783C2.38645 15.2997 1.5554 14.5999 1.5554 13.7397V12.9985C1.86011 13.0713 2.18902 13.0662 2.50242 12.9784C2.5088 12.9766 2.51517 12.9747 2.52141 12.973C2.54996 12.9646 2.57852 12.9559 2.60664 12.9462C2.74001 12.9003 2.88467 12.8781 3.04891 12.8781C3.47639 12.8781 3.67441 12.9957 3.92519 13.1449C4.21104 13.3148 4.56663 13.5262 5.22967 13.5262C5.89256 13.5262 6.24815 13.3148 6.53386 13.1449C6.78464 12.9957 6.9828 12.8781 7.40999 12.8781C7.83733 12.8781 8.03548 12.9957 8.28626 13.1449C8.57198 13.3148 8.92756 13.5262 9.5906 13.5262C10.2535 13.5262 10.6091 13.3148 10.8948 13.1449C11.1456 12.9957 11.3437 12.8781 11.7709 12.8781C12.1983 12.8781 12.3964 12.9957 12.647 13.1449C12.9328 13.3148 13.2885 13.5262 13.9514 13.5262C14.6143 13.5262 14.9699 13.3148 15.2556 13.1449C15.5064 12.9957 15.7045 12.8781 16.1319 12.8781C16.2425 12.8781 16.3533 12.8884 16.4602 12.9135C16.5618 12.9373 16.6578 12.9749 16.7594 12.999C16.98 13.0514 17.2182 13.0625 17.4445 13.0315V13.7397H17.4446Z" fill="#A3A7A7"/>
<path d="M8.38237 3.27307C8.44108 3.39172 8.59068 3.47229 8.74332 3.46569C8.89393 3.45922 9.03207 3.36987 9.07803 3.24902C9.1247 3.12646 9.07237 2.98376 8.95075 2.90551C8.82507 2.82458 8.63967 2.82153 8.51051 2.8988C8.37353 2.98059 8.31757 3.14233 8.38237 3.27307Z" fill="#A3A7A7"/>
<path d="M10.0578 4.65078C10.1165 4.76955 10.266 4.84938 10.4185 4.84328C10.5692 4.83718 10.7071 4.74733 10.7533 4.62661C10.8001 4.50417 10.7477 4.3611 10.6259 4.2831C10.4999 4.20241 10.3148 4.19973 10.1855 4.27651C10.0481 4.3583 9.99417 4.52004 10.0578 4.65078V4.65078Z" fill="#A3A7A7"/>
<path d="M9.11053 1.84485C9.24259 1.91895 9.42828 1.91162 9.55106 1.82691C9.67108 1.74414 9.71907 1.59754 9.66369 1.47522C9.60977 1.35645 9.46684 1.27185 9.31536 1.27246C9.16547 1.2732 9.02298 1.35608 8.96992 1.47425C8.91063 1.60657 8.97123 1.76599 9.11053 1.84485V1.84485Z" fill="#A3A7A7"/>
</svg>
