<svg width="29" height="25" viewBox="0 0 29 25" fill="none" xmlns="http://www.w3.org/2000/svg">
<path d="M16.6908 3.26975C18.5508 3.51809 20.2762 4.08228 21.6802 4.90111C23.0381 5.69304 24.0363 6.68524 24.5673 7.77071C24.6585 7.95744 24.8685 8.06959 25.0895 8.06959C25.163 8.06959 25.2375 8.0572 25.3094 8.03107C25.5977 7.92616 25.7327 7.63987 25.6112 7.39134C24.9948 6.13116 23.8549 4.99037 22.315 4.0922C20.7733 3.19308 18.8885 2.5749 16.864 2.30463C16.5554 2.26343 16.2655 2.44597 16.2177 2.71261C16.1697 2.97888 16.3815 3.22836 16.6908 3.26975Z" fill="#A3A7A7"/>
<path d="M5.6851 6.93274C5.77471 7.11813 6.00282 7.24306 6.23558 7.23352C6.46546 7.22399 6.67653 7.0838 6.74645 6.89478C6.81725 6.70347 6.73804 6.48012 6.55219 6.35824C6.35992 6.23236 6.07738 6.22778 5.88002 6.34794C5.67005 6.47574 5.58797 6.72846 5.6851 6.93274Z" fill="#A3A7A7"/>
<path d="M8.4141 5.1137C8.50459 5.30119 8.73668 5.42746 8.97232 5.41449C9.19954 5.40171 9.40619 5.26209 9.47589 5.07536C9.54691 4.88539 9.46726 4.66414 9.2845 4.54168C9.09135 4.41256 8.80394 4.40722 8.6057 4.531C8.39949 4.65975 8.31586 4.91057 8.4141 5.1137Z" fill="#A3A7A7"/>
<path d="M11.3452 6.93274C11.4348 7.11813 11.6632 7.24306 11.8959 7.23352C12.1258 7.22399 12.3373 7.0838 12.4072 6.89478C12.478 6.70328 12.3984 6.47993 12.2123 6.35824C12.02 6.23236 11.7377 6.22778 11.5401 6.34794C11.3304 6.47574 11.2481 6.72846 11.3452 6.93274Z" fill="#A3A7A7"/>
<path d="M29 15.622C29 14.5468 28.1986 13.6305 27.0842 13.2919V12.0701C27.2634 12.0131 27.436 11.9379 27.5981 11.8441C28.2431 11.4704 28.613 10.8807 28.613 10.2255C28.613 9.81579 28.4661 9.42803 28.1931 9.10187C28.3312 8.81977 28.3727 8.50659 28.3057 8.19798C27.8207 5.9618 26.1551 3.91483 23.6158 2.43378C21.0867 0.958824 17.8493 0.146484 14.5 0.146484C11.1507 0.146484 7.91331 0.958824 5.38418 2.43378C2.84486 3.91464 1.17928 5.9618 0.69429 8.19798C0.610214 8.58498 0.696724 8.97904 0.930809 9.30996C0.754471 9.58881 0.662651 9.89933 0.662651 10.2255C0.662651 10.8807 1.03259 11.4708 1.67776 11.8443C1.75475 11.8889 1.83463 11.9288 1.91582 11.9652V13.2919C0.801376 13.6305 0 14.5468 0 15.622V15.7211C0 16.4333 0.352013 17.0757 0.91333 17.527C0.749603 17.7986 0.662651 18.1007 0.662651 18.4118C0.662651 18.9007 0.868858 19.3529 1.24123 19.7063V21.4684C1.24123 23.3507 3.01766 24.8823 5.20142 24.8823H23.7986C25.9823 24.8823 27.7588 23.3507 27.7588 21.4684V19.9278C28.3037 19.5534 28.613 19.01 28.613 18.4116C28.613 18.0365 28.4905 17.6813 28.2615 17.3742C28.7201 16.9363 29 16.3565 29 15.7211V15.622ZM27.8672 15.622V15.7211C27.8672 16.2252 27.5756 16.6716 27.1304 16.9422C26.8404 17.1185 26.4897 17.2146 26.1348 17.2146H17.3517L20.9637 14.1285H26.1346C27.0899 14.1285 27.8672 14.7985 27.8672 15.622ZM8.58482 14.1285L8.67464 14.2061L9.25565 14.7068L8.03943 15.7555L6.15215 14.1285H8.58482ZM13.9327 17.3576L10.4577 14.3621C10.4577 14.362 10.4575 14.3618 10.4573 14.3616L10.1869 14.1285H19.3521L15.5667 17.3557C15.5664 17.3559 15.5662 17.3561 15.566 17.3565C15.5656 17.3569 15.5649 17.3573 15.5644 17.3576L14.7485 18.0611L13.9327 17.3576ZM1.80763 8.37727C2.23664 6.39973 3.73231 4.57611 6.01895 3.24249C8.36268 1.87569 11.3746 1.12305 14.5 1.12305C17.6254 1.12305 20.6373 1.87569 22.981 3.24249C25.2677 4.57611 26.7631 6.39973 27.1924 8.37727C27.2718 8.74405 26.932 9.09443 26.5001 9.09443H2.49993C2.06738 9.09443 1.7282 8.74405 1.80763 8.37727ZM1.83728 9.96475C2.04769 10.0349 2.27448 10.071 2.49993 10.071H26.5001C26.8127 10.071 27.1271 10.0012 27.3997 9.86901C27.453 9.98192 27.4802 10.1034 27.4802 10.2253C27.4802 10.5497 27.293 10.8442 26.9665 11.0333C26.6326 11.2267 26.2074 11.273 25.8255 11.1689C25.6367 11.1174 25.4586 11.051 25.2639 11.0151C25.0533 10.9762 24.8378 10.9591 24.6225 10.9591C23.6107 10.9591 23.0678 11.2894 22.6317 11.5547C22.2489 11.7878 21.9467 11.9719 21.2944 11.9719C20.6422 11.9719 20.34 11.7878 19.9572 11.5549C19.5211 11.2892 18.9784 10.9591 17.9664 10.9591C16.9546 10.9591 16.4118 11.2894 15.9758 11.5549C15.593 11.7878 15.2908 11.9719 14.6385 11.9719C13.9863 11.9719 13.6838 11.7878 13.301 11.5547C12.8649 11.2892 12.3222 10.9591 11.3104 10.9591C10.2986 10.9591 9.75568 11.2894 9.3196 11.5547C8.93683 11.7878 8.63438 11.9719 7.98235 11.9719C7.32987 11.9719 7.02764 11.7878 6.64465 11.5547C6.20856 11.2892 5.66583 10.9591 4.65382 10.9591C4.25358 10.9591 3.89272 11.0176 3.55044 11.138C3.14621 11.2803 2.67317 11.2442 2.30943 11.0334C1.98286 10.8444 1.79568 10.5499 1.79568 10.2255C1.79546 10.1357 1.80962 10.0483 1.83728 9.96475ZM3.16125 12.1981C3.4584 12.1857 3.73717 12.121 4.01374 12.0302C4.28964 11.9394 4.59055 11.9215 4.88282 11.944C5.38285 11.9823 5.65632 12.1489 5.99129 12.3526C6.42738 12.6181 6.97012 12.9484 7.98212 12.9484C8.99391 12.9484 9.53664 12.6181 9.97273 12.3526C10.3555 12.1197 10.658 11.9356 11.3102 11.9356C11.9625 11.9356 12.2647 12.1197 12.6475 12.3526C13.0835 12.6181 13.6265 12.9484 14.6383 12.9484C15.6501 12.9484 16.1928 12.6181 16.6289 12.3526C17.0117 12.1197 17.3141 11.9356 17.9661 11.9356C18.6184 11.9356 18.9208 12.1197 19.3036 12.3526C19.7397 12.6181 20.2824 12.9484 21.2942 12.9484C22.306 12.9484 22.8487 12.6181 23.2848 12.3526C23.6678 12.1197 23.97 11.9356 24.6223 11.9356C24.8537 11.9356 25.081 11.9688 25.2967 12.0419C25.5071 12.1132 25.7261 12.1645 25.9511 12.1872V13.1521H20.7307C20.7305 13.1521 20.7305 13.1521 20.7302 13.1521H20.73H8.82111C8.82067 13.1521 8.82001 13.1521 8.81956 13.1521C8.8189 13.1521 8.81824 13.1521 8.81779 13.1521H3.04864V12.2007C3.08625 12.2005 3.12364 12.1996 3.16125 12.1981ZM1.13281 15.622C1.13281 14.7985 1.91007 14.1285 2.86522 14.1285H4.55028L7.63896 16.7913C7.74516 16.8829 7.8892 16.9342 8.03943 16.9342C8.18966 16.9342 8.33369 16.8829 8.4399 16.7913L10.0568 15.3975L12.1647 17.2146H2.86522C2.56586 17.2146 2.26828 17.1463 2.00853 17.0183C1.48593 16.761 1.13281 16.2762 1.13281 15.7211V15.622ZM1.88905 18.0433C2.2008 18.1408 2.53356 18.1911 2.86522 18.1911H13.2975L14.348 19.0968C14.5653 19.2843 14.9292 19.2846 15.1472 19.0983L16.209 18.1911H26.1346C26.454 18.1911 26.7731 18.1444 27.0749 18.0544C27.1382 18.0355 27.2028 18.0164 27.2623 17.9901C27.2815 17.9815 27.3094 17.9625 27.3322 17.9638C27.3636 17.9657 27.3718 18.0002 27.3831 18.022C27.4444 18.1385 27.4771 18.2661 27.4798 18.3941C27.4893 18.8547 27.1045 19.2402 26.6021 19.3657C26.3142 19.4378 26.0025 19.4218 25.725 19.3241C25.3834 19.2038 25.0225 19.1452 24.6223 19.1452C23.6105 19.1452 23.0678 19.4756 22.6317 19.7411C22.2487 19.9741 21.9465 20.1582 21.2942 20.1582C20.6422 20.1582 20.3397 19.9741 19.957 19.7411C19.5209 19.4756 18.9781 19.1452 17.9664 19.1452C16.9546 19.1452 16.4118 19.4756 15.9755 19.7411C15.5928 19.9741 15.2905 20.1582 14.6383 20.1582C13.986 20.1582 13.6838 19.9741 13.3008 19.7411C12.8647 19.4756 12.322 19.1452 11.3102 19.1452C10.2984 19.1452 9.75568 19.4756 9.31937 19.7411C8.93661 19.9741 8.63438 20.1582 7.98212 20.1582C7.32965 20.1582 7.02742 19.9739 6.64465 19.7411C6.20834 19.4756 5.66561 19.1452 4.6536 19.1452C4.25336 19.1452 3.89249 19.2038 3.55044 19.3243C3.18073 19.4544 2.74973 19.4372 2.40081 19.2678C2.09216 19.1181 1.86228 18.8614 1.8083 18.5564C1.79214 18.4662 1.79126 18.3739 1.8052 18.2833C1.80918 18.257 1.86118 18.0346 1.88905 18.0433ZM26.626 21.4684C26.626 22.8123 25.3575 23.9058 23.7986 23.9058H5.20142C3.64248 23.9058 2.37404 22.8123 2.37404 21.4684V20.3102C2.83911 20.4239 3.34113 20.4159 3.81948 20.2787C3.82922 20.2759 3.83895 20.273 3.84846 20.2704C3.89205 20.2572 3.93564 20.2436 3.97856 20.2284C4.18211 20.1567 4.40292 20.122 4.6536 20.122C5.30608 20.122 5.60831 20.3058 5.99107 20.5389C6.42738 20.8044 6.97012 21.1348 7.98212 21.1348C8.99391 21.1348 9.53664 20.8044 9.97273 20.5389C10.3555 20.3058 10.658 20.122 11.31 20.122C11.9622 20.122 12.2647 20.3058 12.6475 20.5389C13.0835 20.8044 13.6263 21.1348 14.6383 21.1348C15.6501 21.1348 16.1928 20.8044 16.6289 20.5389C17.0117 20.3058 17.3141 20.122 17.9661 20.122C18.6184 20.122 18.9208 20.3058 19.3034 20.5389C19.7395 20.8044 20.2824 21.1348 21.2942 21.1348C22.306 21.1348 22.8487 20.8044 23.2848 20.5389C23.6676 20.3058 23.97 20.122 24.6223 20.122C24.7911 20.122 24.9604 20.1382 25.1234 20.1773C25.2785 20.2145 25.425 20.2732 25.5801 20.311C25.9168 20.3928 26.2804 20.4102 26.6257 20.3617V21.4684H26.626Z" fill="#A3A7A7"/>
<path d="M12.795 5.11374C12.8846 5.29913 13.1129 5.42502 13.3459 5.41472C13.5758 5.40461 13.7866 5.26499 13.8568 5.07617C13.928 4.88467 13.8481 4.6617 13.6625 4.53944C13.4707 4.41298 13.1877 4.40821 12.9906 4.52895C12.7815 4.65674 12.6961 4.90946 12.795 5.11374Z" fill="#A3A7A7"/>
<path d="M15.3511 7.26574C15.4407 7.45132 15.6688 7.57606 15.9015 7.56653C16.1316 7.55699 16.3421 7.41661 16.4126 7.22797C16.4841 7.03667 16.404 6.81313 16.2182 6.69125C16.0259 6.56517 15.7434 6.56098 15.546 6.68095C15.3363 6.80874 15.2539 7.06146 15.3511 7.26574Z" fill="#A3A7A7"/>
<path d="M13.9054 2.88167C14.107 2.99744 14.3904 2.986 14.5778 2.85363C14.761 2.72431 14.8343 2.49524 14.7497 2.30412C14.6674 2.11854 14.4493 1.98636 14.2181 1.98731C13.9893 1.98845 13.7718 2.11796 13.6908 2.30259C13.6003 2.50935 13.6928 2.75845 13.9054 2.88167Z" fill="#A3A7A7"/>
</svg>
