<svg width="28" height="31" viewBox="0 0 28 31" fill="none" xmlns="http://www.w3.org/2000/svg">
<path d="M21.3743 7.23469C21.5781 7.37031 21.8503 7.36091 22.0449 7.21279C22.2282 7.07326 22.3099 6.8286 22.2505 6.60665C22.1869 6.36868 21.9712 6.19382 21.7253 6.18051C21.4805 6.16725 21.2488 6.31618 21.1587 6.54377C21.0604 6.79178 21.15 7.08773 21.3743 7.23469Z" fill="#A3A7A7"/>
<path d="M23.8853 8.38297C23.693 8.12944 23.3315 8.07959 23.0778 8.27214C22.8243 8.46447 22.7746 8.826 22.967 9.07965C25.2452 12.0831 26.488 15.6424 26.5743 19.398L24.336 20.1083C24.0991 18.4086 23.7192 16.8234 23.2044 15.3875C23.2043 15.3873 23.2043 15.3872 23.2043 15.3871C22.6799 13.923 22.0016 12.5771 21.1883 11.3867C21.188 11.3863 21.1877 11.386 21.1875 11.3856C18.4573 7.39005 14.1122 4.96078 8.26539 4.15863L8.97838 1.94641C12.7542 2.03067 16.3345 3.25689 19.3579 5.5056C19.4612 5.58242 19.5818 5.61954 19.7014 5.61954C19.8774 5.61954 20.0512 5.53914 20.1643 5.3871C20.3543 5.13167 20.3012 4.77071 20.0458 4.58069C16.7108 2.10018 12.7391 0.789062 8.56013 0.789062C8.30994 0.789062 8.08828 0.950495 8.01157 1.18864L3.58528 14.9227L2.05706 19.664C2.05608 19.667 2.05516 19.6701 2.05423 19.6732L0.0947947 25.753C-0.130496 26.4529 0.0524914 27.212 0.57235 27.7342C1.09745 28.2614 1.86531 28.4491 2.5764 28.2233L11.0013 25.5495V27.8586C11.0013 29.168 12.0544 30.2618 13.3487 30.2969C13.3715 30.2975 13.3942 30.2979 13.4169 30.2979C14.0524 30.2979 14.6498 30.0561 15.1053 29.6126C15.5733 29.1571 15.8311 28.5477 15.8311 27.8967V24.0166L18.8586 23.0558V25.6696C18.8586 26.7892 19.7749 27.7 20.9012 27.7C21.4453 27.7 21.9574 27.4895 22.3436 27.1066C22.7302 26.7225 22.9431 26.2122 22.9431 25.6696V21.7595L27.3297 20.3675C27.5691 20.2916 27.7318 20.0693 27.7318 19.8182C27.7318 15.6546 26.4017 11.7003 23.8853 8.38297V8.38297ZM20.4731 12.3945C21.0541 13.3002 21.5552 14.2974 21.9679 15.3686C21.727 15.4987 21.4557 15.5681 21.1772 15.5681C20.2594 15.5681 19.5127 14.8214 19.5127 13.9036C19.5127 13.2495 19.9 12.6635 20.4731 12.3945ZM5.06941 18.7686C4.60644 19.228 3.98174 19.4532 3.35083 19.4078L4.65739 15.3539C4.80626 15.4442 4.94469 15.5522 5.06895 15.6755C5.48576 16.089 5.71526 16.6385 5.71526 17.2225C5.7152 17.8062 5.48588 18.3553 5.06941 18.7686ZM3.18219 26.8215C3.19043 25.9222 3.92457 25.193 4.82585 25.193C5.36283 25.193 5.8564 25.4577 6.15979 25.8766L3.18219 26.8215ZM12.5289 23.5505C11.6864 24.3867 10.3154 24.3867 9.47288 23.5505C9.0661 23.1469 8.84219 22.6106 8.84219 22.0405C8.84219 21.4703 9.06616 20.934 9.47288 20.5304C9.89418 20.1123 10.4475 19.9033 11.0009 19.9033C11.5543 19.9033 12.1077 20.1123 12.529 20.5304C12.9357 20.934 13.1597 21.4703 13.1597 22.0405C13.1596 22.6106 12.9356 23.1469 12.5289 23.5505V23.5505ZM22.1923 20.7886C21.953 20.8646 21.7904 21.0868 21.7904 21.3379V25.6696C21.7904 25.9029 21.6983 26.1228 21.5316 26.2885C21.3632 26.4554 21.1393 26.5474 20.9012 26.5474C20.4105 26.5474 20.0113 26.1536 20.0113 25.6696V22.2681C20.0113 22.0843 19.9236 21.9116 19.7753 21.803C19.627 21.6945 19.4358 21.6632 19.2606 21.7188L15.0804 23.0456C14.841 23.1215 14.6784 23.3438 14.6784 23.5949V27.8967C14.6784 28.234 14.5445 28.55 14.3013 28.7865C14.0544 29.0269 13.7287 29.1549 13.3799 29.1447C12.704 29.1264 12.154 28.5494 12.154 27.8586V25.1245C12.5872 24.9654 12.9934 24.7135 13.3409 24.3687C13.3409 24.3687 13.3409 24.3687 13.3409 24.3687C13.9673 23.747 14.3123 22.9202 14.3123 22.0404C14.3123 21.1607 13.9673 20.3338 13.3409 19.7122C12.0506 18.4317 9.95124 18.4317 8.66093 19.7121C8.03445 20.3338 7.68951 21.1607 7.68951 22.0404C7.68951 22.9202 8.03445 23.747 8.66093 24.3687C8.86225 24.5684 9.08327 24.7371 9.31779 24.8745L7.29161 25.5176C6.81198 24.6256 5.86695 24.0404 4.82585 24.0404C3.28391 24.0404 2.02945 25.2949 2.02945 26.8368C2.02945 26.9459 2.03573 27.0542 2.04818 27.1617C1.80508 27.185 1.5678 27.1004 1.38914 26.9209C1.1718 26.7026 1.09809 26.3981 1.19197 26.1064L2.99033 20.5264C3.16432 20.5536 3.33872 20.5671 3.51232 20.5671C4.38651 20.5671 5.23707 20.2263 5.88136 19.5869C6.51752 18.9556 6.86788 18.1159 6.86788 17.2226C6.86788 16.329 6.51735 15.489 5.88084 14.8574C5.62748 14.6059 5.33493 14.3964 5.01731 14.2371L7.9061 5.27373C13.2182 5.96315 17.2161 8.03584 19.8073 11.4422C18.936 11.9306 18.36 12.8667 18.36 13.9038C18.36 15.4571 19.6238 16.7209 21.1771 16.7209C21.5863 16.7209 21.9861 16.6324 22.3513 16.4649C22.7411 17.697 23.0326 19.0367 23.2208 20.4621L22.1923 20.7886Z" fill="#A3A7A7"/>
<path d="M14.6576 10.5486C14.6576 9.62182 14.2941 8.75074 13.6342 8.09573C12.2747 6.74674 10.0626 6.74674 8.70316 8.09573C8.04319 8.75068 7.67969 9.62177 7.67969 10.5486C7.67969 11.4755 8.04319 12.3465 8.70316 13.0016C9.3829 13.6761 10.2758 14.0133 11.1686 14.0133C12.0615 14.0133 12.9544 13.6761 13.6341 13.0016C14.2941 12.3465 14.6576 11.4755 14.6576 10.5486ZM12.8222 12.1833C11.9104 13.0881 10.4269 13.0881 9.51511 12.1833C9.07478 11.7464 8.83237 11.1659 8.83237 10.5486C8.83237 9.93138 9.07478 9.35089 9.51511 8.91402C9.971 8.46159 10.5698 8.23543 11.1686 8.23543C11.7675 8.23543 12.3663 8.46165 12.8222 8.91402C13.2625 9.35089 13.5049 9.93138 13.5049 10.5486C13.505 11.1659 13.2626 11.7464 12.8222 12.1833Z" fill="#A3A7A7"/>
<path d="M16.9113 15.4941C15.739 14.2834 13.7942 14.2582 12.5758 15.4377C12.4661 15.5441 12.4029 15.6897 12.4005 15.8425C12.398 15.9953 12.4564 16.1429 12.5627 16.2527L16.0129 19.8159C16.1259 19.9326 16.2764 19.9913 16.427 19.9913C16.5714 19.9913 16.716 19.9374 16.8279 19.8291C18.0461 18.6495 18.0836 16.7048 16.9113 15.4941V15.4941ZM16.3794 18.5374L13.8524 15.9278C14.5815 15.5601 15.4913 15.6847 16.0832 16.296C16.6751 16.9072 16.7703 17.8206 16.3794 18.5374Z" fill="#A3A7A7"/>
</svg>
